<?xml version="1.0" encoding="UTF-8" standalone="no"?>
<!-- Created with Inkscape (http://www.inkscape.org/) -->

<svg
   width="210mm"
   height="297mm"
   viewBox="0 0 210 297"
   version="1.1"
   id="svg1"
   inkscape:version="1.4.2 (ebf0e940d0, 2025-05-08)"
   sodipodi:docname="archDiagram.svg"
   xml:space="preserve"
   xmlns:inkscape="http://www.inkscape.org/namespaces/inkscape"
   xmlns:sodipodi="http://sodipodi.sourceforge.net/DTD/sodipodi-0.dtd"
   xmlns="http://www.w3.org/2000/svg"
   xmlns:svg="http://www.w3.org/2000/svg"><sodipodi:namedview
     id="namedview1"
     pagecolor="#ffffff"
     bordercolor="#000000"
     borderopacity="0.25"
     inkscape:showpageshadow="2"
     inkscape:pageopacity="0.0"
     inkscape:pagecheckerboard="0"
     inkscape:deskcolor="#d1d1d1"
     inkscape:document-units="mm"
     inkscape:zoom="0.68865282"
     inkscape:cx="119.07306"
     inkscape:cy="292.60027"
     inkscape:window-width="1366"
     inkscape:window-height="768"
     inkscape:window-x="0"
     inkscape:window-y="0"
     inkscape:window-maximized="1"
     inkscape:current-layer="layer1"
     showgrid="true"><inkscape:grid
       id="grid1"
       units="mm"
       originx="0"
       originy="0"
       spacingx="1"
       spacingy="0.99999998"
       empcolor="#0099e5"
       empopacity="0.30196078"
       color="#0099e5"
       opacity="0.14901961"
       empspacing="5"
       enabled="true"
       visible="true" /><inkscape:grid
       type="modular"
       id="grid2"
       units="mm"
       originx="0"
       originy="0"
       spacingx="40.000001"
       spacingy="39.999999"
       empcolor="#0047cb"
       empopacity="0.30196078"
       color="#0099e5"
       opacity="0.14901961"
       empspacing="0"
       marginx="0"
       marginy="0"
       gapx="10"
       gapy="9.9999998"
       enabled="true"
       visible="true" /><inkscape:grid
       id="grid3"
       units="mm"
       originx="0"
       originy="0"
       spacingx="1"
       spacingy="0.99999998"
       empcolor="#0099e5"
       empopacity="0.30196078"
       color="#0099e5"
       opacity="0.14901961"
       empspacing="5"
       enabled="true"
       visible="true" /></sodipodi:namedview><defs
     id="defs1" /><g
     inkscape:label="Layer 1"
     inkscape:groupmode="layer"
     id="layer1"><g
       id="Icon-Architecture/16/Arch_Amazon-VPC-Lattice_16"
       stroke="none"
       stroke-width="1"
       fill="none"
       fill-rule="evenodd"
       transform="matrix(0.41666667,0,0,0.41666667,193.89964,62.808914)"><g
         id="Icon-Architecture-BG/16/Networking-Content-Delivery"
         fill="#8c4fff"><rect
           id="Rectangle-6"
           x="0"
           y="0"
           width="24"
           height="24" /></g><path
         d="M 12.536,16.197 V 7.727 L 15,8.555 v 5.085 c 0,0.51 -0.451,2.29 -2.464,2.557 z M 9,13.64 V 8.557 l 2.536,-0.835 v 8.475 C 9.484,15.93 9,14.12 9,13.64 Z M 5,6 H 6 V 5 H 5 Z m 13,0 h 1 V 5 h -1 z m 0,13 h 1 V 18 H 18 Z M 5,19 H 6 V 18 H 5 Z M 16,8.707 17.707,7 H 19.5 C 19.776,7 20,6.777 20,6.5 v -2 C 20,4.224 19.776,4 19.5,4 h -2 C 17.223,4 17,4.224 17,4.5 V 6.293 L 15.594,7.699 12.195,6.557 C 12.093,6.523 11.982,6.522 11.88,6.556 L 8.406,7.7 7,6.293 V 4.5 C 7,4.224 6.776,4 6.5,4 h -2 C 4.223,4 4,4.224 4,4.5 v 2 C 4,6.777 4.223,7 4.5,7 H 6.293 L 8,8.707 v 4.933 c 0,0.351 0.098,0.833 0.324,1.329 L 6.293,17 H 4.5 C 4.223,17 4,17.224 4,17.5 v 2 C 4,19.777 4.223,20 4.5,20 h 2 C 6.776,20 7,19.777 7,19.5 v -1.793 l 1.865,-1.865 c 0.63,0.774 1.643,1.409 3.171,1.409 1.512,0 2.506,-0.621 3.122,-1.386 L 17,17.707 V 19.5 c 0,0.277 0.223,0.5 0.5,0.5 h 2 c 0.276,0 0.5,-0.223 0.5,-0.5 v -2 C 20,17.224 19.776,17 19.5,17 H 17.707 L 15.69,14.983 C 15.907,14.488 16,14.004 16,13.64 Z"
         id="Fill-1-2"
         fill="#ffffff" /></g><path
       d="m 11.809247,73.753226 c 0.03692,-0.03662 0.08546,-0.05679 0.137134,-0.05679 h 2.84e-4 c 0.05224,0 0.101364,0.02017 0.138269,0.05707 0.03662,0.03692 0.0565,0.08546 0.0565,0.137134 v 5.68e-4 c 0,0.05224 -0.02015,0.101074 -0.05707,0.137985 -0.03662,0.03662 -0.08546,0.05679 -0.137702,0.05679 h -2.84e-4 c -0.107322,0 -0.194202,-0.08745 -0.194202,-0.19477 0,-0.05196 0.02017,-0.101074 0.05707,-0.137985 z m -0.146504,0.844666 v 0.79782 h 0.567843 v -0.796968 c 0.09398,-0.03776 0.180858,-0.09398 0.255246,-0.167798 0.143949,-0.143948 0.223162,-0.335311 0.223449,-0.539167 5.68e-4,-0.203571 -0.07865,-0.394934 -0.222597,-0.539166 -0.143949,-0.144516 -0.335879,-0.224014 -0.539735,-0.224014 h -8.54e-4 c -0.419636,0 -0.761194,0.341841 -0.761761,0.762329 0,0.320264 0.198461,0.593964 0.478409,0.706964 z m 2.232476,1.311718 -3.8985265,-0.0017 0.0012,-3.153801 3.8990935,0.002 z m -2.904802,-4.438261 c 8.54e-4,-0.280231 0.103349,-0.542858 0.289032,-0.739048 0.180291,-0.190511 0.417649,-0.295279 0.66892,-0.295279 h 0.0031 c 0.52497,0.0017 0.950284,0.471026 0.948586,1.046536 l -2.84e-4,0.704125 -1.912779,-8.54e-4 z m 3.190426,0.716901 -0.71321,-2.83e-4 2.84e-4,-0.703558 c 0.0028,-0.887823 -0.676869,-1.61239 -1.514722,-1.615229 h -0.0048 c -0.408847,0 -0.792995,0.167798 -1.081458,0.473013 -0.285057,0.301524 -0.442918,0.701854 -0.444337,1.126885 l -0.0034,0.717469 -0.7052605,-2.84e-4 c -0.07525,0 -0.147356,0.0301 -0.200733,0.08319 -0.0531,0.05337 -0.08319,0.125493 -0.08319,0.200733 l -0.0012,3.721643 c 0,0.156725 0.126914,0.283921 0.283922,0.283921 l 4.4663695,0.0017 c 0.156441,0 0.28392,-0.127197 0.28392,-0.283922 l 0.0017,-3.721359 c 0,-0.07496 -0.0301,-0.147355 -0.08319,-0.200732 -0.05337,-0.05311 -0.125486,-0.08321 -0.200726,-0.08321 z M 8.2295645,67.677021 c -0.113285,0 -0.205276,-0.09228 -0.205276,-0.205275 0,-0.113285 0.09199,-0.205559 0.205276,-0.205559 0.113285,0 0.205275,0.09228 0.205275,0.205559 0,0.113 -0.09199,0.205275 -0.205275,0.205275 z m 0,-0.978678 c -0.426166,0 -0.773118,0.346953 -0.773118,0.773403 0,0.426166 0.346952,0.773119 0.773118,0.773119 0.42645,0 0.773119,-0.346953 0.773119,-0.773119 0,-0.42645 -0.346669,-0.773403 -0.773119,-0.773403 z m 0.403453,2.317936 c -0.118112,0.03748 -0.198178,0.147072 -0.198178,0.270861 v 0.496296 c 0,0.07523 0.0301,0.147354 0.08319,0.200732 l 0.21862,0.218336 -0.21862,0.218903 c -0.0531,0.0531 -0.08319,0.125493 -0.08319,0.200733 v 0.279378 c 0,0.07552 0.0301,0.147639 0.08319,0.200733 l 0.21862,0.218619 -0.21862,0.21862 c -0.0531,0.05337 -0.08319,0.125777 -0.08319,0.200733 v 0.312597 l -0.233951,0.267454 -0.1766,-0.151614 v -2.88152 c 0,-0.123789 -0.08006,-0.233383 -0.198177,-0.270861 -0.550239,-0.174328 -0.920189,-0.68056 -0.920189,-1.25976 0,-0.729678 0.59368,-1.323642 1.323642,-1.323642 0.729678,0 1.323643,0.593964 1.323643,1.323642 0,0.5792 -0.36995,1.085432 -0.92019,1.25976 z m 0.705828,1.386957 c 0.11073,-0.110729 0.11073,-0.290452 0,-0.401465 l -0.336162,-0.335879 v -0.183414 c 0.676868,-0.300104 1.1183655,-0.969592 1.1183655,-1.725959 0,-1.043127 -0.8486405,-1.891485 -1.8914845,-1.891485 -1.042843,0 -1.891485,0.848358 -1.891485,1.891485 0,0.756367 0.441498,1.425855 1.118367,1.725959 v 2.816786 c 0,0.08291 0.03634,0.161551 0.09909,0.215496 l 0.488912,0.419353 c 0.05367,0.04599 0.119247,0.06842 0.185118,0.06842 0.07893,0 0.157292,-0.03265 0.213793,-0.09681 l 0.489195,-0.559326 c 0.04514,-0.05167 0.07013,-0.118111 0.07013,-0.18682 v -0.30181 l 0.336162,-0.336162 c 0.11073,-0.111013 0.11073,-0.290736 0,-0.401465 l -0.336159,-0.336162 v -0.04428 z m 5.5509505,6.270407 c 0,0.126061 -0.102781,0.228841 -0.228841,0.228841 H 6.2543225 c -0.126346,0 -0.22884,-0.102781 -0.22884,-0.228841 V 65.785252 c 0,-0.126344 0.102501,-0.22884 0.22884,-0.22884 h 8.4066325 c 0.126061,0 0.228841,0.10249 0.228841,0.22884 z M 14.660955,64.988568 H 6.2543225 c -0.439227,0 -0.796684,0.357458 -0.796684,0.796684 v 10.888391 c 0,0.439226 0.357457,0.796684 0.796684,0.796684 h 8.4066325 c 0.439226,0 0.796683,-0.357458 0.796683,-0.796684 V 65.785252 c 0,-0.439226 -0.357457,-0.796684 -0.796683,-0.796684 z"
       id="AWS-Identity-and-Access-Management_Data-Encryption-Key_-Resource-Icon_light-bg"
       fill="#dd344c"
       style="fill-rule:evenodd;stroke:none;stroke-width:0.283921" /><path
       d="m 8.8453719,54.188238 c 1.2288621,0 2.2288661,-1.007273 2.2288661,-2.245001 0,-1.237956 -1.000004,-2.245229 -2.2288661,-2.245229 -1.229095,0 -2.229322,1.007273 -2.229322,2.245229 0,1.237728 1.000227,2.245001 2.229322,2.245001 z m -4.085457,4.600685 h 5.4488621 v 0.454545 H 4.5269579 c -0.125678,0 -0.22727,-0.101818 -0.22727,-0.227272 0,-2.227274 1.487494,-4.09523 3.481359,-4.595912 -0.951814,-0.415455 -1.619545,-1.368865 -1.619545,-2.477047 0,-1.488637 1.203866,-2.699774 2.68387,-2.699774 1.4795481,0 2.6834061,1.211137 2.6834061,2.699774 0,1.107728 -0.6675,2.061137 -1.6184041,2.476592 0.2074971,0.05205 0.4127251,0.114319 0.6124981,0.197046 0.04046,0.0166 0.07997,0.03364 0.119546,0.05137 l -0.186365,0.414773 c -0.03548,-0.01614 -0.07138,-0.03136 -0.10727,-0.04637 -0.4781881,-0.197727 -0.9843191,-0.298182 -1.5036441,-0.298182 -2.182729,0 -3.971821,1.797047 -4.085224,4.050458 z m 9.0852331,-1.704547 c 0,-0.94 -0.764547,-1.704546 -1.70455,-1.704546 -0.940004,0 -1.704543,0.764546 -1.704543,1.704546 0,0.940001 0.764539,1.704547 1.704543,1.704547 0.940003,0 1.70455,-0.764546 1.70455,-1.704547 z m 0.45454,0 c 0,1.190456 -0.968633,2.159092 -2.15909,2.159092 -1.190458,0 -2.1590921,-0.968636 -2.1590921,-2.159092 0,-1.190455 0.9686341,-2.159092 2.1590921,-2.159092 1.190457,0 2.15909,0.968637 2.15909,2.159092 z m -1.29704,-0.823637 0.321363,0.321364 -1.363637,1.363638 c -0.04433,0.04454 -0.102503,0.06659 -0.160682,0.06659 -0.05815,0 -0.116366,-0.02204 -0.160682,-0.06659 l -0.681818,-0.681819 0.321364,-0.321364 0.521136,0.521137 z"
       id="Fill-1-1"
       fill="#232f3d"
       style="fill-rule:evenodd;stroke:none;stroke-width:0.227272" /><path
       d="m 9.3930217,112.13152 c 0,-0.66251 0.548408,-1.20136 1.2227273,-1.20136 0.674091,0 1.222272,0.53885 1.222272,1.20136 0,0.6625 -0.548181,1.20136 -1.222272,1.20136 -0.6743193,0 -1.2227273,-0.53886 -1.2227273,-1.20136 z m 2.6190903,1.60182 c -0.147045,-0.0914 -0.302272,-0.16683 -0.4625,-0.2275 0.447727,-0.29773 0.742954,-0.80251 0.742954,-1.37432 0,-0.91296 -0.752273,-1.65591 -1.676817,-1.65591 -0.9247733,0 -1.6772733,0.74295 -1.6772733,1.65591 0,0.57046 0.293863,1.07454 0.74,1.3725 -0.291136,0.10978 -0.564772,0.27046 -0.805909,0.47728 l 0.296136,0.34499 c 0.405,-0.34749 0.9175003,-0.53886 1.4427283,-0.53886 0.409545,0 0.811136,0.11477 1.161136,0.33204 0.622727,0.38682 1.031363,1.06637 1.100909,1.81068 h -2.262045 v 0.45456 h 2.499999 c 0.125682,0 0.227273,-0.1016 0.227273,-0.22728 0,-0.98705 -0.508182,-1.91591 -1.326591,-2.42409 z m -7.1645453,-1.60182 c 0,-0.66251 0.548408,-1.20136 1.222727,-1.20136 0.674091,0 1.222272,0.53885 1.222272,1.20136 0,0.6625 -0.548181,1.20136 -1.222272,1.20136 -0.674319,0 -1.222727,-0.53886 -1.222727,-1.20136 z m 1.218409,3.79863 h -2.262273 c 0.11,-1.20067 1.082728,-2.14272 2.262273,-2.14272 0.409545,0 0.811136,0.11477 1.161136,0.33204 0.09818,0.0612 0.192955,0.13069 0.281819,0.20681 l 0.296136,-0.34476 c -0.106364,-0.0914 -0.22,-0.17477 -0.33841,-0.24818 -0.147045,-0.0914 -0.302272,-0.16683 -0.462499,-0.2275 0.447727,-0.29773 0.742954,-0.80251 0.742954,-1.37432 0,-0.91296 -0.752273,-1.65591 -1.676818,-1.65591 -0.924773,0 -1.677273,0.74295 -1.677273,1.65591 0,0.57159 0.295,1.07659 0.742728,1.37409 -1.046591,0.39523 -1.797046,1.43319 -1.797046,2.65182 0,0.12568 0.101818,0.22728 0.227272,0.22728 h 2.500001 z m 0.01045,4.09091 c 0.11,-1.20067 1.082727,-2.14272 2.262272,-2.14272 0.409547,0 0.811137,0.11477 1.161137,0.33204 0.6227273,0.38681 1.0313643,1.06636 1.1009093,1.81068 z m 1.043863,-3.79863 c 0,-0.66251 0.54841,-1.20136 1.222728,-1.20136 0.674091,0 1.222273,0.53885 1.222273,1.20136 0,0.66249 -0.548182,1.20136 -1.222273,1.20136 -0.674318,0 -1.222728,-0.53887 -1.222728,-1.20136 z m 2.619092,1.60182 c -0.147046,-0.0914 -0.302273,-0.16683 -0.462501,-0.22751 0.447728,-0.29773 0.7429553,-0.8025 0.7429553,-1.37431 0,-0.91296 -0.7522723,-1.65591 -1.6768183,-1.65591 -0.924773,0 -1.677272,0.74295 -1.677272,1.65591 0,0.57159 0.294999,1.07658 0.742727,1.37408 -1.046591,0.39523 -1.797046,1.43319 -1.797046,2.65182 0,0.12569 0.101818,0.22728 0.227273,0.22728 H 10.8387 c 0.125682,0 0.227272,-0.10159 0.227272,-0.22728 0,-0.98703 -0.508181,-1.9159 -1.3265913,-2.42408 z"
       id="Fill-1-20"
       fill="#242f3e"
       style="fill-rule:evenodd;stroke:none;stroke-width:0.227272" /><g
       id="g4"
       transform="matrix(0.71078171,0,0,1.0005363,-1.1785322,-0.04418786)"><rect
         style="fill:none;fill-opacity:1;stroke:#8c4fff;stroke-width:0.428006;stroke-linejoin:round;stroke-dasharray:none;stroke-opacity:1"
         id="rect3-7-0"
         width="189.13586"
         height="125.04979"
         x="65.214005"
         y="35.214005" /></g><g
       id="Icon-Architecture-Group/32/AWS-Cloud_32-2"
       stroke="none"
       stroke-width="1"
       fill="none"
       fill-rule="evenodd"
       transform="matrix(0.23748741,0,0,0.23753637,45.240401,35.260007)"
       style="stroke:#8c4fff;stroke-width:2.10526;stroke-linecap:round;stroke-linejoin:round;stroke-dasharray:none;stroke-opacity:1"><rect
         id="Rectangle-2-5"
         fill="#ffffff"
         x="0"
         y="0"
         width="40"
         height="40"
         style="stroke:#8c4fff;stroke-width:2.10526;stroke-linecap:round;stroke-linejoin:round;stroke-dasharray:none;stroke-opacity:1" /><path
         d="m 28.993,27.995269 -17.506,-0.019 c -2.366,-0.002 -4.333,-1.847 -4.475,-4.201 -0.008,-0.123 -0.012,-0.249 -0.012,-0.378 0,-3.098 2.091,-4.11 3.337,-4.438 0.24,-0.063 0.398,-0.293 0.37,-0.54 -0.031,-0.27 -0.048,-0.544 -0.048,-0.823 0,-2.464 1.649,-5.114 3.756,-6.033 0.944,-0.413 1.817,-0.577 2.608,-0.577 2.253,0 3.844,1.329 4.538,2.047 0.768,0.793 1.366,1.805 1.779,3.009 0.06,0.177 0.215,0.305 0.4,0.332 0.178,0.027 0.369,-0.051 0.479,-0.203 0.588,-0.821 1.547,-1.189 2.44,-0.932 1.123,0.321 1.857,1.488 1.961,3.068 -0.042,0.269 0.139,0.522 0.407,0.57 1.195,0.212 3.973,1.08 3.973,4.563 0,4.149 -3.886,4.542 -4.007,4.555 m 0.601,-10.021 c -0.215,-1.907 -1.194,-3.278 -2.66,-3.696 -1.035,-0.296 -2.123,-0.033 -2.945,0.672 -0.436,-1.014 -1.01,-1.89 -1.709,-2.612 -2.257,-2.333 -5.347,-2.9660001 -8.266,-1.692 -2.483,1.084 -4.355,4.072 -4.355,6.95 0,0.174 0.006,0.347 0.017,0.518 -1.357,0.459 -3.676,1.761 -3.676,5.283 0,0.152 0.004,0.299 0.014,0.441 0.174,2.878 2.579,5.135 5.472,5.138 l 17.548,0.017 c 0.05,-0.004 4.966,-0.474 4.966,-5.553 0,-3.938 -2.997,-5.126 -4.406,-5.466"
         id="Fill-1-8-4"
         fill="#232f3e"
         style="stroke:#8c4fff;stroke-width:2.10526;stroke-linecap:round;stroke-linejoin:round;stroke-dasharray:none;stroke-opacity:1" /></g><rect
       style="fill:none;fill-opacity:1;stroke:#000000;stroke-width:0.447954;stroke-linejoin:round;stroke-dasharray:none;stroke-opacity:1"
       id="rect3"
       width="169.92627"
       height="152.46245"
       x="25.223978"
       y="15.223977" /><g
       id="g6"
       transform="translate(-17.844353,-0.6353941)"><g
         id="Icon-Architecture-Group/32/AWS-Cloud_32"
         stroke="none"
         stroke-width="1"
         fill="none"
         fill-rule="evenodd"
         transform="matrix(0.2375,0,0,0.2375,43.094354,15.885395)"
         style="stroke:#000000;stroke-width:2.10526;stroke-linecap:round;stroke-linejoin:round;stroke-dasharray:none;stroke-opacity:1"><rect
           id="Rectangle-2"
           fill="#ffffff"
           x="0"
           y="0"
           width="40"
           height="40"
           style="stroke:#000000;stroke-width:2.10526;stroke-linecap:round;stroke-linejoin:round;stroke-dasharray:none;stroke-opacity:1" /><path
           d="m 28.993,27.995269 -17.506,-0.019 c -2.366,-0.002 -4.333,-1.847 -4.475,-4.201 -0.008,-0.123 -0.012,-0.249 -0.012,-0.378 0,-3.098 2.091,-4.11 3.337,-4.438 0.24,-0.063 0.398,-0.293 0.37,-0.54 -0.031,-0.27 -0.048,-0.544 -0.048,-0.823 0,-2.464 1.649,-5.114 3.756,-6.033 0.944,-0.413 1.817,-0.577 2.608,-0.577 2.253,0 3.844,1.329 4.538,2.047 0.768,0.793 1.366,1.805 1.779,3.009 0.06,0.177 0.215,0.305 0.4,0.332 0.178,0.027 0.369,-0.051 0.479,-0.203 0.588,-0.821 1.547,-1.189 2.44,-0.932 1.123,0.321 1.857,1.488 1.961,3.068 -0.042,0.269 0.139,0.522 0.407,0.57 1.195,0.212 3.973,1.08 3.973,4.563 0,4.149 -3.886,4.542 -4.007,4.555 m 0.601,-10.021 c -0.215,-1.907 -1.194,-3.278 -2.66,-3.696 -1.035,-0.296 -2.123,-0.033 -2.945,0.672 -0.436,-1.014 -1.01,-1.89 -1.709,-2.612 -2.257,-2.333 -5.347,-2.9660001 -8.266,-1.692 -2.483,1.084 -4.355,4.072 -4.355,6.95 0,0.174 0.006,0.347 0.017,0.518 -1.357,0.459 -3.676,1.761 -3.676,5.283 0,0.152 0.004,0.299 0.014,0.441 0.174,2.878 2.579,5.135 5.472,5.138 l 17.548,0.017 c 0.05,-0.004 4.966,-0.474 4.966,-5.553 0,-3.938 -2.997,-5.126 -4.406,-5.466"
           id="Fill-1-8"
           fill="#232f3e"
           style="stroke:#000000;stroke-width:2.10526;stroke-linecap:round;stroke-linejoin:round;stroke-dasharray:none;stroke-opacity:1" /></g></g><rect
       style="fill:none;fill-opacity:1;stroke:#00a4a6;stroke-width:0.450513;stroke-linejoin:round;stroke-dasharray:1.80205, 0.450513;stroke-dashoffset:0;stroke-opacity:1"
       id="rect3-7"
       width="153.4856"
       height="139.82962"
       x="35.225258"
       y="25.225256" /><g
       id="Icon-Architecture-Group/32/Region_32"
       stroke="none"
       stroke-width="1"
       fill="none"
       fill-rule="evenodd"
       transform="matrix(0.25,0,0,0.25,35.036011,25.148277)"
       style="stroke-width:3.99915;stroke-dasharray:15.9966, 3.99915;stroke-dashoffset:0"><rect
         id="Rectangle-61"
         fill="#00a4a6"
         x="0"
         y="-0.54994935"
         width="40"
         height="40"
         style="stroke-width:3.99915;stroke-dasharray:15.9966, 3.99915;stroke-dashoffset:0" /><path
         d="m 14,20.026 v -9 h 15.293 l -4.147,4.146 c -0.195,0.196 -0.195,0.512 0,0.708 l 4.147,4.146 z m 12.207,-4.5 4.647,-4.646 c 0.142,-0.144 0.185,-0.358 0.108,-0.545 -0.077,-0.187 -0.26,-0.309 -0.462,-0.309 H 14 V 8.97 C 14.596,8.76 15.026,8.198 15.026,7.531 15.026,6.687 14.34,6 13.495,6 12.65,6 11.963,6.687 11.963,7.531 c 0,0.67 0.435,1.235 1.037,1.442 v 24.053 h -3 v 1 h 7 v -1 h -3 v -12 h 16.5 c 0.202,0 0.385,-0.122 0.462,-0.309 0.077,-0.187 0.034,-0.401 -0.108,-0.545 z"
         id="Fill-1-29"
         fill="#ffffff"
         style="stroke-width:3.99915;stroke-dasharray:15.9966, 3.99915;stroke-dashoffset:0" /></g><rect
       style="fill:none;fill-opacity:1;stroke:#00a4a6;stroke-width:0.362378;stroke-linejoin:round;stroke-dasharray:2.89902, 0.362378;stroke-dashoffset:0;stroke-opacity:1"
       id="rect3-7-06"
       width="152.80057"
       height="110.95699"
       x="57.409481"
       y="46.269493" /><text
       xml:space="preserve"
       style="font-size:6.5445px;text-align:start;writing-mode:lr-tb;direction:ltr;text-anchor:start;fill:#000000;fill-opacity:1;stroke:#000000;stroke-width:0;stroke-linecap:round;stroke-linejoin:round;stroke-dasharray:none;stroke-opacity:1"
       x="58.554001"
       y="23.407566"
       id="text3"><tspan
         sodipodi:role="line"
         id="tspan3"
         style="font-size:6.5445px;stroke-width:0;stroke-dasharray:none"
         x="58.554001"
         y="23.407566">AWS Cloud</tspan></text><text
       xml:space="preserve"
       style="font-size:4.23333px;text-align:start;writing-mode:lr-tb;direction:ltr;text-anchor:start;fill:#000000;fill-opacity:1;stroke:#000000;stroke-width:0;stroke-linecap:round;stroke-linejoin:round;stroke-dasharray:none;stroke-opacity:1"
       x="3.3270018"
       y="109.51804"
       id="text3-9"><tspan
         sodipodi:role="line"
         id="tspan3-64"
         style="font-size:4.23333px;stroke-width:0;stroke-dasharray:none"
         x="3.3270018"
         y="109.51804">Internet Gateway</tspan></text><text
       xml:space="preserve"
       style="font-size:6.5445px;text-align:start;writing-mode:lr-tb;direction:ltr;text-anchor:start;fill:#00a4a6;fill-opacity:1;stroke:#00a4a6;stroke-width:0;stroke-linecap:round;stroke-linejoin:round;stroke-dasharray:none;stroke-opacity:1"
       x="65.182648"
       y="33.516373"
       id="text3-3"
       inkscape:transform-center-x="3.6745791"
       inkscape:transform-center-y="-13.401406"><tspan
         sodipodi:role="line"
         id="tspan3-6"
         style="font-size:6.5445px;fill:#00a4a6;fill-opacity:1;stroke:#00a4a6;stroke-width:0;stroke-dasharray:none;stroke-opacity:1"
         x="65.182648"
         y="33.516373">Region</tspan></text><text
       xml:space="preserve"
       style="font-size:6.5445px;text-align:start;writing-mode:lr-tb;direction:ltr;text-anchor:start;fill:#00a4a6;fill-opacity:1;stroke:#00a4a6;stroke-width:0;stroke-linecap:round;stroke-linejoin:round;stroke-dasharray:none;stroke-opacity:1"
       x="137.28947"
       y="52.667381"
       id="text3-3-5"
       inkscape:transform-center-x="3.6745791"
       inkscape:transform-center-y="-13.401406"><tspan
         sodipodi:role="line"
         id="tspan3-6-0"
         style="font-size:6.5445px;fill:#00a4a6;fill-opacity:1;stroke:#00a4a6;stroke-width:0;stroke-dasharray:none;stroke-opacity:1"
         x="137.28947"
         y="52.667381">Availability Zone 1</tspan></text><text
       xml:space="preserve"
       style="font-size:3.52778px;text-align:start;writing-mode:lr-tb;direction:ltr;text-anchor:start;fill:#8c4fff;fill-opacity:1;stroke:#8c4fff;stroke-width:0;stroke-linecap:round;stroke-linejoin:round;stroke-dasharray:none;stroke-opacity:1"
       x="71.459229"
       y="39.622807"
       id="text3-3-8"
       inkscape:transform-center-x="3.6745791"
       inkscape:transform-center-y="-13.401406"><tspan
         sodipodi:role="line"
         id="tspan3-6-4"
         style="font-size:3.52778px;fill:#8c4fff;fill-opacity:1;stroke:#8c4fff;stroke-width:0;stroke-dasharray:none;stroke-opacity:1"
         x="71.459229"
         y="39.622807">VPC</tspan><tspan
         sodipodi:role="line"
         style="font-size:3.52778px;fill:#8c4fff;fill-opacity:1;stroke:#8c4fff;stroke-width:0;stroke-dasharray:none;stroke-opacity:1"
         x="71.459229"
         y="44.032532"
         id="tspan8">10.0.0.0/16</tspan></text><path
       d="m 47.061021,60.165191 h 9.08975 v -2.129755 h -9.08975 z m 9.54488,-2.357317 v 2.584879 c 0,0.125843 -0.10172,0.227563 -0.22756,0.227563 h -9.54488 c -0.12584,0 -0.22756,-0.10172 -0.22756,-0.227563 v -2.584879 c 0,-0.125843 0.10172,-0.227562 0.22756,-0.227562 h 9.54488 c 0.12584,0 0.22756,0.101719 0.22756,0.227562 z m -9.54488,-1.023348 h 9.08975 v -2.129757 h -9.08975 z m 9.54488,-2.357319 v 2.585109 c 0,0.125614 -0.10172,0.227562 -0.22756,0.227562 h -9.54488 c -0.12584,0 -0.22756,-0.101948 -0.22756,-0.227562 v -2.585109 c 0,-0.125842 0.10172,-0.227562 0.22756,-0.227562 h 9.54488 c 0.12584,0 0.22756,0.10172 0.22756,0.227562 z m -9.54488,-1.02312 h 9.08975 v -2.129756 h -9.08975 z m 9.54488,-2.357319 v 2.584882 c 0,0.125841 -0.10172,0.227562 -0.22756,0.227562 h -9.54488 c -0.12584,0 -0.22756,-0.101721 -0.22756,-0.227562 v -2.584882 c 0,-0.125841 0.10172,-0.227562 0.22756,-0.227562 h 9.54488 c 0.12584,0 0.22756,0.101721 0.22756,0.227562 z m -1.4894,8.059576 c 0,0.194793 0.0182,0.335882 0.0548,0.423493 0.0366,0.08761 0.0951,0.131076 0.17545,0.131076 0.0801,0 0.13859,-0.04346 0.17523,-0.131076 0.0366,-0.08761 0.0549,-0.2287 0.0549,-0.423493 0,-0.193655 -0.0182,-0.334061 -0.0549,-0.421673 -0.0366,-0.08761 -0.0951,-0.131303 -0.17523,-0.131303 -0.0803,0 -0.13881,0.04369 -0.17545,0.131303 -0.0366,0.08761 -0.0548,0.228018 -0.0548,0.421673 z m -0.094,0.532723 c -0.074,-0.121973 -0.11082,-0.299472 -0.11082,-0.532723 0,-0.233479 0.0369,-0.41075 0.11082,-0.53204 0.074,-0.121291 0.18205,-0.18205 0.32428,-0.18205 0.14223,0 0.25032,0.06076 0.32405,0.18205 0.0742,0.12129 0.11105,0.298561 0.11105,0.53204 0,0.234616 -0.0369,0.41257 -0.11105,0.533634 -0.0737,0.121518 -0.18182,0.182049 -0.32405,0.182049 -0.14223,0 -0.25032,-0.06076 -0.32428,-0.18296 z m -0.42759,0.177044 c 0.0378,0 0.0687,-0.0116 0.0917,-0.03482 0.0232,-0.02298 0.035,-0.05394 0.035,-0.09239 0,-0.03845 -0.0118,-0.06918 -0.035,-0.09239 -0.023,-0.02344 -0.0539,-0.03482 -0.0917,-0.03482 -0.038,0 -0.069,0.01138 -0.0919,0.03482 -0.0232,0.02321 -0.0348,0.05394 -0.0348,0.09239 0,0.03845 0.0116,0.06941 0.0348,0.09239 0.023,0.02321 0.0539,0.03482 0.0919,0.03482 z m -0.34657,-0.185008 h -0.5746 c 0.16339,-0.19889 0.27899,-0.346123 0.34658,-0.442382 0.0674,-0.09603 0.11401,-0.176588 0.13927,-0.24167 0.0253,-0.06486 0.0382,-0.127663 0.0382,-0.188877 0,-0.115146 -0.0305,-0.205034 -0.0913,-0.269434 -0.0603,-0.06417 -0.14473,-0.09649 -0.25305,-0.09649 -0.0621,0 -0.12266,0.01047 -0.18182,0.03094 -0.0589,0.02048 -0.12038,0.05325 -0.18365,0.09831 v 0.169307 c 0.13358,-0.0851 0.24418,-0.127436 0.33156,-0.127436 0.11424,0 0.17113,0.06895 0.17113,0.206854 0,0.06236 -0.0164,0.127891 -0.0485,0.196842 -0.0328,0.06895 -0.086,0.155425 -0.16066,0.259421 -0.0746,0.103997 -0.18319,0.244175 -0.32542,0.420763 v 0.149054 h 0.79215 z m -1.15739,0.185008 c 0.038,0 0.0685,-0.0116 0.0919,-0.03482 0.023,-0.02298 0.0348,-0.05394 0.0348,-0.09239 0,-0.03845 -0.0118,-0.06918 -0.0348,-0.09239 -0.0234,-0.02344 -0.0539,-0.03482 -0.0919,-0.03482 -0.038,0 -0.0687,0.01138 -0.0919,0.03482 -0.0232,0.02321 -0.0348,0.05394 -0.0348,0.09239 0,0.03845 0.0116,0.06941 0.0348,0.09239 0.0232,0.02321 0.0539,0.03482 0.0919,0.03482 z m -0.96554,-0.626252 c 0,0.164528 0.0187,0.284681 0.0562,0.360914 0.0373,0.07624 0.0958,0.114236 0.17613,0.114236 0.13403,0 0.20094,-0.0933 0.20094,-0.280357 0,-0.08625 -0.0175,-0.152239 -0.053,-0.197978 -0.035,-0.04552 -0.0872,-0.06872 -0.15611,-0.06872 -0.0733,0 -0.14792,0.01866 -0.22415,0.05598 z m -0.094,0.468096 c -0.0696,-0.10923 -0.10446,-0.277853 -0.10446,-0.505871 0,-0.245312 0.0421,-0.433278 0.12585,-0.563899 0.0837,-0.130621 0.20298,-0.195931 0.35773,-0.195931 0.0478,0 0.0963,0.0059 0.14495,0.01797 0.0485,0.01206 0.091,0.02776 0.12767,0.04779 v 0.145185 c -0.0353,-0.01616 -0.0753,-0.0289 -0.12039,-0.03869 -0.0451,-0.01001 -0.0872,-0.01525 -0.12675,-0.01525 -0.0999,0 -0.17454,0.0396 -0.22392,0.11856 -0.0494,0.07896 -0.0776,0.204352 -0.0844,0.376844 0.0901,-0.05302 0.18319,-0.07964 0.27899,-0.07964 0.10673,0 0.19229,0.03732 0.25646,0.111504 0.0642,0.07418 0.0963,0.172948 0.0963,0.296287 0,0.137902 -0.0371,0.247132 -0.10991,0.327918 -0.0733,0.08079 -0.17272,0.12129 -0.29765,0.12129 -0.14382,0 -0.25055,-0.05461 -0.32041,-0.164072 z m -0.7298,0.138358 h 0.20071 v -1.378118 h -0.18364 l -0.33179,0.188878 v 0.163162 l 0.31472,-0.149281 z m -0.74139,0.0198 c 0.038,0 0.0687,-0.0116 0.0922,-0.03482 0.023,-0.02298 0.0348,-0.05393 0.0348,-0.09239 0,-0.03845 -0.0118,-0.06918 -0.0348,-0.09239 -0.0234,-0.02344 -0.0542,-0.03482 -0.0922,-0.03482 -0.0378,0 -0.0685,0.01138 -0.0917,0.03482 -0.0232,0.02321 -0.0348,0.05394 -0.0348,0.09239 0,0.03845 0.0116,0.06941 0.0348,0.09239 0.0232,0.02321 0.0539,0.03482 0.0917,0.03482 z m -0.34635,-0.185009 h -0.57437 c 0.16316,-0.19889 0.27876,-0.346123 0.34612,-0.442382 0.0678,-0.09603 0.11424,-0.176588 0.1395,-0.24167 0.0255,-0.06486 0.0382,-0.127663 0.0382,-0.188877 0,-0.115146 -0.0303,-0.205034 -0.091,-0.269434 -0.0605,-0.06417 -0.14496,-0.09649 -0.25305,-0.09649 -0.0624,0 -0.12266,0.01047 -0.18182,0.03094 -0.0594,0.02048 -0.12038,0.05325 -0.18388,0.09831 v 0.169307 c 0.13358,-0.0851 0.24418,-0.127436 0.33156,-0.127436 0.11424,0 0.17113,0.06895 0.17113,0.206854 0,0.06236 -0.0162,0.127891 -0.0485,0.196842 -0.0325,0.06895 -0.086,0.155425 -0.16066,0.259421 -0.0746,0.103997 -0.18296,0.244175 -0.32519,0.420763 v 0.149054 h 0.79192 z m -1.68988,0.16521 h 0.20708 l 0.4417,-1.230884 v -0.147235 h -0.80694 v 0.164983 h 0.60623 z m -0.7794,0 h 0.20071 v -1.378119 h -0.18365 l -0.33178,0.188878 v 0.163162 l 0.31472,-0.149281 z m 7.37188,-4.144366 c 0,0.194794 0.0182,0.336338 0.0548,0.423722 0.0366,0.08738 0.0951,0.131076 0.17545,0.131076 0.0801,0 0.13858,-0.04369 0.17522,-0.131076 0.0366,-0.08738 0.0549,-0.228928 0.0549,-0.423722 0,-0.193427 -0.0182,-0.334061 -0.0549,-0.421445 -0.0366,-0.08738 -0.0951,-0.131304 -0.17522,-0.131304 -0.0803,0 -0.13881,0.04393 -0.17545,0.131304 -0.0366,0.08738 -0.0548,0.228018 -0.0548,0.421445 z m -0.094,0.533179 c -0.074,-0.121973 -0.11082,-0.299699 -0.11082,-0.533179 0,-0.233023 0.0369,-0.410522 0.11082,-0.531813 0.074,-0.12129 0.18205,-0.18205 0.32427,-0.18205 0.14223,0 0.25032,0.06076 0.32405,0.18205 0.0742,0.121291 0.11105,0.29879 0.11105,0.531813 0,0.234618 -0.0369,0.412571 -0.11105,0.534089 -0.0737,0.121291 -0.18182,0.181823 -0.32405,0.181823 -0.14222,0 -0.25031,-0.06076 -0.32427,-0.182733 z m -0.42759,0.176816 c 0.0378,0 0.0687,-0.0116 0.0917,-0.03482 0.0232,-0.02321 0.035,-0.05394 0.035,-0.09239 0,-0.03846 -0.0118,-0.06918 -0.035,-0.09262 -0.023,-0.02298 -0.0539,-0.03459 -0.0917,-0.03459 -0.038,0 -0.0689,0.0116 -0.0919,0.03459 -0.0232,0.02344 -0.0348,0.05416 -0.0348,0.09262 0,0.03845 0.0116,0.06918 0.0348,0.09239 0.023,0.02321 0.0539,0.03482 0.0919,0.03482 z m -0.76279,-0.0198 h 0.2007 v -1.378118 h -0.18364 l -0.33156,0.189105 v 0.162707 l 0.31449,-0.149054 z m -0.74117,0.0198 c 0.038,0 0.0685,-0.0116 0.0919,-0.03482 0.023,-0.02321 0.0348,-0.05394 0.0348,-0.09239 0,-0.03845 -0.0118,-0.06918 -0.0348,-0.09262 -0.0234,-0.02298 -0.0539,-0.03459 -0.0919,-0.03459 -0.038,0 -0.0687,0.0116 -0.0919,0.03459 -0.0232,0.02344 -0.0348,0.05416 -0.0348,0.09262 0,0.03846 0.0116,0.06918 0.0348,0.09239 0.0232,0.02321 0.0539,0.03482 0.0919,0.03482 z m -0.96555,-0.626252 c 0,0.1643 0.0187,0.284681 0.0562,0.360914 0.0373,0.07624 0.0958,0.114236 0.17614,0.114236 0.13403,0 0.20093,-0.0933 0.20093,-0.280129 0,-0.08625 -0.0175,-0.152239 -0.053,-0.198207 -0.035,-0.04574 -0.0872,-0.0685 -0.15611,-0.0685 -0.0733,0 -0.14791,0.01866 -0.22414,0.05575 z m -0.094,0.468324 c -0.0696,-0.109458 -0.10445,-0.278082 -0.10445,-0.506327 0,-0.245085 0.0421,-0.433051 0.12584,-0.563672 0.0837,-0.130621 0.20299,-0.195932 0.35773,-0.195932 0.0478,0 0.0963,0.0061 0.14496,0.01798 0.0485,0.01184 0.091,0.02776 0.12766,0.04779 v 0.145186 c -0.0353,-0.01593 -0.0753,-0.0289 -0.12038,-0.03891 -0.0451,-0.01001 -0.0872,-0.01479 -0.12675,-0.01479 -0.0999,0 -0.17454,0.03937 -0.22392,0.118332 -0.0494,0.07874 -0.0776,0.204579 -0.0844,0.376616 0.0901,-0.05279 0.18318,-0.07942 0.27899,-0.07942 0.10672,0 0.19229,0.0371 0.25646,0.111279 0.0642,0.07441 0.0963,0.173174 0.0963,0.296513 0,0.137676 -0.0371,0.247133 -0.10991,0.327917 -0.0733,0.08101 -0.17272,0.121291 -0.29765,0.121291 -0.14382,0 -0.25055,-0.05461 -0.32041,-0.163844 z m -0.72979,0.13813 h 0.20071 v -1.378118 h -0.18364 l -0.33179,0.189104 v 0.162708 l 0.31472,-0.149054 z m -0.7414,0.0198 c 0.038,0 0.0687,-0.0116 0.0922,-0.03482 0.023,-0.02321 0.0348,-0.05394 0.0348,-0.09239 0,-0.03845 -0.0118,-0.06918 -0.0348,-0.09262 -0.0234,-0.02298 -0.0542,-0.03459 -0.0922,-0.03459 -0.0378,0 -0.0685,0.0116 -0.0917,0.03459 -0.0232,0.02344 -0.0348,0.05416 -0.0348,0.09262 0,0.03846 0.0116,0.06918 0.0348,0.09239 0.0232,0.02321 0.0539,0.03482 0.0917,0.03482 z m -0.34635,-0.184781 h -0.57437 c 0.16317,-0.19889 0.27877,-0.346578 0.34613,-0.442609 0.0678,-0.09603 0.11423,-0.176589 0.13949,-0.241444 0.0255,-0.06508 0.0382,-0.128117 0.0382,-0.189104 0,-0.115147 -0.0303,-0.205034 -0.091,-0.269434 -0.0605,-0.06417 -0.14495,-0.09649 -0.25305,-0.09649 -0.0624,0 -0.12265,0.01024 -0.18182,0.03095 -0.0594,0.02048 -0.12038,0.05325 -0.18387,0.09854 v 0.168851 c 0.13358,-0.08465 0.24418,-0.127207 0.33156,-0.127207 0.11424,0 0.17113,0.06895 0.17113,0.206626 0,0.06258 -0.0162,0.128118 -0.0485,0.19707 -0.0325,0.06895 -0.086,0.155424 -0.16066,0.259421 -0.0746,0.103996 -0.18296,0.244401 -0.32519,0.420763 v 0.149053 h 0.79192 z m -1.68988,0.164983 h 0.20709 l 0.44169,-1.230886 v -0.147232 h -0.80693 v 0.164983 h 0.60622 z m -0.7794,0 h 0.20071 v -1.378118 h -0.18364 l -0.33179,0.189104 v 0.162707 l 0.31471,-0.149055 z m 7.37188,-3.94889 c 0,0.194793 0.0182,0.33611 0.0548,0.423721 0.0366,0.08738 0.0951,0.131076 0.17546,0.131076 0.0801,0 0.13858,-0.04369 0.17522,-0.131076 0.0366,-0.08761 0.0549,-0.228928 0.0549,-0.423721 0,-0.193428 -0.0182,-0.334061 -0.0549,-0.421445 -0.0366,-0.08761 -0.0951,-0.131304 -0.17522,-0.131304 -0.0803,0 -0.13882,0.04369 -0.17546,0.131304 -0.0366,0.08738 -0.0548,0.228017 -0.0548,0.421445 z m -0.094,0.532951 c -0.074,-0.121973 -0.11082,-0.299472 -0.11082,-0.532951 0,-0.233252 0.0369,-0.410522 0.11082,-0.531813 0.074,-0.121291 0.18205,-0.18205 0.32428,-0.18205 0.14223,0 0.25032,0.06076 0.32405,0.18205 0.0742,0.121291 0.11105,0.298561 0.11105,0.531813 0,0.234616 -0.0369,0.412571 -0.11105,0.533862 -0.0737,0.121517 -0.18182,0.182049 -0.32405,0.182049 -0.14223,0 -0.25032,-0.06099 -0.32428,-0.18296 z m -0.42759,0.177043 c 0.0378,0 0.0687,-0.0116 0.0917,-0.03505 0.0232,-0.02298 0.035,-0.05394 0.035,-0.09239 0,-0.03845 -0.0118,-0.06895 -0.035,-0.09239 -0.023,-0.02321 -0.0539,-0.03459 -0.0917,-0.03459 -0.038,0 -0.0689,0.01138 -0.0919,0.03459 -0.0232,0.02344 -0.0348,0.05394 -0.0348,0.09239 0,0.03846 0.0116,0.06941 0.0348,0.09239 0.023,0.02344 0.0539,0.03505 0.0919,0.03505 z m -0.98217,-0.709996 c 0,0.194793 0.0182,0.33611 0.0546,0.423721 0.0369,0.08738 0.0951,0.131076 0.17522,0.131076 0.0803,0 0.13904,-0.04369 0.17545,-0.131076 0.0369,-0.08761 0.0549,-0.228928 0.0549,-0.423721 0,-0.193428 -0.018,-0.334061 -0.0549,-0.421445 -0.0364,-0.08761 -0.0951,-0.131304 -0.17545,-0.131304 -0.0801,0 -0.13835,0.04369 -0.17522,0.131304 -0.0364,0.08738 -0.0546,0.228017 -0.0546,0.421445 z m -0.0942,0.532951 c -0.074,-0.121973 -0.11082,-0.299472 -0.11082,-0.532951 0,-0.233252 0.0369,-0.410522 0.11082,-0.531813 0.0742,-0.121291 0.18205,-0.18205 0.32405,-0.18205 0.14245,0 0.25055,0.06076 0.32428,0.18205 0.0742,0.121291 0.11105,0.298561 0.11105,0.531813 0,0.234616 -0.0369,0.412571 -0.11105,0.533862 -0.0737,0.121517 -0.18183,0.182049 -0.32428,0.182049 -0.142,0 -0.24986,-0.06099 -0.32405,-0.18296 z m -0.42759,0.177043 c 0.038,0 0.0685,-0.0116 0.0919,-0.03505 0.023,-0.02298 0.0348,-0.05394 0.0348,-0.09239 0,-0.03845 -0.0118,-0.06895 -0.0348,-0.09239 -0.0234,-0.02321 -0.0539,-0.03459 -0.0919,-0.03459 -0.038,0 -0.0687,0.01138 -0.0919,0.03459 -0.0232,0.02344 -0.0348,0.05394 -0.0348,0.09239 0,0.03846 0.0116,0.06941 0.0348,0.09239 0.0232,0.02344 0.0539,0.03505 0.0919,0.03505 z m -0.96555,-0.626479 c 0,0.164528 0.0187,0.284908 0.0562,0.361142 0.0373,0.07623 0.0958,0.114236 0.17614,0.114236 0.13403,0 0.20093,-0.09353 0.20093,-0.280585 0,-0.08625 -0.0175,-0.152011 -0.053,-0.197751 -0.035,-0.04574 -0.0872,-0.06872 -0.1561,-0.06872 -0.0733,0 -0.14792,0.01866 -0.22415,0.05598 z m -0.094,0.468324 c -0.0696,-0.109458 -0.10445,-0.278081 -0.10445,-0.506099 0,-0.245085 0.0421,-0.433051 0.12585,-0.563899 0.0837,-0.130393 0.20298,-0.195704 0.35772,-0.195704 0.0478,0 0.0963,0.0059 0.14496,0.01775 0.0485,0.01206 0.091,0.02799 0.12766,0.04779 v 0.145412 c -0.0353,-0.01616 -0.0753,-0.0289 -0.12038,-0.03891 -0.0451,-0.01001 -0.0872,-0.01502 -0.12675,-0.01502 -0.0999,0 -0.17454,0.03937 -0.22392,0.11856 -0.0494,0.07874 -0.0776,0.204351 -0.0844,0.376616 0.0901,-0.05279 0.18319,-0.07942 0.27899,-0.07942 0.10673,0 0.19229,0.0371 0.25646,0.111278 0.0642,0.07418 0.0963,0.173175 0.0963,0.296514 0,0.137675 -0.0371,0.246905 -0.10991,0.327917 -0.0733,0.08079 -0.17272,0.121291 -0.29765,0.121291 -0.14382,0 -0.25055,-0.05461 -0.32041,-0.164072 z m -0.72979,0.138357 h 0.20071 v -1.378345 h -0.18364 l -0.33179,0.188877 v 0.163162 l 0.31472,-0.149053 z m -0.7414,0.0198 c 0.038,0 0.0687,-0.0116 0.0922,-0.03505 0.023,-0.02298 0.0348,-0.05394 0.0348,-0.09239 0,-0.03845 -0.0118,-0.06895 -0.0348,-0.09239 -0.0234,-0.02321 -0.0542,-0.03459 -0.0922,-0.03459 -0.0378,0 -0.0685,0.01138 -0.0917,0.03459 -0.0232,0.02344 -0.0348,0.05394 -0.0348,0.09239 0,0.03846 0.0116,0.06941 0.0348,0.09239 0.0232,0.02344 0.0539,0.03505 0.0917,0.03505 z m -0.34635,-0.185008 h -0.57436 c 0.16316,-0.198889 0.27876,-0.34635 0.34612,-0.442381 0.0678,-0.09603 0.11424,-0.176589 0.13949,-0.241672 0.0255,-0.06508 0.0382,-0.12789 0.0382,-0.189103 0,-0.11492 -0.0303,-0.204806 -0.091,-0.269207 -0.0605,-0.06417 -0.14495,-0.09649 -0.25304,-0.09649 -0.0624,0 -0.12266,0.01024 -0.18183,0.03095 -0.0594,0.02048 -0.12038,0.05325 -0.18387,0.09831 v 0.169079 c 0.13358,-0.08488 0.24418,-0.127208 0.33156,-0.127208 0.11424,0 0.17113,0.06895 0.17113,0.206627 0,0.06258 -0.0162,0.128118 -0.0485,0.196842 -0.0325,0.06895 -0.086,0.155653 -0.16066,0.259648 -0.0746,0.103996 -0.18296,0.244175 -0.32519,0.420535 v 0.149282 h 0.79192 z m -1.68987,0.16521 h 0.20708 l 0.4417,-1.230884 v -0.147461 h -0.80694 v 0.165211 h 0.60623 z m -0.77941,-1.17536 -0.31471,0.149054 v -0.163162 l 0.33178,-0.188877 h 0.18364 v 1.378345 h -0.20071 z"
       id="AWS-Amazon-Route-53_Route-table_Resource-Icon_light-bg"
       fill="#8c4fff"
       style="fill-rule:evenodd;stroke:none;stroke-width:0.227562" /><rect
       style="fill:#7aa116;fill-opacity:0.5;stroke:#7aa116;stroke-width:0.142848;stroke-linejoin:round;stroke-dasharray:none;stroke-dashoffset:0;stroke-opacity:1"
       id="rect3-7-06-4"
       width="40.996555"
       height="64.262985"
       x="59.084358"
       y="49.702755" /><g
       id="Icon-Architecture-Group/32/Public-subnet_32"
       stroke="none"
       stroke-width="1"
       fill="none"
       fill-rule="evenodd"
       transform="matrix(0.25,0,0,0.25,58.989134,49.649933)"><rect
         id="Rectangle-1"
         fill="#7aa116"
         x="0"
         y="0"
         width="40"
         height="40" /><path
         d="m 19.536,22.049 c 1.106,0 2.006,0.899 2.006,2.005 0,1.106 -0.9,2.006 -2.006,2.006 -1.106,0 -2.006,-0.9 -2.006,-2.006 0,-1.106 0.9,-2.005 2.006,-2.005 z m -0.524,4.958 v 3.494 h 1 v -3.489 c 1.43,-0.23 2.53,-1.463 2.53,-2.958 0,-1.657 -1.349,-3.005 -3.006,-3.005 -1.657,0 -3.006,1.348 -3.006,3.005 0,1.478 1.074,2.703 2.482,2.953 z M 10,33.014 H 29.012 V 18 H 10 Z m 4.046,-20.53 C 14.046,9.46 16.506,7 19.529,7 c 3.024,0 5.483,2.46 5.483,5.484 V 17 H 14.046 Z M 29.512,17 h -3.5 V 12.484 C 26.012,8.908 23.103,6 19.529,6 15.954,6 13.046,8.908 13.046,12.484 V 17 H 9.5 C 9.223,17 9,17.224 9,17.5 v 16.014 c 0,0.276 0.223,0.5 0.5,0.5 h 20.012 c 0.276,0 0.5,-0.224 0.5,-0.5 V 17.5 c 0,-0.276 -0.224,-0.5 -0.5,-0.5 z"
         id="Fill-1-7"
         fill="#ffffff" /></g><rect
       style="fill:#00a6a8;fill-opacity:0.5;stroke:#00a4a6;stroke-width:0.133136;stroke-linejoin:round;stroke-dasharray:none;stroke-dashoffset:0;stroke-opacity:1"
       id="rect3-7-06-4-9"
       width="64.068321"
       height="35.719677"
       x="60.066566"
       y="120.06657" /><rect
       style="fill:#ed7100;fill-opacity:0.25;stroke:#dd344c;stroke-width:0.271778;stroke-linejoin:round;stroke-dasharray:none;stroke-dashoffset:0;stroke-opacity:1"
       id="rect3-7-06-4-8"
       width="29.38994"
       height="22.223606"
       x="63.203468"
       y="91.18457" /><g
       id="Icon-Architecture-Group/32/Private-subnet_32"
       stroke="none"
       stroke-width="1"
       fill="none"
       fill-rule="evenodd"
       transform="matrix(0.26458333,0,0,0.26458333,60,120)"><rect
         id="Rectangle-26"
         fill="#00a4a6"
         x="0"
         y="0"
         width="40"
         height="40" /><path
         d="m 19.536,22.049 c 1.106,0 2.006,0.899 2.006,2.005 0,1.106 -0.9,2.006 -2.006,2.006 -1.106,0 -2.006,-0.9 -2.006,-2.006 0,-1.106 0.9,-2.005 2.006,-2.005 z m -0.524,4.958 v 3.494 h 1 v -3.489 c 1.43,-0.23 2.53,-1.463 2.53,-2.958 0,-1.657 -1.349,-3.005 -3.006,-3.005 -1.657,0 -3.006,1.348 -3.006,3.005 0,1.478 1.074,2.703 2.482,2.953 z M 10,33.014 H 29.012 V 18 H 10 Z m 4.046,-20.53 C 14.046,9.46 16.506,7 19.529,7 c 3.024,0 5.483,2.46 5.483,5.484 V 17 H 14.046 Z M 29.512,17 h -3.5 V 12.484 C 26.012,8.908 23.103,6 19.529,6 15.954,6 13.046,8.908 13.046,12.484 V 17 H 9.5 C 9.223,17 9,17.224 9,17.5 v 16.014 c 0,0.276 0.223,0.5 0.5,0.5 h 20.012 c 0.276,0 0.5,-0.224 0.5,-0.5 V 17.5 c 0,-0.276 -0.224,-0.5 -0.5,-0.5 z"
         id="Fill-1-10"
         fill="#ffffff" /></g><rect
       style="fill:#00a6a8;fill-opacity:0.5;stroke:#00a4a6;stroke-width:0.133136;stroke-linejoin:round;stroke-dasharray:none;stroke-dashoffset:0;stroke-opacity:1"
       id="rect3-7-06-4-9-8"
       width="64.068321"
       height="35.719677"
       x="103.78679"
       y="51.713043" /><g
       id="Icon-Architecture-Group/32/Private-subnet_32-4"
       stroke="none"
       stroke-width="1"
       fill="none"
       fill-rule="evenodd"
       transform="matrix(0.26458333,0,0,0.26458333,103.72023,51.646473)"><rect
         id="Rectangle-26-7"
         fill="#00a4a6"
         x="0"
         y="0"
         width="40"
         height="40" /><path
         d="m 19.536,22.049 c 1.106,0 2.006,0.899 2.006,2.005 0,1.106 -0.9,2.006 -2.006,2.006 -1.106,0 -2.006,-0.9 -2.006,-2.006 0,-1.106 0.9,-2.005 2.006,-2.005 z m -0.524,4.958 v 3.494 h 1 v -3.489 c 1.43,-0.23 2.53,-1.463 2.53,-2.958 0,-1.657 -1.349,-3.005 -3.006,-3.005 -1.657,0 -3.006,1.348 -3.006,3.005 0,1.478 1.074,2.703 2.482,2.953 z M 10,33.014 H 29.012 V 18 H 10 Z m 4.046,-20.53 C 14.046,9.46 16.506,7 19.529,7 c 3.024,0 5.483,2.46 5.483,5.484 V 17 H 14.046 Z M 29.512,17 h -3.5 V 12.484 C 26.012,8.908 23.103,6 19.529,6 15.954,6 13.046,8.908 13.046,12.484 V 17 H 9.5 C 9.223,17 9,17.224 9,17.5 v 16.014 c 0,0.276 0.223,0.5 0.5,0.5 h 20.012 c 0.276,0 0.5,-0.224 0.5,-0.5 V 17.5 c 0,-0.276 -0.224,-0.5 -0.5,-0.5 z"
         id="Fill-1-10-2"
         fill="#ffffff" /></g><rect
       style="fill:#00a6a8;fill-opacity:0.5;stroke:#00a4a6;stroke-width:0.133136;stroke-linejoin:round;stroke-dasharray:none;stroke-dashoffset:0;stroke-opacity:1"
       id="rect3-7-06-4-9-9"
       width="64.068321"
       height="35.719677"
       x="126.25923"
       y="95.259636" /><g
       id="Icon-Architecture-Group/32/Private-subnet_32-9"
       stroke="none"
       stroke-width="1"
       fill="none"
       fill-rule="evenodd"
       transform="matrix(0.26458333,0,0,0.26458333,126.19267,95.193072)"><rect
         id="Rectangle-26-0"
         fill="#00a4a6"
         x="0"
         y="0"
         width="40"
         height="40" /><path
         d="m 19.536,22.049 c 1.106,0 2.006,0.899 2.006,2.005 0,1.106 -0.9,2.006 -2.006,2.006 -1.106,0 -2.006,-0.9 -2.006,-2.006 0,-1.106 0.9,-2.005 2.006,-2.005 z m -0.524,4.958 v 3.494 h 1 v -3.489 c 1.43,-0.23 2.53,-1.463 2.53,-2.958 0,-1.657 -1.349,-3.005 -3.006,-3.005 -1.657,0 -3.006,1.348 -3.006,3.005 0,1.478 1.074,2.703 2.482,2.953 z M 10,33.014 H 29.012 V 18 H 10 Z m 4.046,-20.53 C 14.046,9.46 16.506,7 19.529,7 c 3.024,0 5.483,2.46 5.483,5.484 V 17 H 14.046 Z M 29.512,17 h -3.5 V 12.484 C 26.012,8.908 23.103,6 19.529,6 15.954,6 13.046,8.908 13.046,12.484 V 17 H 9.5 C 9.223,17 9,17.224 9,17.5 v 16.014 c 0,0.276 0.223,0.5 0.5,0.5 h 20.012 c 0.276,0 0.5,-0.224 0.5,-0.5 V 17.5 c 0,-0.276 -0.224,-0.5 -0.5,-0.5 z"
         id="Fill-1-10-8"
         fill="#ffffff" /></g><path
       d="m 64.271203,71.188901 v -0.644956 l 0.403153,0.322478 z m -0.08521,-1.295367 c -0.06837,-0.05477 -0.16226,-0.06545 -0.240663,-0.02727 -0.07842,0.03795 -0.128624,0.117265 -0.128624,0.204759 v 1.590801 c 0,0.08749 0.05025,0.166807 0.128624,0.204759 0.03161,0.01523 0.06519,0.02249 0.09863,0.02249 0.05067,0 0.100898,-0.01682 0.142032,-0.04977 l 0.994257,-0.7954 c 0.05385,-0.04318 0.08521,-0.108402 0.08521,-0.177488 0,-0.06908 -0.03135,-0.134309 -0.08521,-0.177488 z m 5.454404,-0.769038 v -0.891304 l 0.445654,0.445652 z m 0.927665,-0.606322 -0.994249,-0.994251 c -0.06502,-0.06499 -0.162268,-0.08454 -0.247714,-0.04932 -0.08503,0.03523 -0.140219,0.118175 -0.140219,0.209986 v 0.766993 h -1.73306 v -2.158944 c 0,-0.125673 -0.101585,-0.227257 -0.227255,-0.227257 h -1.748522 v 0.454515 h 1.521259 v 1.931686 h -1.562393 v 0.454515 h 1.562393 v 1.931915 h -1.521259 v 0.454513 h 1.748522 c 0.12567,0 0.227255,-0.101584 0.227255,-0.227257 v -2.159171 h 1.73306 v 0.767221 c 0,0.09181 0.05549,0.174988 0.140219,0.209985 0.02817,0.01182 0.05772,0.01727 0.08704,0.01727 0.05909,0 0.117269,-0.02318 0.160679,-0.06659 l 0.994249,-0.994478 c 0.08886,-0.08886 0.08886,-0.232484 0,-0.321342 z M 64.27122,69.00155 v -0.645183 l 0.403154,0.322477 z m -0.08521,-1.295594 c -0.06837,-0.05477 -0.162259,-0.06523 -0.240662,-0.02727 -0.07842,0.03795 -0.128624,0.117265 -0.128624,0.204759 v 1.591028 c 0,0.08749 0.05025,0.166807 0.128624,0.204759 0.03161,0.01523 0.06519,0.02249 0.09863,0.02249 0.05067,0 0.100897,-0.01682 0.142031,-0.04977 l 0.994258,-0.795628 c 0.05385,-0.04318 0.08521,-0.108402 0.08521,-0.177488 0,-0.06908 -0.03135,-0.134309 -0.08521,-0.177488 z m 0.08521,-1.090835 v -0.644955 l 0.403154,0.322477 z m -0.08521,-1.295367 c -0.06837,-0.05477 -0.162259,-0.06545 -0.240662,-0.02727 -0.07842,0.03795 -0.128624,0.117265 -0.128624,0.204759 v 1.590801 c 0,0.08749 0.05025,0.166807 0.128624,0.204759 0.03161,0.01523 0.06519,0.02249 0.09863,0.02249 0.05067,0 0.100897,-0.01682 0.142031,-0.04977 l 0.994258,-0.795401 c 0.05385,-0.04318 0.08521,-0.108401 0.08521,-0.177488 0,-0.06908 -0.03135,-0.134308 -0.08521,-0.177487 z m 2.443016,7.705841 c -2.50619,0 -4.545372,-2.039181 -4.545372,-4.545601 0,-2.506193 2.039182,-4.545372 4.545372,-4.545372 2.506419,0 4.545602,2.039179 4.545602,4.545372 0,2.50642 -2.039183,4.545601 -4.545602,4.545601 z m 0,-9.545488 c -2.757082,0 -4.999881,2.242802 -4.999881,4.999887 0,2.757086 2.242799,5.000116 4.999881,5.000116 2.757088,0 5.000119,-2.24303 5.000119,-5.000116 0,-2.757085 -2.243031,-4.999887 -5.000119,-4.999887 z"
       id="AWS-Amazon-VPC_NAT-gateway_Resource-Icon_light-bg-7"
       fill="#8c4fff"
       style="fill-rule:evenodd;stroke:none;stroke-width:0.227257" /><text
       xml:space="preserve"
       style="font-size:3.52778px;text-align:start;writing-mode:lr-tb;direction:ltr;text-anchor:start;fill:#7aa116;fill-opacity:1;stroke:#7aa116;stroke-width:0;stroke-linecap:round;stroke-linejoin:round;stroke-dasharray:none;stroke-opacity:1"
       x="71.825089"
       y="55.157181"
       id="text3-3-8-7"
       inkscape:transform-center-x="3.6745791"
       inkscape:transform-center-y="-13.401406"><tspan
         sodipodi:role="line"
         style="font-size:3.52778px;fill:#7aa116;fill-opacity:1;stroke:#7aa116;stroke-width:0;stroke-dasharray:none;stroke-opacity:1"
         x="71.825089"
         y="55.157181"
         id="tspan8-1">Public Subnet A</tspan><tspan
         sodipodi:role="line"
         style="font-size:3.52778px;fill:#7aa116;fill-opacity:1;stroke:#7aa116;stroke-width:0;stroke-dasharray:none;stroke-opacity:1"
         x="71.825089"
         y="59.566906"
         id="tspan10">10.0.0.0/24</tspan></text><text
       xml:space="preserve"
       style="font-size:3.52778px;text-align:start;writing-mode:lr-tb;direction:ltr;text-anchor:start;fill:#dd344c;fill-opacity:1;stroke:#dd344c;stroke-width:0;stroke-linecap:round;stroke-linejoin:round;stroke-dasharray:none;stroke-opacity:1"
       x="65.031334"
       y="95.186897"
       id="text3-3-8-7-4"
       inkscape:transform-center-x="3.6745791"
       inkscape:transform-center-y="-13.401406"><tspan
         sodipodi:role="line"
         style="font-size:3.52778px;fill:#dd344c;fill-opacity:1;stroke:#dd344c;stroke-width:0;stroke-dasharray:none;stroke-opacity:1"
         x="65.031334"
         y="95.186897"
         id="tspan10-7">Bastion Security</tspan><tspan
         sodipodi:role="line"
         style="font-size:3.52778px;fill:#dd344c;fill-opacity:1;stroke:#dd344c;stroke-width:0;stroke-dasharray:none;stroke-opacity:1"
         x="65.031334"
         y="99.596619"
         id="tspan11">Group</tspan></text><g
       id="Icon-Architecture/48/Arch_Amazon-EC2-Auto-Scaling_48"
       stroke="none"
       stroke-width="1"
       fill="none"
       fill-rule="evenodd"
       transform="matrix(0.26458333,0,0,0.26458333,2.1349603,124.29027)"><g
         id="Icon-Architecture-BG/48/Compute-8"
         fill="#ed7100"><rect
           id="Rectangle-8"
           x="0"
           y="0"
           width="64"
           height="64" /></g><path
         d="m 54,31.430806 h -7.399671 l 3.30985,-3.310631 -1.421235,-1.421571 -5.736203,5.737556 5.736203,5.737556 1.421235,-1.421571 -3.30985,-3.310631 H 54 Z m -39.910179,-3.310631 3.30985,3.310631 H 10 v 2.010708 h 7.399671 l -3.30985,3.310631 1.421235,1.421571 5.736203,-5.737556 -5.736203,-5.737556 z M 25.856725,39.473639 H 37.918129 V 27.409389 H 25.856725 Z M 39.928363,26.404035 h 2.010234 v 2.010709 h -2.010234 v 2.010708 h 2.010234 v 2.010708 h -2.010234 v 2.010708 h 2.010234 v 2.010708 h -2.010234 v 2.010709 h 2.010234 v 2.010708 h -2.010234 v -0.6947 c 0,0.937995 -0.762884,1.700054 -1.698648,1.700054 h 0.693531 v 2.010708 h -2.010234 v -2.010708 h -2.010234 v 2.010708 H 32.892544 V 41.484347 H 30.88231 v 2.010708 h -2.010234 v -2.010708 h -2.010234 v 2.010708 h -2.010234 v -2.010708 h 0.693531 c -0.935764,0 -1.698648,-0.762059 -1.698648,-1.700054 v 0.6947 h -2.010234 v -2.010708 h 2.010234 v -2.010709 h -2.010234 v -2.010708 h 2.010234 V 32.43616 h -2.010234 v -2.010708 h 2.010234 v -2.010708 h -2.010234 v -2.010709 h 2.010234 v 0.6947 c 0,-0.937995 0.762884,-1.700054 1.698648,-1.700054 h -0.693531 v -2.010708 h 2.010234 v 2.010708 h 2.010234 v -2.010708 h 2.010234 v 2.010708 h 2.010234 v -2.010708 h 2.010234 v 2.010708 h 2.010234 v -2.010708 h 2.010234 v 2.010708 h -0.693531 c 0.935764,0 1.698648,0.762059 1.698648,1.700054 z m -7.035819,23.74747 V 44.500409 H 30.88231 v 5.651096 L 27.281981,46.550326 25.860746,47.971897 31.887427,54 37.914108,47.971897 36.492873,46.550326 Z M 27.204587,17.387015 25.93814,15.824694 31.887427,11 l 5.949287,4.824694 -1.266447,1.562321 -3.677723,-2.982886 v 6.973136 H 30.88231 v -6.973136 z"
         id="Amazon-EC2-Auto-Scaling_Icon_48_Squid"
         fill="#ffffff" /></g><path
       d="m 80.978489,109.55851 c 0.02956,-0.0293 0.0685,-0.0455 0.109865,-0.0455 h 2.32e-4 c 0.04182,0 0.08121,0.0162 0.110778,0.0457 0.02932,0.0296 0.04527,0.0685 0.04527,0.10987 v 4.5e-4 c 0,0.0418 -0.01618,0.081 -0.04575,0.11055 -0.02932,0.0293 -0.0685,0.0455 -0.110329,0.0455 h -2.24e-4 c -0.08598,0 -0.155587,-0.07 -0.155587,-0.15603 0,-0.0417 0.01618,-0.081 0.04575,-0.11056 z m -0.117379,0.67672 v 0.63919 h 0.454944 v -0.63851 c 0.07531,-0.0303 0.144899,-0.0753 0.20449,-0.13443 0.115328,-0.11533 0.178797,-0.26864 0.179021,-0.43197 4.57e-4,-0.16309 -0.06305,-0.31641 -0.178332,-0.43196 -0.115328,-0.11578 -0.269096,-0.17948 -0.432423,-0.17948 h -6.81e-4 c -0.336202,0 -0.609849,0.27388 -0.610298,0.61076 0,0.25659 0.159,0.47587 0.383279,0.5664 z m 1.788593,1.05091 -3.12338,-0.002 8.01e-4,-2.52674 3.123837,0.002 z m -2.327234,-3.55579 c 6.81e-4,-0.22451 0.0828,-0.43492 0.231561,-0.5921 0.144443,-0.15263 0.334608,-0.23657 0.535918,-0.23657 h 0.0024 c 0.42059,0.002 0.761335,0.37737 0.759981,0.83845 l -2.32e-4,0.56412 -1.53246,-6.9e-4 z m 2.556064,0.57435 -0.571402,-2.3e-4 2.33e-4,-0.56366 c 0.0024,-0.71129 -0.542287,-1.2918 -1.213546,-1.29407 h -0.004 c -0.327558,0 -0.635327,0.13443 -0.866432,0.37897 -0.228381,0.24157 -0.354854,0.5623 -0.355991,0.90282 l -0.0024,0.5748 -0.565032,-2.2e-4 c -0.06033,0 -0.11806,0.0241 -0.160818,0.0667 -0.04254,0.0428 -0.06666,0.10054 -0.06666,0.16082 l -8.01e-4,2.98166 c 0,0.12556 0.101676,0.22747 0.227468,0.22747 l 3.578315,0.002 c 0.125335,0 0.227468,-0.1019 0.227468,-0.22747 l 0.0016,-2.98144 c 0,-0.0601 -0.02411,-0.11805 -0.06666,-0.16082 -0.04278,-0.0425 -0.100539,-0.0667 -0.160819,-0.0667 z m -4.767971,-3.61425 c -0.09076,0 -0.164464,-0.0739 -0.164464,-0.16447 0,-0.0908 0.07371,-0.16468 0.164464,-0.16468 0.09076,0 0.164456,0.0739 0.164456,0.16468 0,0.0905 -0.07371,0.16447 -0.164456,0.16447 z m 0,-0.78409 c -0.341434,0 -0.619399,0.27796 -0.619399,0.61962 0,0.34144 0.277965,0.6194 0.619399,0.6194 0.341659,0 0.619392,-0.27796 0.619392,-0.6194 0,-0.34166 -0.277733,-0.61962 -0.619392,-0.61962 z m 0.323232,1.85705 c -0.09463,0.03 -0.158776,0.11784 -0.158776,0.21701 v 0.39762 c 0,0.0602 0.02411,0.11806 0.06666,0.16082 l 0.175152,0.17493 -0.175152,0.17538 c -0.04254,0.0425 -0.06666,0.10055 -0.06666,0.16083 v 0.22382 c 0,0.0605 0.02411,0.11828 0.06666,0.16082 l 0.175152,0.17516 -0.175152,0.17514 c -0.04254,0.0428 -0.06666,0.10076 -0.06666,0.16082 v 0.25044 l -0.187433,0.21427 -0.141487,-0.12146 v -2.30859 c 0,-0.0992 -0.06417,-0.18698 -0.158775,-0.21701 -0.440835,-0.13966 -0.737227,-0.54524 -0.737227,-1.00928 0,-0.58459 0.475637,-1.06046 1.060466,-1.06046 0.584589,0 1.060459,0.47587 1.060459,1.06046 0,0.46404 -0.296392,0.86962 -0.737227,1.00928 z m 0.565489,1.1112 c 0.08871,-0.0887 0.08871,-0.23271 0,-0.32164 l -0.269329,-0.2691 v -0.14695 c 0.542287,-0.24044 0.896003,-0.77681 0.896003,-1.38279 0,-0.83571 -0.679904,-1.51539 -1.515395,-1.51539 -0.835498,0 -1.515401,0.67968 -1.515401,1.51539 0,0.60598 0.353715,1.14235 0.896002,1.38279 v 2.25672 c 0,0.0664 0.02908,0.12943 0.0794,0.17265 l 0.391699,0.33597 c 0.04302,0.0369 0.09554,0.0548 0.148312,0.0548 0.06321,0 0.126016,-0.0261 0.171282,-0.0776 l 0.391932,-0.44812 c 0.03613,-0.0414 0.05616,-0.0946 0.05616,-0.14967 v -0.2418 l 0.269321,-0.26932 c 0.08871,-0.0889 0.08871,-0.23293 0,-0.32163 l -0.269321,-0.26933 v -0.0355 z m 4.447246,5.02365 c 0,0.10099 -0.08234,0.18334 -0.183339,0.18334 h -6.735135 c -0.10122,0 -0.183339,-0.0824 -0.183339,-0.18334 v -8.72344 c 0,-0.10123 0.08212,-0.18334 0.183339,-0.18334 h 6.735135 c 0.100995,0 0.183339,0.0821 0.183339,0.18334 z m -0.183339,-9.36172 h -6.735135 c -0.351889,0 -0.638275,0.28638 -0.638275,0.63828 v 8.72344 c 0,0.35189 0.286386,0.63827 0.638275,0.63827 h 6.735135 c 0.351889,0 0.638275,-0.28638 0.638275,-0.63827 v -8.72344 c 0,-0.3519 -0.286386,-0.63828 -0.638275,-0.63828 z"
       id="AWS-Identity-and-Access-Management_Data-Encryption-Key_-Resource-Icon_light-bg-9"
       fill="#dd344c"
       style="fill-rule:evenodd;stroke:none;stroke-width:0.227469" /><g
       id="Icon-Architecture/48/Arch_Amazon-EC2_48"
       stroke="none"
       stroke-width="1"
       fill="none"
       fill-rule="evenodd"
       transform="matrix(0.15625,0,0,0.15625,65.271206,101.77697)"><g
         id="Icon-Architecture-BG/48/Compute"
         fill="#ed7100"><rect
           id="Rectangle-29"
           x="0"
           y="0"
           width="64"
           height="64" /></g><path
         d="M 22,41 H 41 V 23 H 22 Z M 43,23 h 3 v 2 h -3 v 2 h 3 v 2 h -3 v 2 h 3 v 2 h -3 v 3 h 3 v 2 h -3 v 2 h 3 v 2 h -3.137 c -0.255,0.587 -0.84,1 -1.519,1 H 41 v 3 h -2 v -3 h -2 v 3 h -2 v -3 h -2 v 3 h -2 v -3 h -2 v 3 h -2 v -3 h -3 v 3 h -2 v -3 h -0.344 c -0.679,0 -1.264,-0.413 -1.519,-1 H 18 v -2 h 2 v -2 h -2 v -2 h 2 v -3 h -2 v -2 h 2 v -2 h -2 v -2 h 2 v -2 h -2 v -2 h 2 V 22.656 C 20,21.743 20.743,21 21.656,21 H 22 v -3 h 2 v 3 h 3 v -3 h 2 v 3 h 2 v -3 h 2 v 3 h 2 v -3 h 2 v 3 h 2 v -3 h 2 v 3 h 0.344 C 42.257,21 43,21.743 43,22.656 Z M 32,52 H 12 V 32 h 4 V 30 H 11.843 C 10.826,30 10,30.827 10,31.843 V 52.157 C 10,53.173 10.826,54 11.843,54 H 32.157 C 33.174,54 34,53.173 34,52.157 V 48 H 32 Z M 54,11.843 V 32.157 C 54,33.173 53.174,34 52.157,34 H 48 v -2 h 4 V 12 H 32 v 4 H 30 V 11.843 C 30,10.827 30.826,10 31.843,10 H 52.157 C 53.174,10 54,10.827 54,11.843 Z"
         id="Amazon-EC2_Icon_48_Squid"
         fill="#ffffff" /></g><rect
       style="mix-blend-mode:normal;fill:#8e51f9;fill-opacity:0.25;stroke:#dd344c;stroke-width:0.250302;stroke-linejoin:round;stroke-dasharray:none;stroke-dashoffset:0;stroke-opacity:1"
       id="rect3-7-06-4-8-5"
       width="20.15889"
       height="27.481808"
       x="74.077698"
       y="62.629925" /><text
       xml:space="preserve"
       style="font-size:3.52778px;text-align:start;writing-mode:lr-tb;direction:ltr;text-anchor:start;fill:#dd344c;fill-opacity:1;stroke:#dd344c;stroke-width:0;stroke-linecap:round;stroke-linejoin:round;stroke-dasharray:none;stroke-opacity:1"
       x="76.081779"
       y="67.314667"
       id="text3-3-8-7-4-9"
       inkscape:transform-center-x="3.6745791"
       inkscape:transform-center-y="-13.401406"><tspan
         sodipodi:role="line"
         style="font-size:3.52778px;fill:#dd344c;fill-opacity:1;stroke:#dd344c;stroke-width:0;stroke-dasharray:none;stroke-opacity:1"
         x="76.081779"
         y="67.314667"
         id="tspan11-2">ALB </tspan><tspan
         sodipodi:role="line"
         style="font-size:3.52778px;fill:#dd344c;fill-opacity:1;stroke:#dd344c;stroke-width:0;stroke-dasharray:none;stroke-opacity:1"
         x="76.081779"
         y="71.724388"
         id="tspan2">Security</tspan><tspan
         sodipodi:role="line"
         style="font-size:3.52778px;fill:#dd344c;fill-opacity:1;stroke:#dd344c;stroke-width:0;stroke-dasharray:none;stroke-opacity:1"
         x="76.081779"
         y="76.134109"
         id="tspan12">Group</tspan></text><path
       d="m 84.072767,85.616672 h 0.53294 v -0.53976 h -0.53294 z m -1.57701,0 h 0.53976 v -0.53976 h -0.53976 z m -1.78973,0 h 0.53976 v -0.53976 h -0.53976 z m -1.57042,0 h 0.5193 v -0.53976 h -0.5193 z m 1.37156,-3.977183 h 2.72721 v -1.335197 h -2.72721 z m 4.32581,2.98289 h -0.34863 v -0.767034 c 0,-0.125673 -0.10182,-0.227266 -0.22727,-0.227266 h -0.56817 v -0.767027 c 0,-0.125679 -0.10181,-0.227267 -0.22726,-0.227267 h -1.36361 v -0.539761 h 1.36361 c 0.12545,0 0.22726,-0.101588 0.22726,-0.227267 v -1.789733 c 0,-0.125679 -0.10181,-0.227267 -0.22726,-0.227267 h -3.18175 c -0.12568,0 -0.22727,0.101588 -0.22727,0.227267 v 1.789733 c 0,0.125679 0.10159,0.227267 0.22727,0.227267 h 1.3636 v 0.539761 h -1.3636 c -0.12568,0 -0.22727,0.101588 -0.22727,0.227267 v 0.767027 h -0.56817 c -0.12567,0 -0.22726,0.101593 -0.22726,0.227266 v 0.767034 h -0.34909 c -0.12545,0 -0.22727,0.101586 -0.22727,0.227266 v 0.994294 c 0,0.12568 0.10182,0.227273 0.22727,0.227273 h 0.97407 c 0.12545,0 0.22727,-0.101593 0.22727,-0.227273 v -0.994294 c 0,-0.12568 -0.10182,-0.227266 -0.22727,-0.227266 h -0.17045 v -0.53976 h 0.93748 v 0.53976 h -0.17046 c -0.12567,0 -0.22726,0.101586 -0.22726,0.227266 v 0.994294 c 0,0.12568 0.10159,0.227273 0.22726,0.227273 h 0.99431 c 0.12545,0 0.22726,-0.101593 0.22726,-0.227273 v -0.994294 c 0,-0.12568 -0.10181,-0.227266 -0.22726,-0.227266 h -0.36931 v -0.767034 c 0,-0.125673 -0.10182,-0.227266 -0.22728,-0.227266 h -0.3693 v -0.53976 h 2.72721 v 0.53976 h -0.36931 c -0.12568,0 -0.22726,0.101593 -0.22726,0.227266 v 0.767034 h -0.36932 c -0.12568,0 -0.22727,0.101586 -0.22727,0.227266 v 0.994294 c 0,0.12568 0.10159,0.227273 0.22727,0.227273 h 0.9943 c 0.12545,0 0.22726,-0.101593 0.22726,-0.227273 v -0.994294 c 0,-0.12568 -0.10181,-0.227266 -0.22726,-0.227266 h -0.17046 v -0.53976 h 0.93748 v 0.53976 h -0.18431 c -0.12567,0 -0.22727,0.101586 -0.22727,0.227266 v 0.994294 c 0,0.12568 0.1016,0.227273 0.22727,0.227273 h 0.98748 c 0.12545,0 0.22727,-0.101593 0.22727,-0.227273 v -0.994294 c 0,-0.12568 -0.10182,-0.227266 -0.22727,-0.227266 z m -2.96221,3.181746 c -2.50653,0 -4.54557,-2.039046 -4.54557,-4.545354 0,-2.506307 2.03904,-4.545352 4.54557,-4.545352 2.50631,0 4.54535,2.039045 4.54535,4.545352 0,2.506308 -2.03904,4.545354 -4.54535,4.545354 z m 0,-9.545241 c -2.75721,0 -5.00011,2.242903 -5.00011,4.999887 0,2.756988 2.2429,4.999888 5.00011,4.999888 2.75676,0 4.99989,-2.2429 4.99989,-4.999888 0,-2.756984 -2.24313,-4.999887 -4.99989,-4.999887 z"
       id="AWS-Elastic-Load-Balancing_-Application-Load-Balancer_Resource-Icon_light-bg"
       fill="#8c4fff"
       style="fill-rule:evenodd;stroke:none;stroke-width:0.227267" /><path
       d="M 22.668539,95.918588 H 22.15681 v -6.038257 c 0,-0.13425 -0.07891,-0.256205 -0.201206,-0.311204 l -0.03142,-0.01435 c -0.686295,-0.309835 -1.396498,-0.630605 -2.417222,-0.630605 -1.06684,0 -1.849805,0.34468 -2.623888,0.728989 -0.116149,0.05772 -0.189593,0.17627 -0.189593,0.30608 v 5.959342 h -0.499773 v -6.444766 c 0.831473,-0.67604 2.030174,-1.061375 3.31667,-1.061375 1.19597,0 2.336256,0.340585 3.158164,0.93874 z m -3.158164,-8.189361 c -1.511614,0 -2.927236,0.484745 -3.884422,1.330565 -0.07344,0.06457 -0.115465,0.15782 -0.115465,0.255865 v 6.944536 c 0,0.18891 0.152699,0.34161 0.341608,0.34161 h 1.182988 c 0.188909,0 0.341608,-0.1527 0.341608,-0.34161 v -6.088127 c 0.655545,-0.31667 1.290935,-0.56468 2.130265,-0.56468 0.797656,0 1.377705,0.230585 1.966638,0.493965 v 6.158842 c 0,0.18891 0.152697,0.34161 0.341607,0.34161 h 1.194944 c 0.188909,0 0.341608,-0.1527 0.341608,-0.34161 v -7.078106 c 0,-0.103845 -0.04749,-0.202235 -0.129129,-0.26748 -0.947619,-0.753245 -2.300727,-1.18538 -3.71225,-1.18538 z m -0.07925,11.171934 c -3.758369,0 -6.816783,-3.058068 -6.816783,-6.816775 0,-3.758709 3.058414,-6.816444 6.816783,-6.816444 3.758712,0 6.816784,3.057735 6.816784,6.816444 0,3.758707 -3.058072,6.816775 -6.816784,6.816775 z m 0,-14.316434 c -4.135504,0 -7.499999,3.364495 -7.499999,7.499659 0,4.135842 3.364495,7.499997 7.499999,7.499997 4.135504,0 7.500001,-3.364155 7.500001,-7.499997 0,-4.135164 -3.364497,-7.499659 -7.500001,-7.499659 z"
       id="AWS-Amazon-VPC_Internet-gateway_Resource-Icon_light-bg"
       fill="#8c4fff"
       style="fill-rule:evenodd;stroke:none;stroke-width:0.341607" /><path
       d="m 82.903374,132.42993 c -2.50636,0 -4.54545,-2.03909 -4.54545,-4.54546 0,-2.50636 2.03909,-4.54545 4.54545,-4.54545 2.50637,0 4.54546,2.03909 4.54546,4.54545 0,2.50637 -2.03909,4.54546 -4.54546,4.54546 z m 0,-9.54546 c -2.75704,0 -5,2.24296 -5,5 0,2.75705 2.24296,5 5,5 2.75705,0 5,-2.24295 5,-5 0,-2.75704 -2.24295,-5 -5,-5 z m -1.53841,7.55682 h -1.21704 l 1.44204,-3.02068 0.60932,1.2575 z m 0.42796,-3.64432 c -0.0382,-0.0784 -0.1175,-0.12818 -0.20455,-0.12818 h -6.7e-4 c -0.0875,2.3e-4 -0.16681,0.0507 -0.20431,0.12955 l -1.80069,3.77227 c -0.0339,0.0704 -0.0289,0.15318 0.0127,0.21909 0.0416,0.0661 0.11409,0.10614 0.19227,0.10614 h 1.72113 c 0.088,0 0.16796,-0.0507 0.20569,-0.13 l 0.94227,-1.99159 c 0.0293,-0.062 0.0291,-0.13455 -6.6e-4,-0.19637 z m 3.86614,3.64432 h -1.2391 l -2.25272,-4.84022 c -0.0373,-0.08 -0.11773,-0.13137 -0.20614,-0.13137 h -0.81886 l 6.6e-4,-0.9375 h 1.64091 l 2.24182,4.83977 c 0.0373,0.0802 0.1175,0.13182 0.20614,0.13182 h 0.42704 z m 0.22727,-1.39204 h -0.50909 l -2.24182,-4.83978 c -0.0375,-0.0802 -0.11773,-0.13181 -0.20636,-0.13181 h -2.01296 c -0.12546,0 -0.22704,0.10159 -0.22727,0.22704 l -0.001,1.39205 c 0,0.0605 0.0239,0.11818 0.0666,0.16091 0.0425,0.0427 0.10022,0.0666 0.16068,0.0666 h 0.90159 l 2.25273,4.84022 c 0.0373,0.08 0.1175,0.13137 0.2059,0.13137 h 1.61137 c 0.12568,0 0.22727,-0.10159 0.22727,-0.22728 v -1.39204 c 0,-0.12568 -0.10159,-0.22727 -0.22727,-0.22727 z"
       id="Amazon-Lambda-Lambda-Function_Resource-Icon_light-bg-4"
       fill="#ed7100"
       style="fill-rule:evenodd;stroke:none;stroke-width:0.227273" /><path
       d="m 94.502556,148.93646 c -2.50636,0 -4.54545,-2.03909 -4.54545,-4.54546 0,-2.50636 2.03909,-4.54545 4.54545,-4.54545 2.50637,0 4.54546,2.03909 4.54546,4.54545 0,2.50637 -2.03909,4.54546 -4.54546,4.54546 z m 0,-9.54546 c -2.75704,0 -5,2.24296 -5,5 0,2.75705 2.24296,5 5,5 2.75705,0 5,-2.24295 5,-5 0,-2.75704 -2.24295,-5 -5,-5 z m -1.53841,7.55682 h -1.21704 l 1.44204,-3.02068 0.60932,1.2575 z m 0.42796,-3.64432 c -0.0382,-0.0784 -0.1175,-0.12818 -0.20455,-0.12818 h -6.7e-4 c -0.0875,2.3e-4 -0.16681,0.0507 -0.20431,0.12955 l -1.80069,3.77227 c -0.0339,0.0704 -0.0289,0.15318 0.0127,0.21909 0.0416,0.0661 0.11409,0.10614 0.19227,0.10614 h 1.72113 c 0.088,0 0.16796,-0.0507 0.20569,-0.13 l 0.94227,-1.99159 c 0.0293,-0.062 0.0291,-0.13455 -6.6e-4,-0.19637 z m 3.86614,3.64432 h -1.2391 l -2.25272,-4.84022 c -0.0373,-0.08 -0.11773,-0.13137 -0.20614,-0.13137 h -0.81886 l 6.6e-4,-0.9375 h 1.64091 l 2.24182,4.83977 c 0.0373,0.0802 0.1175,0.13182 0.20614,0.13182 h 0.42704 z m 0.22727,-1.39204 h -0.50909 l -2.24182,-4.83978 c -0.0375,-0.0802 -0.11773,-0.13181 -0.20636,-0.13181 h -2.01296 c -0.12546,0 -0.22704,0.10159 -0.22727,0.22704 l -0.001,1.39205 c 0,0.0605 0.0239,0.11818 0.0666,0.16091 0.0425,0.0427 0.10022,0.0666 0.16068,0.0666 h 0.90159 l 2.25273,4.84022 c 0.0373,0.08 0.1175,0.13137 0.2059,0.13137 h 1.61137 c 0.12568,0 0.22727,-0.10159 0.22727,-0.22728 v -1.39204 c 0,-0.12568 -0.10159,-0.22727 -0.22727,-0.22727 z"
       id="Amazon-Lambda-Lambda-Function_Resource-Icon_light-bg-4-9"
       fill="#ed7100"
       style="fill-rule:evenodd;stroke:none;stroke-width:0.227273" /><path
       d="m 82.903374,149.82871 c -2.50636,0 -4.54545,-2.03909 -4.54545,-4.54546 0,-2.50636 2.03909,-4.54545 4.54545,-4.54545 2.50637,0 4.54546,2.03909 4.54546,4.54545 0,2.50637 -2.03909,4.54546 -4.54546,4.54546 z m 0,-9.54546 c -2.75704,0 -5,2.24296 -5,5 0,2.75705 2.24296,5 5,5 2.75705,0 5,-2.24295 5,-5 0,-2.75704 -2.24295,-5 -5,-5 z m -1.53841,7.55682 h -1.21704 l 1.44204,-3.02068 0.60932,1.2575 z m 0.42796,-3.64432 c -0.0382,-0.0784 -0.1175,-0.12818 -0.20455,-0.12818 h -6.7e-4 c -0.0875,2.3e-4 -0.16681,0.0507 -0.20431,0.12955 l -1.80069,3.77227 c -0.0339,0.0704 -0.0289,0.15318 0.0127,0.21909 0.0416,0.0661 0.11409,0.10614 0.19227,0.10614 h 1.72113 c 0.088,0 0.16796,-0.0507 0.20569,-0.13 l 0.94227,-1.99159 c 0.0293,-0.062 0.0291,-0.13455 -6.6e-4,-0.19637 z m 3.86614,3.64432 h -1.2391 l -2.25272,-4.84022 c -0.0373,-0.08 -0.11773,-0.13137 -0.20614,-0.13137 h -0.81886 l 6.6e-4,-0.9375 h 1.64091 l 2.24182,4.83977 c 0.0373,0.0802 0.1175,0.13182 0.20614,0.13182 h 0.42704 z m 0.22727,-1.39204 h -0.50909 l -2.24182,-4.83978 c -0.0375,-0.0802 -0.11773,-0.13181 -0.20636,-0.13181 h -2.01296 c -0.12546,0 -0.22704,0.10159 -0.22727,0.22704 l -0.001,1.39205 c 0,0.0605 0.0239,0.11818 0.0666,0.16091 0.0425,0.0427 0.10022,0.0666 0.16068,0.0666 h 0.90159 l 2.25273,4.84022 c 0.0373,0.08 0.1175,0.13137 0.2059,0.13137 h 1.61137 c 0.12568,0 0.22727,-0.10159 0.22727,-0.22728 v -1.39204 c 0,-0.12568 -0.10159,-0.22727 -0.22727,-0.22727 z"
       id="Amazon-Lambda-Lambda-Function_Resource-Icon_light-bg-4-2"
       fill="#ed7100"
       style="fill-rule:evenodd;stroke:none;stroke-width:0.227273" /><path
       d="m 95.989631,131.6864 c -2.50636,0 -4.54545,-2.03909 -4.54545,-4.54546 0,-2.50636 2.03909,-4.54545 4.54545,-4.54545 2.50637,0 4.545459,2.03909 4.545459,4.54545 0,2.50637 -2.039089,4.54546 -4.545459,4.54546 z m 0,-9.54546 c -2.75704,0 -5,2.24296 -5,5 0,2.75705 2.24296,5 5,5 2.75705,0 4.999999,-2.24295 4.999999,-5 0,-2.75704 -2.242949,-5 -4.999999,-5 z m -1.53841,7.55682 h -1.21704 l 1.44204,-3.02068 0.60932,1.2575 z m 0.42796,-3.64432 c -0.0382,-0.0784 -0.1175,-0.12818 -0.20455,-0.12818 h -6.7e-4 c -0.0875,2.3e-4 -0.16681,0.0507 -0.20431,0.12955 l -1.80069,3.77227 c -0.0339,0.0704 -0.0289,0.15318 0.0127,0.21909 0.0416,0.0661 0.11409,0.10614 0.19227,0.10614 h 1.72113 c 0.088,0 0.16796,-0.0507 0.20569,-0.13 l 0.94227,-1.99159 c 0.0293,-0.062 0.0291,-0.13455 -6.6e-4,-0.19637 z m 3.86614,3.64432 h -1.2391 l -2.25272,-4.84022 c -0.0373,-0.08 -0.11773,-0.13137 -0.20614,-0.13137 h -0.81886 l 6.6e-4,-0.9375 h 1.64091 l 2.24182,4.83977 c 0.0373,0.0802 0.1175,0.13182 0.20614,0.13182 h 0.42704 z m 0.22727,-1.39204 h -0.50909 l -2.24182,-4.83978 c -0.0375,-0.0802 -0.11773,-0.13181 -0.20636,-0.13181 h -2.01296 c -0.12546,0 -0.22704,0.10159 -0.22727,0.22704 l -0.001,1.39205 c 0,0.0605 0.0239,0.11818 0.0666,0.16091 0.0425,0.0427 0.10022,0.0666 0.16068,0.0666 h 0.90159 l 2.25273,4.84022 c 0.0373,0.08 0.1175,0.13137 0.2059,0.13137 h 1.61137 c 0.12568,0 0.22727,-0.10159 0.22727,-0.22728 V 128.533 c 0,-0.12568 -0.10159,-0.22727 -0.22727,-0.22727 z"
       id="Amazon-Lambda-Lambda-Function_Resource-Icon_light-bg-4-1"
       fill="#ed7100"
       style="fill-rule:evenodd;stroke:none;stroke-width:0.227273" /><g
       id="Icon-Architecture/48/Arch_Amazon-DynamoDB_48"
       stroke="none"
       stroke-width="1"
       fill="none"
       fill-rule="evenodd"
       transform="matrix(0.15625,0,0,0.15625,100.54167,135.46667)"><g
         id="Icon-Architecture-BG/48/Database"
         fill="#c925d1"><rect
           id="Rectangle-9"
           x="0"
           y="0"
           width="64"
           height="64" /></g><path
         d="m 46.585829,25.249276 h -3.584982 c -0.327998,0 -0.634996,-0.162753 -0.821995,-0.434682 -0.186999,-0.272941 -0.229999,-0.620687 -0.114,-0.93103 l 2.492987,-6.721408 h -8.912953 l -4.090978,9.09801 h 4.446976 c 0.320999,0 0.622997,0.155677 0.811996,0.420531 0.186999,0.262831 0.238999,0.601479 0.135999,0.909801 l -3.65998,11.100583 z m 3.120983,-0.296191 -17.998905,18.196021 c -0.191999,0.195102 -0.448998,0.296191 -0.706996,0.296191 -0.181999,0 -0.362999,-0.04953 -0.524998,-0.150623 -0.394998,-0.246657 -0.570997,-0.734917 -0.422997,-1.179708 l 4.559976,-13.83302 h -4.611976 c -0.339998,0 -0.655997,-0.174884 -0.840996,-0.462987 -0.182999,-0.290126 -0.209999,-0.653035 -0.069,-0.966411 l 4.999973,-11.119791 c 0.161999,-0.360887 0.516998,-0.592381 0.909996,-0.592381 h 10.999942 c 0.327998,0 0.634996,0.162753 0.821995,0.434683 0.187,0.27294 0.229999,0.620686 0.115,0.931029 l -2.493987,6.721408 h 4.555976 c 0.403998,0 0.769996,0.246657 0.923995,0.623719 0.154999,0.378073 0.069,0.812756 -0.216998,1.10187 z m -8.705954,19.266554 c -2.709986,1.886321 -7.68696,2.882047 -12.467934,2.882047 -4.815975,0 -9.836949,-1.008868 -12.532934,-2.923494 l 9.99e-4,3.81611 c 0,1.663925 4.767975,3.983918 12.531935,3.983918 7.49496,0 12.467934,-2.702109 12.467934,-4.489363 z m 2.063989,-3.269219 c 0,0.187015 -0.032,0.366954 -0.064,0.545881 v 5.992556 C 43.000847,51.079539 36.510882,54 28.532924,54 21.62996,54 14.661997,52.110647 14.06,48.499747 H 14.001 L 14,43.445297 V 30.303726 16.151266 h 10e-4 C 14.001,12.155218 21.487961,10 28.532924,10 c 3.940979,0 7.729959,0.639893 10.396945,1.755916 l -0.765996,1.868125 c -2.431987,-1.018977 -5.942969,-1.602261 -9.630949,-1.602261 -7.76396,0 -12.531935,2.404908 -12.531935,4.129486 0,1.724578 4.767975,4.129486 12.531935,4.129486 0.194999,0 0.398998,0.001 0.595996,-0.0071 l 0.078,2.019759 c -0.224999,0.0091 -0.448998,0.0091 -0.673996,0.0091 -4.816975,0 -9.836949,-1.008868 -12.532934,-2.923494 v 4.357947 h 9.99e-4 v 0.01718 c 0.005,0.529706 0.488998,1.143317 1.363993,1.719524 1.98199,1.287874 5.549971,2.168359 9.53895,2.35133 l -0.091,2.019758 c -4.125979,-0.190047 -7.74996,-1.06851 -10.085947,-2.416027 -0.309999,0.298213 -0.725997,1.05638 -0.725997,1.466802 0,1.724578 4.767975,4.129485 12.531935,4.129485 0.737996,0 1.464992,-0.02527 2.161988,-0.0748 l 0.141,2.016725 c -0.743997,0.05358 -1.518993,0.07986 -2.302988,0.07986 -4.816975,0 -9.836949,-1.008869 -12.532934,-2.923494 v 3.66953 h 9.99e-4 c 0.005,0.546892 0.488998,1.160502 1.363993,1.73671 2.267988,1.474888 6.548966,2.393787 11.167942,2.393787 h 0.329998 v 2.02178 h -0.329998 c -4.777975,0 -9.859949,-1.007857 -12.531935,-2.543399 -0.321998,0.298213 0,1.01089 0,1.548683 0,1.724579 4.767975,4.129486 12.531935,4.129486 7.764959,0 12.531934,-2.404907 12.531934,-4.129486 0,-0.609566 -0.598997,-1.174654 -1.091994,-1.538574 -0.408998,0.246657 -0.858996,0.483205 -1.371993,0.699536 l -0.767996,-1.867114 c 0.530997,-0.223407 0.989995,-0.462988 1.363993,-0.711667 1.100994,-0.733906 1.80399,-1.778155 1.80399,-2.174424 h 1.999989 c 0,0.940127 -0.620996,1.946974 -1.416992,2.774893 1.191994,1.040206 1.480992,2.07839 1.480992,2.81735 z m -25.922864,7.438129 c 0.790996,0.4084 1.715991,0.77232 2.751986,1.080642 l 0.563997,-1.939898 c -0.915995,-0.27193 -1.725991,-0.589349 -2.405987,-0.941139 z m 2.751986,-11.050039 0.563997,-1.938887 c -0.915995,-0.27294 -1.725991,-0.589349 -2.405987,-0.941138 l -0.909996,1.799384 c 0.790996,0.40941 1.715991,0.77232 2.751986,1.080641 z m -2.751986,-13.210311 0.909996,-1.800395 c 0.679996,0.35179 1.489992,0.668198 2.405987,0.941139 l -0.563997,1.939898 c -1.035995,-0.308322 -1.96099,-0.672242 -2.751986,-1.080642 z"
         id="Amazon-DynamoDB_Icon_48_Squid"
         fill="#ffffff" /></g><g
       style="fill:none"
       id="g12"
       transform="matrix(0.15625,0,0,0.15625,67.997915,135.46667)"><g
         id="Icon-Architecture/48/Arch_Amazon-API-Gateway_48"><g
           id="Icon-Architecture-BG/48/Networking-Content-Delivery"><rect
             id="Rectangle-0"
             width="64"
             height="64"
             fill="#8c4fff"
             x="0"
             y="0" /></g><g
           id="Icon-Service/48/Amazon-API-Gateway_48"><path
             id="Amazon-API-Gateway_Icon_48_Squid"
             fill-rule="evenodd"
             clip-rule="evenodd"
             d="m 28,43.9999 h 3 v -2 h -3 z m 5,0 h 3 v -2 H 33 Z M 28,21.9998 h 3 v -2 h -3 z m 5,0 h 3 v -2 h -3 z m -11,-9.259 -10,5.833 V 46.382 l 10,5 z m 2,7.259 h 2 v 2 h -2 v 20.0001 h 2 v 2 H 24 V 53 c 0,0.347 -0.18,0.668 -0.475,0.851 C 23.365,53.95 23.183,54 23,54 22.847,54 22.694,53.965 22.553,53.895 l -12,-6 C 10.214,47.725 10,47.379 10,47 V 17.9998 c 0,-0.355 0.188,-0.685 0.496,-0.864 l 12,-7 c 0.309,-0.18005 0.692,-0.18105 1.002,-0.003 0.311,0.178 0.502,0.509 0.502,0.867 z m 28,-1.426 -10,-5.833 V 51.382 l 10,-5 z m 2,-0.574 V 47 c 0,0.379 -0.214,0.725 -0.553,0.895 l -12,6 C 41.306,53.965 41.153,54 41,54 40.817,54 40.635,53.95 40.475,53.851 40.18,53.668 40,53.347 40,53 v -9.0001 h -2 v -2 h 2 V 21.9998 h -2 v -2 h 2 v -9 c 0,-0.358 0.191,-0.689 0.502,-0.867 0.31,-0.17705 0.693,-0.17705 1.002,0.003 l 12,7 c 0.308,0.179 0.496,0.509 0.496,0.864 z m -19.061,9.3421 -1.878,-0.6841 -4,11.0001 1.878,0.684 z m 4.768,5.365 c 0.391,-0.391 0.391,-1.023 0,-1.414 l -3,-3 -1.414,1.414 2.293,2.293 -2.293,2.293 1.414,1.414 z m -12.414,3 -3,-3 c -0.391,-0.391 -0.391,-1.023 0,-1.414 l 3,-3 1.414,1.414 -2.293,2.293 2.293,2.293 z"
             fill="#ffffff" /></g></g></g><g
       id="Icon-Architecture-Group/32/Auto-Scaling-group_32"
       stroke="none"
       stroke-width="1"
       fill="none"
       fill-rule="evenodd"
       transform="matrix(0.26458333,0,0,0.26458333,154.25509,75.435673)"><rect
         id="Rectangle"
         fill="#ed7100"
         x="0"
         y="0"
         width="40"
         height="40" /><path
         d="m 18.021,19.495254 c 0,-0.155 -0.071,-0.297 -0.188,-0.391 l -2.954,-2.953 -0.707,0.707 2.138,2.137 H 7 v 1 h 9.314 l -2.142,2.142 0.707,0.707 2.969,-2.969 c 0.108,-0.094 0.173,-0.232 0.173,-0.38 z m 15.965,-0.5 h -9.311 l 2.138,-2.137 -0.707,-0.707 -2.969,2.969 c -0.107,0.093 -0.173,0.231 -0.173,0.379 0,0.155 0.072,0.298 0.189,0.391 l 2.953,2.954 0.707,-0.707 -2.142,-2.142 h 9.315 z m -12.99,12.329 v -9.314 h -1 v 9.31 l -2.138,-2.137 -0.707,0.707 2.969,2.967 c 0.093,0.109 0.232,0.175 0.38,0.175 0.156,0 0.3,-0.073 0.393,-0.191 l 2.951,-2.951 -0.707,-0.707 z m -3.138,-21.4870002 -0.707,-0.707 2.952,-2.951 c 0.182,-0.232 0.58,-0.24 0.774,-0.017 l 2.967,2.968 -0.707,0.707 -2.141,-2.141 v 9.3140002 h -1 V 7.7002538 Z"
         id="Fill-1"
         fill="#ffffff" /></g></g></svg>
