<?xml version="1.0" encoding="UTF-8" standalone="no"?>
<!-- Created with Inkscape (http://www.inkscape.org/) -->

<svg
   width="210mm"
   height="297mm"
   viewBox="0 0 210 297"
   version="1.1"
   id="svg1"
   inkscape:version="1.4.2 (ebf0e940d0, 2025-05-08)"
   sodipodi:docname="archDiagram.svg"
   xml:space="preserve"
   xmlns:inkscape="http://www.inkscape.org/namespaces/inkscape"
   xmlns:sodipodi="http://sodipodi.sourceforge.net/DTD/sodipodi-0.dtd"
   xmlns="http://www.w3.org/2000/svg"
   xmlns:svg="http://www.w3.org/2000/svg"><sodipodi:namedview
     id="namedview1"
     pagecolor="#ffffff"
     bordercolor="#000000"
     borderopacity="0.25"
     inkscape:showpageshadow="2"
     inkscape:pageopacity="0.0"
     inkscape:pagecheckerboard="0"
     inkscape:deskcolor="#d1d1d1"
     inkscape:document-units="mm"
     inkscape:zoom="1.3391085"
     inkscape:cx="42.192248"
     inkscape:cy="390.18495"
     inkscape:window-width="1362"
     inkscape:window-height="748"
     inkscape:window-x="0"
     inkscape:window-y="0"
     inkscape:window-maximized="1"
     inkscape:current-layer="layer1"
     showgrid="true"><inkscape:grid
       id="grid1"
       units="mm"
       originx="0"
       originy="0"
       spacingx="1"
       spacingy="0.99999998"
       empcolor="#0099e5"
       empopacity="0.30196078"
       color="#0099e5"
       opacity="0.14901961"
       empspacing="5"
       enabled="true"
       visible="true" /><inkscape:grid
       type="modular"
       id="grid2"
       units="mm"
       originx="0"
       originy="0"
       spacingx="40.000001"
       spacingy="39.999999"
       empcolor="#0047cb"
       empopacity="0.30196078"
       color="#0099e5"
       opacity="0.14901961"
       empspacing="0"
       marginx="0"
       marginy="0"
       gapx="10"
       gapy="9.9999998"
       enabled="true"
       visible="true" /><inkscape:grid
       id="grid3"
       units="mm"
       originx="0"
       originy="0"
       spacingx="1"
       spacingy="0.99999998"
       empcolor="#0099e5"
       empopacity="0.30196078"
       color="#0099e5"
       opacity="0.14901961"
       empspacing="5"
       enabled="true"
       visible="true" /></sodipodi:namedview><defs
     id="defs1" /><g
     inkscape:label="Layer 1"
     inkscape:groupmode="layer"
     id="layer1"><path
       d="m 11.351609,73.764658 c 0.03692,-0.03662 0.08546,-0.05679 0.137134,-0.05679 h 2.84e-4 c 0.05224,0 0.101364,0.02017 0.138269,0.05707 0.03662,0.03692 0.0565,0.08546 0.0565,0.137134 v 5.68e-4 c 0,0.05224 -0.02015,0.101074 -0.05707,0.137985 -0.03662,0.03662 -0.08546,0.05679 -0.137702,0.05679 h -2.84e-4 c -0.107322,0 -0.194202,-0.08745 -0.194202,-0.19477 0,-0.05196 0.02017,-0.101074 0.05707,-0.137985 z m -0.146504,0.844666 v 0.79782 h 0.567843 v -0.796968 c 0.09398,-0.03776 0.180858,-0.09398 0.255246,-0.167798 0.143949,-0.143948 0.223162,-0.335311 0.223449,-0.539167 5.68e-4,-0.203571 -0.07865,-0.394934 -0.222597,-0.539166 -0.143949,-0.144516 -0.335879,-0.224014 -0.539735,-0.224014 h -8.54e-4 c -0.419636,0 -0.761194,0.341841 -0.761761,0.762329 0,0.320264 0.198461,0.593964 0.478409,0.706964 z m 2.232476,1.311718 -3.898527,-0.0017 0.0012,-3.153801 3.899094,0.002 z m -2.904802,-4.438261 c 8.54e-4,-0.280231 0.103349,-0.542858 0.289032,-0.739048 0.180291,-0.190511 0.417649,-0.295279 0.66892,-0.295279 h 0.0031 c 0.52497,0.0017 0.950284,0.471026 0.948586,1.046536 l -2.84e-4,0.704125 -1.912779,-8.54e-4 z m 3.190426,0.716901 -0.71321,-2.83e-4 2.84e-4,-0.703558 c 0.0028,-0.887823 -0.676869,-1.61239 -1.514722,-1.615229 h -0.0048 c -0.408847,0 -0.792995,0.167798 -1.081458,0.473013 -0.285057,0.301524 -0.4429183,0.701854 -0.4443373,1.126885 l -0.0034,0.717469 -0.7052607,-2.84e-4 c -0.07525,0 -0.147356,0.0301 -0.200733,0.08319 -0.0531,0.05337 -0.08319,0.125493 -0.08319,0.200733 l -0.0012,3.721643 c 0,0.156725 0.126914,0.283921 0.283922,0.283921 l 4.46637,0.0017 c 0.156441,0 0.28392,-0.127197 0.28392,-0.283922 l 0.0017,-3.721359 c 0,-0.07496 -0.0301,-0.147355 -0.08319,-0.200732 -0.05337,-0.05311 -0.125486,-0.08321 -0.200726,-0.08321 z M 7.771926,67.688453 c -0.113285,0 -0.205276,-0.09228 -0.205276,-0.205275 0,-0.113285 0.09199,-0.205559 0.205276,-0.205559 0.113285,0 0.205275,0.09228 0.205275,0.205559 0,0.113 -0.09199,0.205275 -0.205275,0.205275 z m 0,-0.978678 c -0.426166,0 -0.773118,0.346953 -0.773118,0.773403 0,0.426166 0.346952,0.773119 0.773118,0.773119 0.42645,0 0.773119,-0.346953 0.773119,-0.773119 0,-0.42645 -0.346669,-0.773403 -0.773119,-0.773403 z m 0.403453,2.317936 c -0.118112,0.03748 -0.198178,0.147072 -0.198178,0.270861 v 0.496296 c 0,0.07523 0.0301,0.147354 0.08319,0.200732 l 0.21862,0.218336 -0.21862,0.218903 c -0.0531,0.0531 -0.08319,0.125493 -0.08319,0.200733 v 0.279378 c 0,0.07552 0.0301,0.147639 0.08319,0.200733 l 0.21862,0.218619 -0.21862,0.21862 c -0.0531,0.05337 -0.08319,0.125777 -0.08319,0.200733 v 0.312597 L 7.74325,72.331706 7.56665,72.180092 v -2.88152 c 0,-0.123789 -0.08006,-0.233383 -0.198177,-0.270861 -0.550239,-0.174328 -0.920189,-0.68056 -0.920189,-1.25976 0,-0.729678 0.59368,-1.323642 1.323642,-1.323642 0.729678,0 1.323643,0.593964 1.323643,1.323642 0,0.5792 -0.36995,1.085432 -0.92019,1.25976 z m 0.705828,1.386957 c 0.11073,-0.110729 0.11073,-0.290452 0,-0.401465 L 8.545045,69.677324 V 69.49391 c 0.676868,-0.300104 1.1183655,-0.969592 1.1183655,-1.725959 0,-1.043127 -0.8486405,-1.891485 -1.8914845,-1.891485 -1.042843,0 -1.891485,0.848358 -1.891485,1.891485 0,0.756367 0.441498,1.425855 1.118367,1.725959 v 2.816786 c 0,0.08291 0.03634,0.161551 0.09909,0.215496 l 0.488912,0.419353 c 0.05367,0.04599 0.119247,0.06842 0.185118,0.06842 0.07893,0 0.157292,-0.03265 0.213793,-0.09681 l 0.489195,-0.559326 c 0.04514,-0.05167 0.07013,-0.118111 0.07013,-0.18682 v -0.30181 l 0.336162,-0.336162 c 0.11073,-0.111013 0.11073,-0.290736 0,-0.401465 L 8.545049,70.79541 v -0.04428 z m 5.550951,6.270407 c 0,0.126061 -0.102781,0.228841 -0.228841,0.228841 H 5.796684 c -0.126346,0 -0.22884,-0.102781 -0.22884,-0.228841 V 65.796684 c 0,-0.126344 0.102501,-0.22884 0.22884,-0.22884 h 8.406633 c 0.126061,0 0.228841,0.10249 0.228841,0.22884 z M 14.203317,65 H 5.796684 C 5.357457,65 5,65.357458 5,65.796684 v 10.888391 c 0,0.439226 0.357457,0.796684 0.796684,0.796684 h 8.406633 C 14.642543,77.481759 15,77.124301 15,76.685075 V 65.796684 C 15,65.357458 14.642543,65 14.203317,65 Z"
       id="AWS-Identity-and-Access-Management_Data-Encryption-Key_-Resource-Icon_light-bg"
       fill="#dd344c"
       style="fill-rule:evenodd;stroke:none;stroke-width:0.283921" /><path
       d="m 9.545684,54.944775 c 1.228862,0 2.228866,-1.007273 2.228866,-2.245001 0,-1.237956 -1.000004,-2.245229 -2.228866,-2.245229 -1.229095,0 -2.229322,1.007273 -2.229322,2.245229 0,1.237728 1.000227,2.245001 2.229322,2.245001 z M 5.460227,59.54546 h 5.448862 v 0.454545 H 5.22727 C 5.101592,60.000005 5,59.898187 5,59.772733 5,57.545459 6.487494,55.677503 8.481359,55.176821 7.529545,54.761366 6.861814,53.807956 6.861814,52.699774 6.861814,51.211137 8.06568,50 9.545684,50 c 1.479548,0 2.683406,1.211137 2.683406,2.699774 0,1.107728 -0.6675,2.061137 -1.618404,2.476592 0.207497,0.05205 0.412725,0.114319 0.612498,0.197046 0.04046,0.0166 0.07997,0.03364 0.119546,0.05137 l -0.186365,0.414773 c -0.03548,-0.01614 -0.07138,-0.03136 -0.10727,-0.04637 -0.478188,-0.197727 -0.984319,-0.298182 -1.503644,-0.298182 -2.182729,0 -3.971821,1.797047 -4.085224,4.050458 z m 9.085233,-1.704547 c 0,-0.94 -0.764547,-1.704546 -1.70455,-1.704546 -0.940004,0 -1.704543,0.764546 -1.704543,1.704546 0,0.940001 0.764539,1.704547 1.704543,1.704547 0.940003,0 1.70455,-0.764546 1.70455,-1.704547 z m 0.45454,0 c 0,1.190456 -0.968633,2.159092 -2.15909,2.159092 -1.190458,0 -2.159092,-0.968636 -2.159092,-2.159092 0,-1.190455 0.968634,-2.159092 2.159092,-2.159092 1.190457,0 2.15909,0.968637 2.15909,2.159092 z m -1.29704,-0.823637 0.321363,0.321364 -1.363637,1.363638 c -0.04433,0.04454 -0.102503,0.06659 -0.160682,0.06659 -0.05815,0 -0.116366,-0.02204 -0.160682,-0.06659 l -0.681818,-0.681819 0.321364,-0.321364 0.521136,0.521137 z"
       id="Fill-1-1"
       fill="#232f3d"
       style="fill-rule:evenodd;stroke:none;stroke-width:0.227272" /><path
       d="m 11.702569,114.44107 c 0,-0.66251 0.548408,-1.20136 1.222728,-1.20136 0.674091,0 1.222272,0.53885 1.222272,1.20136 0,0.6625 -0.548181,1.20136 -1.222272,1.20136 -0.67432,0 -1.222728,-0.53886 -1.222728,-1.20136 z m 2.619091,1.60182 c -0.147045,-0.0914 -0.302272,-0.16683 -0.4625,-0.2275 0.447727,-0.29773 0.742954,-0.80251 0.742954,-1.37432 0,-0.91296 -0.752273,-1.65591 -1.676817,-1.65591 -0.924774,0 -1.677274,0.74295 -1.677274,1.65591 0,0.57046 0.293863,1.07454 0.74,1.3725 -0.291136,0.10978 -0.564772,0.27046 -0.805909,0.47728 l 0.296136,0.34499 c 0.405,-0.34749 0.917501,-0.53886 1.442729,-0.53886 0.409545,0 0.811136,0.11477 1.161136,0.33204 0.622727,0.38682 1.031363,1.06637 1.100909,1.81068 h -2.262045 v 0.45456 h 2.499999 c 0.125682,0 0.227273,-0.1016 0.227273,-0.22728 0,-0.98705 -0.508182,-1.91591 -1.326591,-2.42409 z m -7.1645456,-1.60182 c 0,-0.66251 0.548408,-1.20136 1.222727,-1.20136 0.674091,0 1.222272,0.53885 1.222272,1.20136 0,0.6625 -0.548181,1.20136 -1.222272,1.20136 -0.674319,0 -1.222727,-0.53886 -1.222727,-1.20136 z m 1.218409,3.79863 h -2.262273 c 0.11,-1.20067 1.082728,-2.14272 2.262273,-2.14272 0.409545,0 0.811136,0.11477 1.161136,0.33204 0.09818,0.0612 0.192955,0.13069 0.281819,0.20681 l 0.2961356,-0.34476 c -0.106364,-0.0914 -0.2199996,-0.17477 -0.3384096,-0.24818 -0.147045,-0.0914 -0.302272,-0.16683 -0.462499,-0.2275 0.447727,-0.29773 0.7429536,-0.80251 0.7429536,-1.37432 0,-0.91296 -0.7522726,-1.65591 -1.6768176,-1.65591 -0.924773,0 -1.677273,0.74295 -1.677273,1.65591 0,0.57159 0.295,1.07659 0.742728,1.37409 -1.046591,0.39523 -1.797046,1.43319 -1.797046,2.65182 0,0.12568 0.101818,0.22728 0.227272,0.22728 h 2.500001 z m 0.01045,4.09091 c 0.11,-1.20067 1.082727,-2.14272 2.2622716,-2.14272 0.409547,0 0.811137,0.11477 1.161137,0.33204 0.622728,0.38681 1.031365,1.06636 1.10091,1.81068 z m 1.043863,-3.79863 c 0,-0.66251 0.54841,-1.20136 1.2227276,-1.20136 0.674091,0 1.222273,0.53885 1.222273,1.20136 0,0.66249 -0.548182,1.20136 -1.222273,1.20136 -0.6743176,0 -1.2227276,-0.53887 -1.2227276,-1.20136 z m 2.6190916,1.60182 c -0.147046,-0.0914 -0.302273,-0.16683 -0.462501,-0.22751 0.447728,-0.29773 0.742956,-0.8025 0.742956,-1.37431 0,-0.91296 -0.752273,-1.65591 -1.676819,-1.65591 -0.9247726,0 -1.6772716,0.74295 -1.6772716,1.65591 0,0.57159 0.294999,1.07658 0.742727,1.37408 -1.046591,0.39523 -1.797046,1.43319 -1.797046,2.65182 0,0.12569 0.101818,0.22728 0.227273,0.22728 h 5.0000016 c 0.125682,0 0.227272,-0.10159 0.227272,-0.22728 0,-0.98703 -0.508181,-1.9159 -1.326592,-2.42408 z"
       id="Fill-1-20"
       fill="#242f3e"
       style="fill-rule:evenodd;stroke:none;stroke-width:0.227272" /><g
       id="g4"
       transform="matrix(0.79026815,0,0,1.1270996,-16.520575,-4.6696833)"
       style="stroke-width:0.563629;stroke-dasharray:none"><rect
         style="fill:none;fill-opacity:1;stroke:#8c4fff;stroke-width:0.563629;stroke-linejoin:round;stroke-dasharray:none;stroke-opacity:1"
         id="rect3-7-0"
         width="189.13586"
         height="125.04979"
         x="65.214005"
         y="35.214005" /></g><g
       id="Icon-Architecture-Group/32/AWS-Cloud_32-2"
       stroke="none"
       stroke-width="1"
       fill="none"
       fill-rule="evenodd"
       transform="matrix(0.23748741,0,0,0.23753637,35.249986,35.285423)"
       style="stroke:#8c4fff;stroke-width:2.10526;stroke-linecap:round;stroke-linejoin:round;stroke-dasharray:none;stroke-opacity:1"><rect
         id="Rectangle-2-5"
         fill="#ffffff"
         x="0"
         y="0"
         width="40"
         height="40"
         style="stroke:#8c4fff;stroke-width:2.10526;stroke-linecap:round;stroke-linejoin:round;stroke-dasharray:none;stroke-opacity:1" /><path
         d="m 28.993,27.995269 -17.506,-0.019 c -2.366,-0.002 -4.333,-1.847 -4.475,-4.201 -0.008,-0.123 -0.012,-0.249 -0.012,-0.378 0,-3.098 2.091,-4.11 3.337,-4.438 0.24,-0.063 0.398,-0.293 0.37,-0.54 -0.031,-0.27 -0.048,-0.544 -0.048,-0.823 0,-2.464 1.649,-5.114 3.756,-6.033 0.944,-0.413 1.817,-0.577 2.608,-0.577 2.253,0 3.844,1.329 4.538,2.047 0.768,0.793 1.366,1.805 1.779,3.009 0.06,0.177 0.215,0.305 0.4,0.332 0.178,0.027 0.369,-0.051 0.479,-0.203 0.588,-0.821 1.547,-1.189 2.44,-0.932 1.123,0.321 1.857,1.488 1.961,3.068 -0.042,0.269 0.139,0.522 0.407,0.57 1.195,0.212 3.973,1.08 3.973,4.563 0,4.149 -3.886,4.542 -4.007,4.555 m 0.601,-10.021 c -0.215,-1.907 -1.194,-3.278 -2.66,-3.696 -1.035,-0.296 -2.123,-0.033 -2.945,0.672 -0.436,-1.014 -1.01,-1.89 -1.709,-2.612 -2.257,-2.333 -5.347,-2.9660001 -8.266,-1.692 -2.483,1.084 -4.355,4.072 -4.355,6.95 0,0.174 0.006,0.347 0.017,0.518 -1.357,0.459 -3.676,1.761 -3.676,5.283 0,0.152 0.004,0.299 0.014,0.441 0.174,2.878 2.579,5.135 5.472,5.138 l 17.548,0.017 c 0.05,-0.004 4.966,-0.474 4.966,-5.553 0,-3.938 -2.997,-5.126 -4.406,-5.466"
         id="Fill-1-8-4"
         fill="#232f3e"
         style="stroke:#8c4fff;stroke-width:2.10526;stroke-linecap:round;stroke-linejoin:round;stroke-dasharray:none;stroke-opacity:1" /></g><rect
       style="fill:none;fill-opacity:1;stroke:#000000;stroke-width:0.472188;stroke-linejoin:round;stroke-dasharray:none;stroke-opacity:1"
       id="rect3"
       width="169.90204"
       height="169.42899"
       x="25.236095"
       y="15.236094" /><g
       id="g6"
       transform="translate(-17.844353,-0.6353941)"><g
         id="Icon-Architecture-Group/32/AWS-Cloud_32"
         stroke="none"
         stroke-width="1"
         fill="none"
         fill-rule="evenodd"
         transform="matrix(0.2375,0,0,0.2375,43.094354,15.885395)"
         style="stroke:#000000;stroke-width:2.10526;stroke-linecap:round;stroke-linejoin:round;stroke-dasharray:none;stroke-opacity:1"><rect
           id="Rectangle-2"
           fill="#ffffff"
           x="0"
           y="0"
           width="40"
           height="40"
           style="stroke:#000000;stroke-width:2.10526;stroke-linecap:round;stroke-linejoin:round;stroke-dasharray:none;stroke-opacity:1" /><path
           d="m 28.993,27.995269 -17.506,-0.019 c -2.366,-0.002 -4.333,-1.847 -4.475,-4.201 -0.008,-0.123 -0.012,-0.249 -0.012,-0.378 0,-3.098 2.091,-4.11 3.337,-4.438 0.24,-0.063 0.398,-0.293 0.37,-0.54 -0.031,-0.27 -0.048,-0.544 -0.048,-0.823 0,-2.464 1.649,-5.114 3.756,-6.033 0.944,-0.413 1.817,-0.577 2.608,-0.577 2.253,0 3.844,1.329 4.538,2.047 0.768,0.793 1.366,1.805 1.779,3.009 0.06,0.177 0.215,0.305 0.4,0.332 0.178,0.027 0.369,-0.051 0.479,-0.203 0.588,-0.821 1.547,-1.189 2.44,-0.932 1.123,0.321 1.857,1.488 1.961,3.068 -0.042,0.269 0.139,0.522 0.407,0.57 1.195,0.212 3.973,1.08 3.973,4.563 0,4.149 -3.886,4.542 -4.007,4.555 m 0.601,-10.021 c -0.215,-1.907 -1.194,-3.278 -2.66,-3.696 -1.035,-0.296 -2.123,-0.033 -2.945,0.672 -0.436,-1.014 -1.01,-1.89 -1.709,-2.612 -2.257,-2.333 -5.347,-2.9660001 -8.266,-1.692 -2.483,1.084 -4.355,4.072 -4.355,6.95 0,0.174 0.006,0.347 0.017,0.518 -1.357,0.459 -3.676,1.761 -3.676,5.283 0,0.152 0.004,0.299 0.014,0.441 0.174,2.878 2.579,5.135 5.472,5.138 l 17.548,0.017 c 0.05,-0.004 4.966,-0.474 4.966,-5.553 0,-3.938 -2.997,-5.126 -4.406,-5.466"
           id="Fill-1-8"
           fill="#232f3e"
           style="stroke:#000000;stroke-width:2.10526;stroke-linecap:round;stroke-linejoin:round;stroke-dasharray:none;stroke-opacity:1" /></g></g><rect
       style="fill:none;fill-opacity:1;stroke:#00a4a6;stroke-width:0.524319;stroke-linejoin:round;stroke-dasharray:1.04864, 0.524319;stroke-dashoffset:0;stroke-opacity:1"
       id="rect3-7"
       width="159.47568"
       height="153.42332"
       x="30.241579"
       y="25.241579" /><g
       id="Icon-Architecture-Group/32/Region_32"
       stroke="none"
       stroke-width="1"
       fill="none"
       fill-rule="evenodd"
       transform="matrix(0.25,0,0,0.25,30.036011,25.148277)"
       style="stroke-width:3.99915;stroke-dasharray:15.9966, 3.99915;stroke-dashoffset:0"><rect
         id="Rectangle-61"
         fill="#00a4a6"
         x="0"
         y="-0.54994935"
         width="40"
         height="40"
         style="stroke-width:3.99915;stroke-dasharray:15.9966, 3.99915;stroke-dashoffset:0" /><path
         d="m 14,20.026 v -9 h 15.293 l -4.147,4.146 c -0.195,0.196 -0.195,0.512 0,0.708 l 4.147,4.146 z m 12.207,-4.5 4.647,-4.646 c 0.142,-0.144 0.185,-0.358 0.108,-0.545 -0.077,-0.187 -0.26,-0.309 -0.462,-0.309 H 14 V 8.97 C 14.596,8.76 15.026,8.198 15.026,7.531 15.026,6.687 14.34,6 13.495,6 12.65,6 11.963,6.687 11.963,7.531 c 0,0.67 0.435,1.235 1.037,1.442 v 24.053 h -3 v 1 h 7 v -1 h -3 v -12 h 16.5 c 0.202,0 0.385,-0.122 0.462,-0.309 0.077,-0.187 0.034,-0.401 -0.108,-0.545 z"
         id="Fill-1-29"
         fill="#ffffff"
         style="stroke-width:3.99915;stroke-dasharray:15.9966, 3.99915;stroke-dashoffset:0" /></g><rect
       style="fill:none;fill-opacity:1;stroke:#00a4a6;stroke-width:0.346131;stroke-linejoin:round;stroke-dasharray:2.76905, 0.346131;stroke-dashoffset:0;stroke-opacity:1"
       id="rect3-7-06"
       width="119.69244"
       height="129.23198"
       x="48.313812"
       y="45.159851" /><rect
       style="fill:none;fill-opacity:1;stroke:#ed7100;stroke-width:0.157895;stroke-linejoin:round;stroke-dasharray:1.26317, 0.157895;stroke-dashoffset:0;stroke-opacity:1"
       id="rect3-7-06-0"
       width="59.91663"
       height="53.721745"
       x="104.82951"
       y="46.946449" /><text
       xml:space="preserve"
       style="font-size:3.52778px;text-align:start;writing-mode:lr-tb;direction:ltr;text-anchor:start;fill:#000000;fill-opacity:1;stroke:#000000;stroke-width:0;stroke-linecap:round;stroke-linejoin:round;stroke-dasharray:none;stroke-opacity:1"
       x="38.081501"
       y="22.027397"
       id="text3"><tspan
         sodipodi:role="line"
         id="tspan3"
         style="font-size:3.52778px;stroke-width:0;stroke-dasharray:none"
         x="38.081501"
         y="22.027397">AWS Cloud</tspan></text><text
       xml:space="preserve"
       style="font-size:3.52778px;text-align:start;writing-mode:lr-tb;direction:ltr;text-anchor:start;fill:#000000;fill-opacity:1;stroke:#000000;stroke-width:0;stroke-linecap:round;stroke-linejoin:round;stroke-dasharray:none;stroke-opacity:1"
       x="77.727531"
       y="28.014082"
       id="text3-5"><tspan
         sodipodi:role="line"
         id="tspan3-9"
         style="font-size:3.52778px;stroke-width:0;stroke-dasharray:none"
         x="77.727531"
         y="28.014082">AWS Cloud</tspan></text><text
       xml:space="preserve"
       style="font-size:4.23333px;text-align:start;writing-mode:lr-tb;direction:ltr;text-anchor:start;fill:#000000;fill-opacity:1;stroke:#000000;stroke-width:0;stroke-linecap:round;stroke-linejoin:round;stroke-dasharray:none;stroke-opacity:1"
       x="13.258057"
       y="109.51804"
       id="text3-9"><tspan
         sodipodi:role="line"
         id="tspan3-64"
         style="font-size:4.23333px;stroke-width:0;stroke-dasharray:none"
         x="13.258057"
         y="109.51804">Internet Gateway</tspan></text><text
       xml:space="preserve"
       style="font-size:3.52778px;text-align:start;writing-mode:lr-tb;direction:ltr;text-anchor:start;fill:#00a4a6;fill-opacity:1;stroke:#00a4a6;stroke-width:0;stroke-linecap:round;stroke-linejoin:round;stroke-dasharray:none;stroke-opacity:1"
       x="43.790035"
       y="30.526007"
       id="text3-3"
       inkscape:transform-center-x="3.6745791"
       inkscape:transform-center-y="-13.401406"><tspan
         sodipodi:role="line"
         id="tspan3-6"
         style="font-size:3.52778px;fill:#00a4a6;fill-opacity:1;stroke:#00a4a6;stroke-width:0;stroke-dasharray:none;stroke-opacity:1"
         x="43.790035"
         y="30.526007">Region</tspan></text><text
       xml:space="preserve"
       style="font-size:6.5445px;text-align:start;writing-mode:lr-tb;direction:ltr;text-anchor:start;fill:#00a4a6;fill-opacity:1;stroke:#00a4a6;stroke-width:0;stroke-linecap:round;stroke-linejoin:round;stroke-dasharray:none;stroke-opacity:1"
       x="111.44896"
       y="82.235527"
       id="text3-3-5"
       inkscape:transform-center-x="3.6745791"
       inkscape:transform-center-y="-13.401406"><tspan
         sodipodi:role="line"
         id="tspan3-6-0"
         style="font-size:6.5445px;fill:#00a4a6;fill-opacity:1;stroke:#00a4a6;stroke-width:0;stroke-dasharray:none;stroke-opacity:1"
         x="111.44896"
         y="82.235527">Availability Zone 1</tspan></text><text
       xml:space="preserve"
       style="font-size:3.52778px;text-align:start;writing-mode:lr-tb;direction:ltr;text-anchor:start;fill:#8c4fff;fill-opacity:1;stroke:#8c4fff;stroke-width:0;stroke-linecap:round;stroke-linejoin:round;stroke-dasharray:none;stroke-opacity:1"
       x="46.729771"
       y="38.981342"
       id="text3-3-8"
       inkscape:transform-center-x="3.6745791"
       inkscape:transform-center-y="-13.401406"><tspan
         sodipodi:role="line"
         id="tspan3-6-4"
         style="font-size:3.52778px;fill:#8c4fff;fill-opacity:1;stroke:#8c4fff;stroke-width:0;stroke-dasharray:none;stroke-opacity:1"
         x="46.729771"
         y="38.981342">MainVPC</tspan><tspan
         sodipodi:role="line"
         style="font-size:3.52778px;fill:#8c4fff;fill-opacity:1;stroke:#8c4fff;stroke-width:0;stroke-dasharray:none;stroke-opacity:1"
         x="46.729771"
         y="43.391068"
         id="tspan8">10.0.0.0/16</tspan></text><text
       xml:space="preserve"
       style="font-size:3.52778px;text-align:start;writing-mode:lr-tb;direction:ltr;text-anchor:start;fill:#8c4fff;fill-opacity:1;stroke:#8c4fff;stroke-width:0;stroke-linecap:round;stroke-linejoin:round;stroke-dasharray:none;stroke-opacity:1"
       x="36.701225"
       y="61.383064"
       id="text3-3-8-3"
       inkscape:transform-center-x="3.6745791"
       inkscape:transform-center-y="-13.401406"><tspan
         sodipodi:role="line"
         style="font-size:3.52778px;fill:#8c4fff;fill-opacity:1;stroke:#8c4fff;stroke-width:0;stroke-dasharray:none;stroke-opacity:1"
         x="36.701225"
         y="61.383064"
         id="tspan8-6">Private</tspan><tspan
         sodipodi:role="line"
         style="font-size:3.52778px;fill:#8c4fff;fill-opacity:1;stroke:#8c4fff;stroke-width:0;stroke-dasharray:none;stroke-opacity:1"
         x="36.701225"
         y="65.792786"
         id="tspan13">Route</tspan><tspan
         sodipodi:role="line"
         style="font-size:3.52778px;fill:#8c4fff;fill-opacity:1;stroke:#8c4fff;stroke-width:0;stroke-dasharray:none;stroke-opacity:1"
         x="36.701225"
         y="70.202515"
         id="tspan14">Table</tspan></text><path
       d="m 37.698092,57.136008 h 9.08975 v -2.129755 h -9.08975 z m 9.54488,-2.357317 v 2.584879 c 0,0.125843 -0.10172,0.227563 -0.22756,0.227563 h -9.54488 c -0.12584,0 -0.22756,-0.10172 -0.22756,-0.227563 v -2.584879 c 0,-0.125843 0.10172,-0.227562 0.22756,-0.227562 h 9.54488 c 0.12584,0 0.22756,0.101719 0.22756,0.227562 z m -9.54488,-1.023348 h 9.08975 v -2.129757 h -9.08975 z m 9.54488,-2.357319 v 2.585109 c 0,0.125614 -0.10172,0.227562 -0.22756,0.227562 h -9.54488 c -0.12584,0 -0.22756,-0.101948 -0.22756,-0.227562 v -2.585109 c 0,-0.125842 0.10172,-0.227562 0.22756,-0.227562 h 9.54488 c 0.12584,0 0.22756,0.10172 0.22756,0.227562 z m -9.54488,-1.02312 h 9.08975 v -2.129756 h -9.08975 z m 9.54488,-2.357319 v 2.584882 c 0,0.125841 -0.10172,0.227562 -0.22756,0.227562 h -9.54488 c -0.12584,0 -0.22756,-0.101721 -0.22756,-0.227562 v -2.584882 c 0,-0.125841 0.10172,-0.227562 0.22756,-0.227562 h 9.54488 c 0.12584,0 0.22756,0.101721 0.22756,0.227562 z m -1.4894,8.059576 c 0,0.194793 0.0182,0.335882 0.0548,0.423493 0.0366,0.08761 0.0951,0.131076 0.17545,0.131076 0.0801,0 0.13859,-0.04346 0.17523,-0.131076 0.0366,-0.08761 0.0549,-0.2287 0.0549,-0.423493 0,-0.193655 -0.0182,-0.334061 -0.0549,-0.421673 -0.0366,-0.08761 -0.0951,-0.131303 -0.17523,-0.131303 -0.0803,0 -0.13881,0.04369 -0.17545,0.131303 -0.0366,0.08761 -0.0548,0.228018 -0.0548,0.421673 z m -0.094,0.532723 c -0.074,-0.121973 -0.11082,-0.299472 -0.11082,-0.532723 0,-0.233479 0.0369,-0.41075 0.11082,-0.53204 0.074,-0.121291 0.18205,-0.18205 0.32428,-0.18205 0.14223,0 0.25032,0.06076 0.32405,0.18205 0.0742,0.12129 0.11105,0.298561 0.11105,0.53204 0,0.234616 -0.0369,0.41257 -0.11105,0.533634 -0.0737,0.121518 -0.18182,0.182049 -0.32405,0.182049 -0.14223,0 -0.25032,-0.06076 -0.32428,-0.18296 z m -0.42759,0.177044 c 0.0378,0 0.0687,-0.0116 0.0917,-0.03482 0.0232,-0.02298 0.035,-0.05394 0.035,-0.09239 0,-0.03845 -0.0118,-0.06918 -0.035,-0.09239 -0.023,-0.02344 -0.0539,-0.03482 -0.0917,-0.03482 -0.038,0 -0.069,0.01138 -0.0919,0.03482 -0.0232,0.02321 -0.0348,0.05394 -0.0348,0.09239 0,0.03845 0.0116,0.06941 0.0348,0.09239 0.023,0.02321 0.0539,0.03482 0.0919,0.03482 z m -0.34657,-0.185008 h -0.5746 c 0.16339,-0.19889 0.27899,-0.346123 0.34658,-0.442382 0.0674,-0.09603 0.11401,-0.176588 0.13927,-0.24167 0.0253,-0.06486 0.0382,-0.127663 0.0382,-0.188877 0,-0.115146 -0.0305,-0.205034 -0.0913,-0.269434 -0.0603,-0.06417 -0.14473,-0.09649 -0.25305,-0.09649 -0.0621,0 -0.12266,0.01047 -0.18182,0.03094 -0.0589,0.02048 -0.12038,0.05325 -0.18365,0.09831 v 0.169307 c 0.13358,-0.0851 0.24418,-0.127436 0.33156,-0.127436 0.11424,0 0.17113,0.06895 0.17113,0.206854 0,0.06236 -0.0164,0.127891 -0.0485,0.196842 -0.0328,0.06895 -0.086,0.155425 -0.16066,0.259421 -0.0746,0.103997 -0.18319,0.244175 -0.32542,0.420763 v 0.149054 h 0.79215 z m -1.15739,0.185008 c 0.038,0 0.0685,-0.0116 0.0919,-0.03482 0.023,-0.02298 0.0348,-0.05394 0.0348,-0.09239 0,-0.03845 -0.0118,-0.06918 -0.0348,-0.09239 -0.0234,-0.02344 -0.0539,-0.03482 -0.0919,-0.03482 -0.038,0 -0.0687,0.01138 -0.0919,0.03482 -0.0232,0.02321 -0.0348,0.05394 -0.0348,0.09239 0,0.03845 0.0116,0.06941 0.0348,0.09239 0.0232,0.02321 0.0539,0.03482 0.0919,0.03482 z m -0.96554,-0.626252 c 0,0.164528 0.0187,0.284681 0.0562,0.360914 0.0373,0.07624 0.0958,0.114236 0.17613,0.114236 0.13403,0 0.20094,-0.0933 0.20094,-0.280357 0,-0.08625 -0.0175,-0.152239 -0.053,-0.197978 -0.035,-0.04552 -0.0872,-0.06872 -0.15611,-0.06872 -0.0733,0 -0.14792,0.01866 -0.22415,0.05598 z m -0.094,0.468096 c -0.0696,-0.10923 -0.10446,-0.277853 -0.10446,-0.505871 0,-0.245312 0.0421,-0.433278 0.12585,-0.563899 0.0837,-0.130621 0.20298,-0.195931 0.35773,-0.195931 0.0478,0 0.0963,0.0059 0.14495,0.01797 0.0485,0.01206 0.091,0.02776 0.12767,0.04779 v 0.145185 c -0.0353,-0.01616 -0.0753,-0.0289 -0.12039,-0.03869 -0.0451,-0.01001 -0.0872,-0.01525 -0.12675,-0.01525 -0.0999,0 -0.17454,0.0396 -0.22392,0.11856 -0.0494,0.07896 -0.0776,0.204352 -0.0844,0.376844 0.0901,-0.05302 0.18319,-0.07964 0.27899,-0.07964 0.10673,0 0.19229,0.03732 0.25646,0.111504 0.0642,0.07418 0.0963,0.172948 0.0963,0.296287 0,0.137902 -0.0371,0.247132 -0.10991,0.327918 -0.0733,0.08079 -0.17272,0.12129 -0.29765,0.12129 -0.14382,0 -0.25055,-0.05461 -0.32041,-0.164072 z m -0.7298,0.138358 h 0.20071 v -1.378118 h -0.18364 l -0.33179,0.188878 v 0.163162 l 0.31472,-0.149281 z m -0.74139,0.0198 c 0.038,0 0.0687,-0.0116 0.0922,-0.03482 0.023,-0.02298 0.0348,-0.05393 0.0348,-0.09239 0,-0.03845 -0.0118,-0.06918 -0.0348,-0.09239 -0.0234,-0.02344 -0.0542,-0.03482 -0.0922,-0.03482 -0.0378,0 -0.0685,0.01138 -0.0917,0.03482 -0.0232,0.02321 -0.0348,0.05394 -0.0348,0.09239 0,0.03845 0.0116,0.06941 0.0348,0.09239 0.0232,0.02321 0.0539,0.03482 0.0917,0.03482 z m -0.34635,-0.185009 h -0.57437 c 0.16316,-0.19889 0.27876,-0.346123 0.34612,-0.442382 0.0678,-0.09603 0.11424,-0.176588 0.1395,-0.24167 0.0255,-0.06486 0.0382,-0.127663 0.0382,-0.188877 0,-0.115146 -0.0303,-0.205034 -0.091,-0.269434 -0.0605,-0.06417 -0.14496,-0.09649 -0.25305,-0.09649 -0.0624,0 -0.12266,0.01047 -0.18182,0.03094 -0.0594,0.02048 -0.12038,0.05325 -0.18388,0.09831 v 0.169307 c 0.13358,-0.0851 0.24418,-0.127436 0.33156,-0.127436 0.11424,0 0.17113,0.06895 0.17113,0.206854 0,0.06236 -0.0162,0.127891 -0.0485,0.196842 -0.0325,0.06895 -0.086,0.155425 -0.16066,0.259421 -0.0746,0.103997 -0.18296,0.244175 -0.32519,0.420763 v 0.149054 h 0.79192 z m -1.68988,0.16521 h 0.20708 l 0.4417,-1.230884 v -0.147235 h -0.80694 v 0.164983 h 0.60623 z m -0.7794,0 h 0.20071 v -1.378119 h -0.18365 l -0.33178,0.188878 v 0.163162 l 0.31472,-0.149281 z m 7.37188,-4.144366 c 0,0.194794 0.0182,0.336338 0.0548,0.423722 0.0366,0.08738 0.0951,0.131076 0.17545,0.131076 0.0801,0 0.13858,-0.04369 0.17522,-0.131076 0.0366,-0.08738 0.0549,-0.228928 0.0549,-0.423722 0,-0.193427 -0.0182,-0.334061 -0.0549,-0.421445 -0.0366,-0.08738 -0.0951,-0.131304 -0.17522,-0.131304 -0.0803,0 -0.13881,0.04393 -0.17545,0.131304 -0.0366,0.08738 -0.0548,0.228018 -0.0548,0.421445 z m -0.094,0.533179 c -0.074,-0.121973 -0.11082,-0.299699 -0.11082,-0.533179 0,-0.233023 0.0369,-0.410522 0.11082,-0.531813 0.074,-0.12129 0.18205,-0.18205 0.32427,-0.18205 0.14223,0 0.25032,0.06076 0.32405,0.18205 0.0742,0.121291 0.11105,0.29879 0.11105,0.531813 0,0.234618 -0.0369,0.412571 -0.11105,0.534089 -0.0737,0.121291 -0.18182,0.181823 -0.32405,0.181823 -0.14222,0 -0.25031,-0.06076 -0.32427,-0.182733 z m -0.42759,0.176816 c 0.0378,0 0.0687,-0.0116 0.0917,-0.03482 0.0232,-0.02321 0.035,-0.05394 0.035,-0.09239 0,-0.03846 -0.0118,-0.06918 -0.035,-0.09262 -0.023,-0.02298 -0.0539,-0.03459 -0.0917,-0.03459 -0.038,0 -0.0689,0.0116 -0.0919,0.03459 -0.0232,0.02344 -0.0348,0.05416 -0.0348,0.09262 0,0.03845 0.0116,0.06918 0.0348,0.09239 0.023,0.02321 0.0539,0.03482 0.0919,0.03482 z m -0.76279,-0.0198 h 0.2007 v -1.378118 h -0.18364 l -0.33156,0.189105 v 0.162707 l 0.31449,-0.149054 z m -0.74117,0.0198 c 0.038,0 0.0685,-0.0116 0.0919,-0.03482 0.023,-0.02321 0.0348,-0.05394 0.0348,-0.09239 0,-0.03845 -0.0118,-0.06918 -0.0348,-0.09262 -0.0234,-0.02298 -0.0539,-0.03459 -0.0919,-0.03459 -0.038,0 -0.0687,0.0116 -0.0919,0.03459 -0.0232,0.02344 -0.0348,0.05416 -0.0348,0.09262 0,0.03846 0.0116,0.06918 0.0348,0.09239 0.0232,0.02321 0.0539,0.03482 0.0919,0.03482 z m -0.96555,-0.626252 c 0,0.1643 0.0187,0.284681 0.0562,0.360914 0.0373,0.07624 0.0958,0.114236 0.17614,0.114236 0.13403,0 0.20093,-0.0933 0.20093,-0.280129 0,-0.08625 -0.0175,-0.152239 -0.053,-0.198207 -0.035,-0.04574 -0.0872,-0.0685 -0.15611,-0.0685 -0.0733,0 -0.14791,0.01866 -0.22414,0.05575 z m -0.094,0.468324 c -0.0696,-0.109458 -0.10445,-0.278082 -0.10445,-0.506327 0,-0.245085 0.0421,-0.433051 0.12584,-0.563672 0.0837,-0.130621 0.20299,-0.195932 0.35773,-0.195932 0.0478,0 0.0963,0.0061 0.14496,0.01798 0.0485,0.01184 0.091,0.02776 0.12766,0.04779 v 0.145186 c -0.0353,-0.01593 -0.0753,-0.0289 -0.12038,-0.03891 -0.0451,-0.01001 -0.0872,-0.01479 -0.12675,-0.01479 -0.0999,0 -0.17454,0.03937 -0.22392,0.118332 -0.0494,0.07874 -0.0776,0.204579 -0.0844,0.376616 0.0901,-0.05279 0.18318,-0.07942 0.27899,-0.07942 0.10672,0 0.19229,0.0371 0.25646,0.111279 0.0642,0.07441 0.0963,0.173174 0.0963,0.296513 0,0.137676 -0.0371,0.247133 -0.10991,0.327917 -0.0733,0.08101 -0.17272,0.121291 -0.29765,0.121291 -0.14382,0 -0.25055,-0.05461 -0.32041,-0.163844 z m -0.72979,0.13813 h 0.20071 v -1.378118 h -0.18364 l -0.33179,0.189104 v 0.162708 l 0.31472,-0.149054 z m -0.7414,0.0198 c 0.038,0 0.0687,-0.0116 0.0922,-0.03482 0.023,-0.02321 0.0348,-0.05394 0.0348,-0.09239 0,-0.03845 -0.0118,-0.06918 -0.0348,-0.09262 -0.0234,-0.02298 -0.0542,-0.03459 -0.0922,-0.03459 -0.0378,0 -0.0685,0.0116 -0.0917,0.03459 -0.0232,0.02344 -0.0348,0.05416 -0.0348,0.09262 0,0.03846 0.0116,0.06918 0.0348,0.09239 0.0232,0.02321 0.0539,0.03482 0.0917,0.03482 z m -0.34635,-0.184781 h -0.57437 c 0.16317,-0.19889 0.27877,-0.346578 0.34613,-0.442609 0.0678,-0.09603 0.11423,-0.176589 0.13949,-0.241444 0.0255,-0.06508 0.0382,-0.128117 0.0382,-0.189104 0,-0.115147 -0.0303,-0.205034 -0.091,-0.269434 -0.0605,-0.06417 -0.14495,-0.09649 -0.25305,-0.09649 -0.0624,0 -0.12265,0.01024 -0.18182,0.03095 -0.0594,0.02048 -0.12038,0.05325 -0.18387,0.09854 v 0.168851 c 0.13358,-0.08465 0.24418,-0.127207 0.33156,-0.127207 0.11424,0 0.17113,0.06895 0.17113,0.206626 0,0.06258 -0.0162,0.128118 -0.0485,0.19707 -0.0325,0.06895 -0.086,0.155424 -0.16066,0.259421 -0.0746,0.103996 -0.18296,0.244401 -0.32519,0.420763 v 0.149053 h 0.79192 z m -1.68988,0.164983 h 0.20709 l 0.44169,-1.230886 v -0.147232 h -0.80693 v 0.164983 h 0.60622 z m -0.7794,0 h 0.20071 v -1.378118 h -0.18364 l -0.33179,0.189104 v 0.162707 l 0.31471,-0.149055 z m 7.37188,-3.94889 c 0,0.194793 0.0182,0.33611 0.0548,0.423721 0.0366,0.08738 0.0951,0.131076 0.17546,0.131076 0.0801,0 0.13858,-0.04369 0.17522,-0.131076 0.0366,-0.08761 0.0549,-0.228928 0.0549,-0.423721 0,-0.193428 -0.0182,-0.334061 -0.0549,-0.421445 -0.0366,-0.08761 -0.0951,-0.131304 -0.17522,-0.131304 -0.0803,0 -0.13882,0.04369 -0.17546,0.131304 -0.0366,0.08738 -0.0548,0.228017 -0.0548,0.421445 z m -0.094,0.532951 c -0.074,-0.121973 -0.11082,-0.299472 -0.11082,-0.532951 0,-0.233252 0.0369,-0.410522 0.11082,-0.531813 0.074,-0.121291 0.18205,-0.18205 0.32428,-0.18205 0.14223,0 0.25032,0.06076 0.32405,0.18205 0.0742,0.121291 0.11105,0.298561 0.11105,0.531813 0,0.234616 -0.0369,0.412571 -0.11105,0.533862 -0.0737,0.121517 -0.18182,0.182049 -0.32405,0.182049 -0.14223,0 -0.25032,-0.06099 -0.32428,-0.18296 z m -0.42759,0.177043 c 0.0378,0 0.0687,-0.0116 0.0917,-0.03505 0.0232,-0.02298 0.035,-0.05394 0.035,-0.09239 0,-0.03845 -0.0118,-0.06895 -0.035,-0.09239 -0.023,-0.02321 -0.0539,-0.03459 -0.0917,-0.03459 -0.038,0 -0.0689,0.01138 -0.0919,0.03459 -0.0232,0.02344 -0.0348,0.05394 -0.0348,0.09239 0,0.03846 0.0116,0.06941 0.0348,0.09239 0.023,0.02344 0.0539,0.03505 0.0919,0.03505 z m -0.98217,-0.709996 c 0,0.194793 0.0182,0.33611 0.0546,0.423721 0.0369,0.08738 0.0951,0.131076 0.17522,0.131076 0.0803,0 0.13904,-0.04369 0.17545,-0.131076 0.0369,-0.08761 0.0549,-0.228928 0.0549,-0.423721 0,-0.193428 -0.018,-0.334061 -0.0549,-0.421445 -0.0364,-0.08761 -0.0951,-0.131304 -0.17545,-0.131304 -0.0801,0 -0.13835,0.04369 -0.17522,0.131304 -0.0364,0.08738 -0.0546,0.228017 -0.0546,0.421445 z m -0.0942,0.532951 c -0.074,-0.121973 -0.11082,-0.299472 -0.11082,-0.532951 0,-0.233252 0.0369,-0.410522 0.11082,-0.531813 0.0742,-0.121291 0.18205,-0.18205 0.32405,-0.18205 0.14245,0 0.25055,0.06076 0.32428,0.18205 0.0742,0.121291 0.11105,0.298561 0.11105,0.531813 0,0.234616 -0.0369,0.412571 -0.11105,0.533862 -0.0737,0.121517 -0.18183,0.182049 -0.32428,0.182049 -0.142,0 -0.24986,-0.06099 -0.32405,-0.18296 z m -0.42759,0.177043 c 0.038,0 0.0685,-0.0116 0.0919,-0.03505 0.023,-0.02298 0.0348,-0.05394 0.0348,-0.09239 0,-0.03845 -0.0118,-0.06895 -0.0348,-0.09239 -0.0234,-0.02321 -0.0539,-0.03459 -0.0919,-0.03459 -0.038,0 -0.0687,0.01138 -0.0919,0.03459 -0.0232,0.02344 -0.0348,0.05394 -0.0348,0.09239 0,0.03846 0.0116,0.06941 0.0348,0.09239 0.0232,0.02344 0.0539,0.03505 0.0919,0.03505 z m -0.96555,-0.626479 c 0,0.164528 0.0187,0.284908 0.0562,0.361142 0.0373,0.07623 0.0958,0.114236 0.17614,0.114236 0.13403,0 0.20093,-0.09353 0.20093,-0.280585 0,-0.08625 -0.0175,-0.152011 -0.053,-0.197751 -0.035,-0.04574 -0.0872,-0.06872 -0.1561,-0.06872 -0.0733,0 -0.14792,0.01866 -0.22415,0.05598 z m -0.094,0.468324 c -0.0696,-0.109458 -0.10445,-0.278081 -0.10445,-0.506099 0,-0.245085 0.0421,-0.433051 0.12585,-0.563899 0.0837,-0.130393 0.20298,-0.195704 0.35772,-0.195704 0.0478,0 0.0963,0.0059 0.14496,0.01775 0.0485,0.01206 0.091,0.02799 0.12766,0.04779 v 0.145412 c -0.0353,-0.01616 -0.0753,-0.0289 -0.12038,-0.03891 -0.0451,-0.01001 -0.0872,-0.01502 -0.12675,-0.01502 -0.0999,0 -0.17454,0.03937 -0.22392,0.11856 -0.0494,0.07874 -0.0776,0.204351 -0.0844,0.376616 0.0901,-0.05279 0.18319,-0.07942 0.27899,-0.07942 0.10673,0 0.19229,0.0371 0.25646,0.111278 0.0642,0.07418 0.0963,0.173175 0.0963,0.296514 0,0.137675 -0.0371,0.246905 -0.10991,0.327917 -0.0733,0.08079 -0.17272,0.121291 -0.29765,0.121291 -0.14382,0 -0.25055,-0.05461 -0.32041,-0.164072 z m -0.72979,0.138357 h 0.20071 v -1.378345 h -0.18364 l -0.33179,0.188877 v 0.163162 l 0.31472,-0.149053 z m -0.7414,0.0198 c 0.038,0 0.0687,-0.0116 0.0922,-0.03505 0.023,-0.02298 0.0348,-0.05394 0.0348,-0.09239 0,-0.03845 -0.0118,-0.06895 -0.0348,-0.09239 -0.0234,-0.02321 -0.0542,-0.03459 -0.0922,-0.03459 -0.0378,0 -0.0685,0.01138 -0.0917,0.03459 -0.0232,0.02344 -0.0348,0.05394 -0.0348,0.09239 0,0.03846 0.0116,0.06941 0.0348,0.09239 0.0232,0.02344 0.0539,0.03505 0.0917,0.03505 z m -0.34635,-0.185008 h -0.57436 c 0.16316,-0.198889 0.27876,-0.34635 0.34612,-0.442381 0.0678,-0.09603 0.11424,-0.176589 0.13949,-0.241672 0.0255,-0.06508 0.0382,-0.12789 0.0382,-0.189103 0,-0.11492 -0.0303,-0.204806 -0.091,-0.269207 -0.0605,-0.06417 -0.14495,-0.09649 -0.25304,-0.09649 -0.0624,0 -0.12266,0.01024 -0.18183,0.03095 -0.0594,0.02048 -0.12038,0.05325 -0.18387,0.09831 v 0.169079 c 0.13358,-0.08488 0.24418,-0.127208 0.33156,-0.127208 0.11424,0 0.17113,0.06895 0.17113,0.206627 0,0.06258 -0.0162,0.128118 -0.0485,0.196842 -0.0325,0.06895 -0.086,0.155653 -0.16066,0.259648 -0.0746,0.103996 -0.18296,0.244175 -0.32519,0.420535 v 0.149282 h 0.79192 z m -1.68987,0.16521 h 0.20708 l 0.4417,-1.230884 v -0.147461 h -0.80694 v 0.165211 h 0.60623 z m -0.77941,-1.17536 -0.31471,0.149054 v -0.163162 l 0.33178,-0.188877 h 0.18364 v 1.378345 h -0.20071 z"
       id="AWS-Amazon-Route-53_Route-table_Resource-Icon_light-bg"
       fill="#8c4fff"
       style="fill-rule:evenodd;stroke:none;stroke-width:0.227562" /><rect
       style="fill:#7aa116;fill-opacity:0.5;stroke:#7aa116;stroke-width:0.17261;stroke-linejoin:round;stroke-dasharray:none;stroke-dashoffset:0;stroke-opacity:1"
       id="rect3-7-06-4"
       width="50.146194"
       height="76.710396"
       x="50.011692"
       y="48.616116" /><g
       id="Icon-Architecture-Group/32/Public-subnet_32"
       stroke="none"
       stroke-width="1"
       fill="none"
       fill-rule="evenodd"
       transform="matrix(0.25,0,0,0.25,49.901585,48.548412)"><rect
         id="Rectangle-1"
         fill="#7aa116"
         x="0"
         y="0"
         width="40"
         height="40" /><path
         d="m 19.536,22.049 c 1.106,0 2.006,0.899 2.006,2.005 0,1.106 -0.9,2.006 -2.006,2.006 -1.106,0 -2.006,-0.9 -2.006,-2.006 0,-1.106 0.9,-2.005 2.006,-2.005 z m -0.524,4.958 v 3.494 h 1 v -3.489 c 1.43,-0.23 2.53,-1.463 2.53,-2.958 0,-1.657 -1.349,-3.005 -3.006,-3.005 -1.657,0 -3.006,1.348 -3.006,3.005 0,1.478 1.074,2.703 2.482,2.953 z M 10,33.014 H 29.012 V 18 H 10 Z m 4.046,-20.53 C 14.046,9.46 16.506,7 19.529,7 c 3.024,0 5.483,2.46 5.483,5.484 V 17 H 14.046 Z M 29.512,17 h -3.5 V 12.484 C 26.012,8.908 23.103,6 19.529,6 15.954,6 13.046,8.908 13.046,12.484 V 17 H 9.5 C 9.223,17 9,17.224 9,17.5 v 16.014 c 0,0.276 0.223,0.5 0.5,0.5 h 20.012 c 0.276,0 0.5,-0.224 0.5,-0.5 V 17.5 c 0,-0.276 -0.224,-0.5 -0.5,-0.5 z"
         id="Fill-1-7"
         fill="#ffffff" /></g><rect
       style="fill:#ed7100;fill-opacity:0.25;stroke:#dd344c;stroke-width:0.365595;stroke-linejoin:round;stroke-dasharray:none;stroke-dashoffset:0;stroke-opacity:1"
       id="rect3-7-06-4-8"
       width="39.835438"
       height="29.669876"
       x="54.16283"
       y="90.129951" /><rect
       style="fill:#00a6a8;fill-opacity:0.5;stroke:#00a4a6;stroke-width:0.116205;stroke-linejoin:round;stroke-dasharray:none;stroke-dashoffset:0;stroke-opacity:1"
       id="rect3-7-06-4-9-8"
       width="48.786247"
       height="35.736607"
       x="109.98978"
       y="50.603058" /><g
       id="Icon-Architecture-Group/32/Private-subnet_32-4"
       stroke="none"
       stroke-width="1"
       fill="none"
       fill-rule="evenodd"
       transform="matrix(0.26458333,0,0,0.26458333,110.61164,50.544952)"><rect
         id="Rectangle-26-7"
         fill="#00a4a6"
         x="0"
         y="0"
         width="40"
         height="40" /><path
         d="m 19.536,22.049 c 1.106,0 2.006,0.899 2.006,2.005 0,1.106 -0.9,2.006 -2.006,2.006 -1.106,0 -2.006,-0.9 -2.006,-2.006 0,-1.106 0.9,-2.005 2.006,-2.005 z m -0.524,4.958 v 3.494 h 1 v -3.489 c 1.43,-0.23 2.53,-1.463 2.53,-2.958 0,-1.657 -1.349,-3.005 -3.006,-3.005 -1.657,0 -3.006,1.348 -3.006,3.005 0,1.478 1.074,2.703 2.482,2.953 z M 10,33.014 H 29.012 V 18 H 10 Z m 4.046,-20.53 C 14.046,9.46 16.506,7 19.529,7 c 3.024,0 5.483,2.46 5.483,5.484 V 17 H 14.046 Z M 29.512,17 h -3.5 V 12.484 C 26.012,8.908 23.103,6 19.529,6 15.954,6 13.046,8.908 13.046,12.484 V 17 H 9.5 C 9.223,17 9,17.224 9,17.5 v 16.014 c 0,0.276 0.223,0.5 0.5,0.5 h 20.012 c 0.276,0 0.5,-0.224 0.5,-0.5 V 17.5 c 0,-0.276 -0.224,-0.5 -0.5,-0.5 z"
         id="Fill-1-10-2"
         fill="#ffffff" /></g><path
       d="m 55.183654,70.08738 v -0.644956 l 0.403153,0.322478 z m -0.08521,-1.295367 c -0.06837,-0.05477 -0.16226,-0.06545 -0.240663,-0.02727 -0.07842,0.03795 -0.128624,0.117265 -0.128624,0.204759 v 1.590801 c 0,0.08749 0.05025,0.166807 0.128624,0.204759 0.03161,0.01523 0.06519,0.02249 0.09863,0.02249 0.05067,0 0.100898,-0.01682 0.142032,-0.04977 l 0.994257,-0.7954 c 0.05385,-0.04318 0.08521,-0.108402 0.08521,-0.177488 0,-0.06908 -0.03135,-0.134309 -0.08521,-0.177488 z m 5.454404,-0.769038 v -0.891304 l 0.445654,0.445652 z m 0.927665,-0.606322 -0.994249,-0.994251 c -0.06502,-0.06499 -0.162268,-0.08454 -0.247714,-0.04932 -0.08503,0.03523 -0.140219,0.118175 -0.140219,0.209986 v 0.766993 h -1.73306 v -2.158944 c 0,-0.125673 -0.101585,-0.227257 -0.227255,-0.227257 h -1.748522 v 0.454515 h 1.521259 v 1.931686 H 56.34836 v 0.454515 h 1.562393 v 1.931915 h -1.521259 v 0.454513 h 1.748522 c 0.12567,0 0.227255,-0.101584 0.227255,-0.227257 v -2.159171 h 1.73306 v 0.767221 c 0,0.09181 0.05549,0.174988 0.140219,0.209985 0.02817,0.01182 0.05772,0.01727 0.08704,0.01727 0.05909,0 0.117269,-0.02318 0.160679,-0.06659 l 0.994249,-0.994478 c 0.08886,-0.08886 0.08886,-0.232484 0,-0.321342 z m -6.296842,0.483376 v -0.645183 l 0.403154,0.322477 z m -0.08521,-1.295594 c -0.06837,-0.05477 -0.162259,-0.06523 -0.240662,-0.02727 -0.07842,0.03795 -0.128624,0.117265 -0.128624,0.204759 v 1.591028 c 0,0.08749 0.05025,0.166807 0.128624,0.204759 0.03161,0.01523 0.06519,0.02249 0.09863,0.02249 0.05067,0 0.100897,-0.01682 0.142031,-0.04977 l 0.994258,-0.795628 c 0.05385,-0.04318 0.08521,-0.108402 0.08521,-0.177488 0,-0.06908 -0.03135,-0.134309 -0.08521,-0.177488 z m 0.08521,-1.090835 v -0.644955 l 0.403154,0.322477 z m -0.08521,-1.295367 c -0.06837,-0.05477 -0.162259,-0.06545 -0.240662,-0.02727 -0.07842,0.03795 -0.128624,0.117265 -0.128624,0.204759 v 1.590801 c 0,0.08749 0.05025,0.166807 0.128624,0.204759 0.03161,0.01523 0.06519,0.02249 0.09863,0.02249 0.05067,0 0.100897,-0.01682 0.142031,-0.04977 l 0.994258,-0.795401 c 0.05385,-0.04318 0.08521,-0.108401 0.08521,-0.177488 0,-0.06908 -0.03135,-0.134308 -0.08521,-0.177487 z m 2.443016,7.705841 c -2.50619,0 -4.545372,-2.039181 -4.545372,-4.545601 0,-2.506193 2.039182,-4.545372 4.545372,-4.545372 2.506419,0 4.545602,2.039179 4.545602,4.545372 0,2.50642 -2.039183,4.545601 -4.545602,4.545601 z m 0,-9.545488 c -2.757082,0 -4.999881,2.242802 -4.999881,4.999887 0,2.757086 2.242799,5.000116 4.999881,5.000116 2.757088,0 5.000119,-2.24303 5.000119,-5.000116 0,-2.757085 -2.243031,-4.999887 -5.000119,-4.999887 z"
       id="AWS-Amazon-VPC_NAT-gateway_Resource-Icon_light-bg-7"
       fill="#8c4fff"
       style="fill-rule:evenodd;stroke:none;stroke-width:0.227257" /><text
       xml:space="preserve"
       style="font-size:3.52778px;text-align:start;writing-mode:lr-tb;direction:ltr;text-anchor:start;fill:#7aa116;fill-opacity:1;stroke:#7aa116;stroke-width:0;stroke-linecap:round;stroke-linejoin:round;stroke-dasharray:none;stroke-opacity:1"
       x="62.737541"
       y="54.05566"
       id="text3-3-8-7"
       inkscape:transform-center-x="3.6745791"
       inkscape:transform-center-y="-13.401406"><tspan
         sodipodi:role="line"
         style="font-size:3.52778px;fill:#7aa116;fill-opacity:1;stroke:#7aa116;stroke-width:0;stroke-dasharray:none;stroke-opacity:1"
         x="62.737541"
         y="54.05566"
         id="tspan8-1">PubS A</tspan><tspan
         sodipodi:role="line"
         style="font-size:3.52778px;fill:#7aa116;fill-opacity:1;stroke:#7aa116;stroke-width:0;stroke-dasharray:none;stroke-opacity:1"
         x="62.737541"
         y="58.465385"
         id="tspan10">10.0.0.0/24</tspan></text><text
       xml:space="preserve"
       style="font-size:3.52778px;text-align:start;writing-mode:lr-tb;direction:ltr;text-anchor:start;fill:#ed7100;fill-opacity:1;stroke:#ed7100;stroke-width:0;stroke-linecap:round;stroke-linejoin:round;stroke-dasharray:none;stroke-opacity:1"
       x="124.12758"
       y="98.14492"
       id="text3-3-8-7-8"
       inkscape:transform-center-x="3.6745791"
       inkscape:transform-center-y="-13.401406"><tspan
         sodipodi:role="line"
         style="font-size:3.52778px;fill:#ed7100;fill-opacity:1;stroke:#ed7100;stroke-width:0;stroke-dasharray:none;stroke-opacity:1"
         x="124.12758"
         y="98.14492"
         id="tspan10-3">Auto Scaling Group</tspan></text><text
       xml:space="preserve"
       style="font-size:3.52778px;text-align:start;writing-mode:lr-tb;direction:ltr;text-anchor:start;fill:#00a4a7;fill-opacity:1;stroke:#00a4a6;stroke-width:0.1;stroke-linecap:round;stroke-linejoin:round;stroke-dasharray:none;stroke-opacity:1"
       x="125.98733"
       y="54.092697"
       id="text3-3-8-7-3"
       inkscape:transform-center-x="3.6745791"
       inkscape:transform-center-y="-13.401406"><tspan
         sodipodi:role="line"
         style="font-size:3.52778px;fill:#00a4a7;fill-opacity:1;stroke:#000000;stroke-width:0.1;stroke-dasharray:none;stroke-opacity:1"
         x="125.98733"
         y="54.092697"
         id="tspan10-1">PrivS A</tspan><tspan
         sodipodi:role="line"
         style="font-size:3.52778px;fill:#00a4a7;fill-opacity:1;stroke:#000000;stroke-width:0.1;stroke-dasharray:none;stroke-opacity:1"
         x="125.98733"
         y="58.502422"
         id="tspan4">10.0.1.0/24</tspan></text><text
       xml:space="preserve"
       style="font-size:2.82222px;text-align:start;writing-mode:lr-tb;direction:ltr;text-anchor:start;fill:#dd344c;fill-opacity:1;stroke:#dd344c;stroke-width:0;stroke-linecap:round;stroke-linejoin:round;stroke-dasharray:none;stroke-opacity:1"
       x="54.283703"
       y="93.310669"
       id="text3-3-8-7-4"
       inkscape:transform-center-x="3.6745791"
       inkscape:transform-center-y="-13.401406"><tspan
         sodipodi:role="line"
         style="font-size:2.82222px;fill:#dd344c;fill-opacity:1;stroke:#dd344c;stroke-width:0;stroke-dasharray:none;stroke-opacity:1"
         x="54.283703"
         y="93.310669"
         id="tspan11">Bastion Security Group</tspan></text><g
       id="Icon-Architecture/48/Arch_Amazon-EC2-Auto-Scaling_48"
       stroke="none"
       stroke-width="1"
       fill="none"
       fill-rule="evenodd"
       transform="matrix(0.15625,0,0,0.15625,36.819816,85)"><g
         id="Icon-Architecture-BG/48/Compute-8"
         fill="#ed7100"><rect
           id="Rectangle-8"
           x="0"
           y="0"
           width="64"
           height="64" /></g><path
         d="m 54,31.430806 h -7.399671 l 3.30985,-3.310631 -1.421235,-1.421571 -5.736203,5.737556 5.736203,5.737556 1.421235,-1.421571 -3.30985,-3.310631 H 54 Z m -39.910179,-3.310631 3.30985,3.310631 H 10 v 2.010708 h 7.399671 l -3.30985,3.310631 1.421235,1.421571 5.736203,-5.737556 -5.736203,-5.737556 z M 25.856725,39.473639 H 37.918129 V 27.409389 H 25.856725 Z M 39.928363,26.404035 h 2.010234 v 2.010709 h -2.010234 v 2.010708 h 2.010234 v 2.010708 h -2.010234 v 2.010708 h 2.010234 v 2.010708 h -2.010234 v 2.010709 h 2.010234 v 2.010708 h -2.010234 v -0.6947 c 0,0.937995 -0.762884,1.700054 -1.698648,1.700054 h 0.693531 v 2.010708 h -2.010234 v -2.010708 h -2.010234 v 2.010708 H 32.892544 V 41.484347 H 30.88231 v 2.010708 h -2.010234 v -2.010708 h -2.010234 v 2.010708 h -2.010234 v -2.010708 h 0.693531 c -0.935764,0 -1.698648,-0.762059 -1.698648,-1.700054 v 0.6947 h -2.010234 v -2.010708 h 2.010234 v -2.010709 h -2.010234 v -2.010708 h 2.010234 V 32.43616 h -2.010234 v -2.010708 h 2.010234 v -2.010708 h -2.010234 v -2.010709 h 2.010234 v 0.6947 c 0,-0.937995 0.762884,-1.700054 1.698648,-1.700054 h -0.693531 v -2.010708 h 2.010234 v 2.010708 h 2.010234 v -2.010708 h 2.010234 v 2.010708 h 2.010234 v -2.010708 h 2.010234 v 2.010708 h 2.010234 v -2.010708 h 2.010234 v 2.010708 h -0.693531 c 0.935764,0 1.698648,0.762059 1.698648,1.700054 z m -7.035819,23.74747 V 44.500409 H 30.88231 v 5.651096 L 27.281981,46.550326 25.860746,47.971897 31.887427,54 37.914108,47.971897 36.492873,46.550326 Z M 27.204587,17.387015 25.93814,15.824694 31.887427,11 l 5.949287,4.824694 -1.266447,1.562321 -3.677723,-2.982886 v 6.973136 H 30.88231 v -6.973136 z"
         id="Amazon-EC2-Auto-Scaling_Icon_48_Squid"
         fill="#ffffff" /></g><path
       d="m 86.378236,102.64272 c 0.02956,-0.0293 0.0685,-0.0455 0.109865,-0.0455 h 2.32e-4 c 0.04182,0 0.08121,0.0162 0.110778,0.0457 0.02932,0.0296 0.04527,0.0685 0.04527,0.10987 v 4.5e-4 c 0,0.0418 -0.01618,0.081 -0.04575,0.11055 -0.02932,0.0293 -0.0685,0.0455 -0.110329,0.0455 h -2.24e-4 c -0.08598,0 -0.155587,-0.07 -0.155587,-0.15603 0,-0.0417 0.01618,-0.081 0.04575,-0.11056 z m -0.117379,0.67672 v 0.63919 h 0.454944 v -0.63851 c 0.07531,-0.0303 0.144899,-0.0753 0.20449,-0.13443 0.115328,-0.11533 0.178797,-0.26864 0.179021,-0.43197 4.57e-4,-0.16309 -0.06305,-0.31641 -0.178332,-0.43196 -0.115328,-0.11578 -0.269096,-0.17948 -0.432423,-0.17948 h -6.81e-4 c -0.336202,0 -0.609849,0.27388 -0.610298,0.61076 0,0.25659 0.159,0.47587 0.383279,0.5664 z m 1.788593,1.05091 -3.12338,-0.002 8.01e-4,-2.52674 3.123837,0.002 z m -2.327234,-3.55579 c 6.81e-4,-0.22451 0.0828,-0.43492 0.231561,-0.5921 0.144443,-0.15263 0.334608,-0.236567 0.535918,-0.236567 h 0.0024 c 0.42059,0.002 0.761335,0.377367 0.759981,0.838447 l -2.32e-4,0.56412 -1.53246,-6.9e-4 z m 2.556064,0.57435 -0.571402,-2.3e-4 2.33e-4,-0.56366 c 0.0024,-0.71129 -0.542287,-1.291807 -1.213546,-1.294077 h -0.004 c -0.327558,0 -0.635327,0.13443 -0.866432,0.37898 -0.228381,0.241567 -0.354854,0.562297 -0.355991,0.902817 l -0.0024,0.5748 -0.565032,-2.2e-4 c -0.06033,0 -0.11806,0.0241 -0.160818,0.0667 -0.04254,0.0428 -0.06666,0.10054 -0.06666,0.16082 l -8.01e-4,2.98166 c 0,0.12556 0.101676,0.22747 0.227468,0.22747 l 3.578315,0.002 c 0.125335,0 0.227468,-0.1019 0.227468,-0.22747 l 0.0016,-2.98144 c 0,-0.0601 -0.02411,-0.11805 -0.06666,-0.16082 -0.04278,-0.0425 -0.100539,-0.0667 -0.160819,-0.0667 z m -4.767971,-3.614252 c -0.09076,0 -0.164464,-0.0739 -0.164464,-0.16447 0,-0.0908 0.07371,-0.16468 0.164464,-0.16468 0.09076,0 0.164456,0.0739 0.164456,0.16468 0,0.0905 -0.07371,0.16447 -0.164456,0.16447 z m 0,-0.78409 c -0.341434,0 -0.619399,0.27796 -0.619399,0.61962 0,0.34144 0.277965,0.6194 0.619399,0.6194 0.341659,0 0.619392,-0.27796 0.619392,-0.6194 0,-0.34166 -0.277733,-0.61962 -0.619392,-0.61962 z m 0.323232,1.85705 c -0.09463,0.03 -0.158776,0.11784 -0.158776,0.21701 v 0.39762 c 0,0.06019 0.02411,0.118055 0.06666,0.160815 l 0.175152,0.17493 -0.175152,0.17539 c -0.04254,0.0425 -0.06666,0.100547 -0.06666,0.160827 v 0.22382 c 0,0.0605 0.02411,0.11828 0.06666,0.16082 l 0.175152,0.17516 -0.175152,0.17514 c -0.04254,0.0428 -0.06666,0.10076 -0.06666,0.16082 v 0.25044 l -0.187433,0.21427 -0.141487,-0.12146 v -2.308592 c 0,-0.0992 -0.06417,-0.18698 -0.158775,-0.21701 -0.440835,-0.13966 -0.737227,-0.54524 -0.737227,-1.00928 0,-0.58459 0.475637,-1.06046 1.060466,-1.06046 0.584589,0 1.060459,0.47587 1.060459,1.06046 0,0.46404 -0.296392,0.86962 -0.737227,1.00928 z m 0.565489,1.111205 c 0.08871,-0.0887 0.08871,-0.23272 0,-0.32165 l -0.269329,-0.269095 v -0.14695 c 0.542287,-0.24044 0.896003,-0.77681 0.896003,-1.38279 0,-0.83571 -0.679904,-1.51539 -1.515395,-1.51539 -0.835498,0 -1.515401,0.67968 -1.515401,1.51539 0,0.60598 0.353715,1.14235 0.896002,1.38279 v 2.256722 c 0,0.0664 0.02908,0.12943 0.0794,0.17265 l 0.391699,0.33597 c 0.04302,0.0369 0.09554,0.0548 0.148312,0.0548 0.06321,0 0.126016,-0.0261 0.171282,-0.0776 l 0.391932,-0.44812 c 0.03613,-0.0414 0.05616,-0.0946 0.05616,-0.14967 v -0.2418 l 0.269321,-0.26932 c 0.08871,-0.0889 0.08871,-0.23293 0,-0.32163 l -0.269321,-0.26933 v -0.0355 z m 4.447246,5.023647 c 0,0.10099 -0.08234,0.18334 -0.183339,0.18334 h -6.735135 c -0.10122,0 -0.183339,-0.0824 -0.183339,-0.18334 v -8.723442 c 0,-0.10123 0.08212,-0.18334 0.183339,-0.18334 h 6.735135 c 0.100995,0 0.183339,0.0821 0.183339,0.18334 z m -0.183339,-9.361722 h -6.735135 c -0.351889,0 -0.638275,0.28638 -0.638275,0.63828 v 8.723442 c 0,0.35189 0.286386,0.63827 0.638275,0.63827 h 6.735135 c 0.351889,0 0.638275,-0.28638 0.638275,-0.63827 v -8.723442 c 0,-0.3519 -0.286386,-0.63828 -0.638275,-0.63828 z"
       id="AWS-Identity-and-Access-Management_Data-Encryption-Key_-Resource-Icon_light-bg-9"
       fill="#dd344c"
       style="fill-rule:evenodd;stroke:none;stroke-width:0.227469" /><g
       id="Icon-Architecture/48/Arch_Amazon-EC2_48"
       stroke="none"
       stroke-width="1"
       fill="none"
       fill-rule="evenodd"
       transform="matrix(0.15625,0,0,0.15625,59.931173,95.703161)"><g
         id="Icon-Architecture-BG/48/Compute"
         fill="#ed7100"><rect
           id="Rectangle-29"
           x="0"
           y="0"
           width="64"
           height="64" /></g><path
         d="M 22,41 H 41 V 23 H 22 Z M 43,23 h 3 v 2 h -3 v 2 h 3 v 2 h -3 v 2 h 3 v 2 h -3 v 3 h 3 v 2 h -3 v 2 h 3 v 2 h -3.137 c -0.255,0.587 -0.84,1 -1.519,1 H 41 v 3 h -2 v -3 h -2 v 3 h -2 v -3 h -2 v 3 h -2 v -3 h -2 v 3 h -2 v -3 h -3 v 3 h -2 v -3 h -0.344 c -0.679,0 -1.264,-0.413 -1.519,-1 H 18 v -2 h 2 v -2 h -2 v -2 h 2 v -3 h -2 v -2 h 2 v -2 h -2 v -2 h 2 v -2 h -2 v -2 h 2 V 22.656 C 20,21.743 20.743,21 21.656,21 H 22 v -3 h 2 v 3 h 3 v -3 h 2 v 3 h 2 v -3 h 2 v 3 h 2 v -3 h 2 v 3 h 2 v -3 h 2 v 3 h 0.344 C 42.257,21 43,21.743 43,22.656 Z M 32,52 H 12 V 32 h 4 V 30 H 11.843 C 10.826,30 10,30.827 10,31.843 V 52.157 C 10,53.173 10.826,54 11.843,54 H 32.157 C 33.174,54 34,53.173 34,52.157 V 48 H 32 Z M 54,11.843 V 32.157 C 54,33.173 53.174,34 52.157,34 H 48 v -2 h 4 V 12 H 32 v 4 H 30 V 11.843 C 30,10.827 30.826,10 31.843,10 H 52.157 C 53.174,10 54,10.827 54,11.843 Z"
         id="Amazon-EC2_Icon_48_Squid"
         fill="#ffffff" /></g><rect
       style="mix-blend-mode:normal;fill:#8e51f9;fill-opacity:0.25;stroke:#dd344c;stroke-width:0.234736;stroke-linejoin:round;stroke-dasharray:none;stroke-dashoffset:0;stroke-opacity:1"
       id="rect3-7-06-4-8-5"
       width="19.197418"
       height="25.380461"
       x="78.411491"
       y="59.990723" /><text
       xml:space="preserve"
       style="font-size:2.82222px;text-align:start;writing-mode:lr-tb;direction:ltr;text-anchor:start;fill:#000000;fill-opacity:1;stroke:#000000;stroke-width:0;stroke-linecap:round;stroke-linejoin:round;stroke-dasharray:none;stroke-opacity:1"
       x="78.882225"
       y="82.604469"
       id="text3-73"><tspan
         sodipodi:role="line"
         style="font-size:2.82222px;stroke-width:0;stroke-dasharray:none"
         x="78.882225"
         y="82.604469"
         id="tspan19">ITLB</tspan></text><text
       xml:space="preserve"
       style="font-size:2.82222px;text-align:start;writing-mode:lr-tb;direction:ltr;text-anchor:start;fill:#000000;fill-opacity:1;stroke:#000000;stroke-width:0;stroke-linecap:round;stroke-linejoin:round;stroke-dasharray:none;stroke-opacity:1"
       x="58.671558"
       y="107.87505"
       id="text3-73-6"><tspan
         sodipodi:role="line"
         style="font-size:2.82222px;stroke-width:0;stroke-dasharray:none"
         x="58.671558"
         y="107.87505"
         id="tspan19-6">Bastion </tspan><tspan
         sodipodi:role="line"
         style="font-size:2.82222px;stroke-width:0;stroke-dasharray:none"
         x="58.671558"
         y="111.40283"
         id="tspan22">Host AZ1</tspan><tspan
         sodipodi:role="line"
         style="font-size:2.82222px;stroke-width:0;stroke-dasharray:none"
         x="58.671558"
         y="114.9306"
         id="tspan21" /></text><text
       xml:space="preserve"
       style="font-size:2.82222px;text-align:start;writing-mode:lr-tb;direction:ltr;text-anchor:start;fill:#000000;fill-opacity:1;stroke:#000000;stroke-width:0;stroke-linecap:round;stroke-linejoin:round;stroke-dasharray:none;stroke-opacity:1"
       x="37.830322"
       y="99.277641"
       id="text3-73-6-3"><tspan
         sodipodi:role="line"
         style="font-size:2.82222px;stroke-width:0;stroke-dasharray:none"
         x="37.830322"
         y="99.277641"
         id="tspan21-2">ASP</tspan></text><text
       xml:space="preserve"
       style="font-size:2.82222px;text-align:start;writing-mode:lr-tb;direction:ltr;text-anchor:start;fill:#000000;fill-opacity:1;stroke:#000000;stroke-width:0;stroke-linecap:round;stroke-linejoin:round;stroke-dasharray:none;stroke-opacity:1"
       x="80.359833"
       y="109.75786"
       id="text3-73-6-5"><tspan
         sodipodi:role="line"
         style="font-size:2.82222px;stroke-width:0;stroke-dasharray:none"
         x="80.359833"
         y="109.75786"
         id="tspan21-4">Public</tspan><tspan
         sodipodi:role="line"
         style="font-size:2.82222px;stroke-width:0;stroke-dasharray:none"
         x="80.359833"
         y="113.28564"
         id="tspan26">Key</tspan></text><text
       xml:space="preserve"
       style="font-size:2.82222px;text-align:start;writing-mode:lr-tb;direction:ltr;text-anchor:start;fill:#dd344c;fill-opacity:1;stroke:#dd344c;stroke-width:0;stroke-linecap:round;stroke-linejoin:round;stroke-dasharray:none;stroke-opacity:1"
       x="79.042999"
       y="63.532951"
       id="text3-3-8-7-4-9"
       inkscape:transform-center-x="3.6745791"
       inkscape:transform-center-y="-13.401406"><tspan
         sodipodi:role="line"
         style="font-size:2.82222px;fill:#dd344c;fill-opacity:1;stroke:#dd344c;stroke-width:0;stroke-dasharray:none;stroke-opacity:1"
         x="79.042999"
         y="63.532951"
         id="tspan12">ALB Security </tspan><tspan
         sodipodi:role="line"
         style="font-size:2.82222px;fill:#dd344c;fill-opacity:1;stroke:#dd344c;stroke-width:0;stroke-dasharray:none;stroke-opacity:1"
         x="79.042999"
         y="67.06073"
         id="tspan20">Group</tspan></text><path
       d="m 89.411265,75.700053 h 0.53294 v -0.53976 h -0.53294 z m -1.57701,0 h 0.53976 v -0.53976 h -0.53976 z m -1.78973,0 h 0.53976 v -0.53976 h -0.53976 z m -1.57042,0 h 0.5193 v -0.53976 h -0.5193 z m 1.37156,-3.977183 h 2.72721 v -1.335197 h -2.72721 z m 4.32581,2.98289 h -0.34863 v -0.767034 c 0,-0.125673 -0.10182,-0.227266 -0.22727,-0.227266 h -0.56817 v -0.767027 c 0,-0.125679 -0.10181,-0.227267 -0.22726,-0.227267 h -1.36361 v -0.539761 h 1.36361 c 0.12545,0 0.22726,-0.101588 0.22726,-0.227267 v -1.789733 c 0,-0.125679 -0.10181,-0.227267 -0.22726,-0.227267 h -3.18175 c -0.12568,0 -0.22727,0.101588 -0.22727,0.227267 v 1.789733 c 0,0.125679 0.10159,0.227267 0.22727,0.227267 h 1.3636 v 0.539761 h -1.3636 c -0.12568,0 -0.22727,0.101588 -0.22727,0.227267 v 0.767027 h -0.56817 c -0.12567,0 -0.22726,0.101593 -0.22726,0.227266 v 0.767034 h -0.34909 c -0.12545,0 -0.22727,0.101586 -0.22727,0.227266 v 0.994294 c 0,0.12568 0.10182,0.227273 0.22727,0.227273 h 0.97407 c 0.12545,0 0.22727,-0.101593 0.22727,-0.227273 v -0.994294 c 0,-0.12568 -0.10182,-0.227266 -0.22727,-0.227266 h -0.17045 V 74.166 h 0.93748 v 0.53976 h -0.17046 c -0.12567,0 -0.22726,0.101586 -0.22726,0.227266 v 0.994294 c 0,0.12568 0.10159,0.227273 0.22726,0.227273 h 0.99431 c 0.12545,0 0.22726,-0.101593 0.22726,-0.227273 v -0.994294 c 0,-0.12568 -0.10181,-0.227266 -0.22726,-0.227266 h -0.36931 v -0.767034 c 0,-0.125673 -0.10182,-0.227266 -0.22728,-0.227266 h -0.3693 V 73.1717 h 2.72721 v 0.53976 h -0.36931 c -0.12568,0 -0.22726,0.101593 -0.22726,0.227266 v 0.767034 h -0.36932 c -0.12568,0 -0.22727,0.101586 -0.22727,0.227266 v 0.994294 c 0,0.12568 0.10159,0.227273 0.22727,0.227273 h 0.9943 c 0.12545,0 0.22726,-0.101593 0.22726,-0.227273 v -0.994294 c 0,-0.12568 -0.10181,-0.227266 -0.22726,-0.227266 h -0.17046 V 74.166 h 0.93748 v 0.53976 h -0.18431 c -0.12567,0 -0.22727,0.101586 -0.22727,0.227266 v 0.994294 c 0,0.12568 0.1016,0.227273 0.22727,0.227273 h 0.98748 c 0.12545,0 0.22727,-0.101593 0.22727,-0.227273 v -0.994294 c 0,-0.12568 -0.10182,-0.227266 -0.22727,-0.227266 z m -2.96221,3.181746 c -2.50653,0 -4.54557,-2.039046 -4.54557,-4.545354 0,-2.506307 2.03904,-4.545352 4.54557,-4.545352 2.50631,0 4.54535,2.039045 4.54535,4.545352 0,2.506308 -2.03904,4.545354 -4.54535,4.545354 z m 0,-9.545241 c -2.75721,0 -5.00011,2.242903 -5.00011,4.999887 0,2.756988 2.2429,4.999888 5.00011,4.999888 2.75676,0 4.99989,-2.2429 4.99989,-4.999888 0,-2.756984 -2.24313,-4.999887 -4.99989,-4.999887 z"
       id="AWS-Elastic-Load-Balancing_-Application-Load-Balancer_Resource-Icon_light-bg"
       fill="#8c4fff"
       style="fill-rule:evenodd;stroke:none;stroke-width:0.227267" /><path
       d="m 26.479954,96.759727 h -0.341152 v -4.025502 c 0,-0.0895 -0.05261,-0.170804 -0.134138,-0.20747 l -0.02095,-0.0096 c -0.45753,-0.206557 -0.930999,-0.420404 -1.611482,-0.420404 -0.711226,0 -1.233203,0.229787 -1.749258,0.485993 -0.07743,0.03848 -0.126396,0.117513 -0.126396,0.204053 v 3.972896 H 22.1634 v -4.296512 c 0.554316,-0.450693 1.35345,-0.707583 2.211114,-0.707583 0.797313,0 1.557504,0.227057 2.105442,0.625827 z m -2.105442,-5.459572 c -1.007743,0 -1.951491,0.323164 -2.589615,0.887044 -0.04896,0.04305 -0.07698,0.105213 -0.07698,0.170576 v 4.629692 c 0,0.12594 0.1018,0.22774 0.227739,0.22774 h 0.788659 c 0.125939,0 0.227738,-0.1018 0.227738,-0.22774 v -4.058752 c 0.43703,-0.211114 0.860624,-0.376454 1.420177,-0.376454 0.531771,0 0.91847,0.153724 1.311092,0.32931 v 4.105896 c 0,0.12594 0.101798,0.22774 0.227738,0.22774 h 0.796629 c 0.12594,0 0.227739,-0.1018 0.227739,-0.22774 v -4.718738 c 0,-0.06923 -0.03166,-0.134824 -0.08609,-0.17832 -0.631746,-0.502164 -1.533818,-0.790254 -2.474833,-0.790254 z m -0.05283,7.447959 c -2.505579,0 -4.544522,-2.038713 -4.544522,-4.544519 0,-2.505806 2.038943,-4.544296 4.544522,-4.544296 2.505808,0 4.544523,2.03849 4.544523,4.544296 0,2.505806 -2.038715,4.544519 -4.544523,4.544519 z m 0,-9.544292 c -2.757002,0 -4.999999,2.242997 -4.999999,4.999773 0,2.757226 2.242997,4.999999 4.999999,4.999999 2.757003,0 5.000001,-2.242773 5.000001,-4.999999 0,-2.756776 -2.242998,-4.999773 -5.000001,-4.999773 z"
       id="AWS-Amazon-VPC_Internet-gateway_Resource-Icon_light-bg"
       fill="#8c4fff"
       style="fill-rule:evenodd;stroke:none;stroke-width:0.227738" /><g
       id="Icon-Architecture-Group/32/Auto-Scaling-group_32"
       stroke="none"
       stroke-width="1"
       fill="none"
       fill-rule="evenodd"
       transform="matrix(0.26458333,0,0,0.26458333,111.21534,88.952802)"><rect
         id="Rectangle"
         fill="#ed7100"
         x="0"
         y="0"
         width="40"
         height="40" /><path
         d="m 18.021,19.495254 c 0,-0.155 -0.071,-0.297 -0.188,-0.391 l -2.954,-2.953 -0.707,0.707 2.138,2.137 H 7 v 1 h 9.314 l -2.142,2.142 0.707,0.707 2.969,-2.969 c 0.108,-0.094 0.173,-0.232 0.173,-0.38 z m 15.965,-0.5 h -9.311 l 2.138,-2.137 -0.707,-0.707 -2.969,2.969 c -0.107,0.093 -0.173,0.231 -0.173,0.379 0,0.155 0.072,0.298 0.189,0.391 l 2.953,2.954 0.707,-0.707 -2.142,-2.142 h 9.315 z m -12.99,12.329 v -9.314 h -1 v 9.31 l -2.138,-2.137 -0.707,0.707 2.969,2.967 c 0.093,0.109 0.232,0.175 0.38,0.175 0.156,0 0.3,-0.073 0.393,-0.191 l 2.951,-2.951 -0.707,-0.707 z m -3.138,-21.4870002 -0.707,-0.707 2.952,-2.951 c 0.182,-0.232 0.58,-0.24 0.774,-0.017 l 2.967,2.968 -0.707,0.707 -2.141,-2.141 v 9.3140002 h -1 V 7.7002538 Z"
         id="Fill-1"
         fill="#ffffff" /></g><rect
       style="fill:#00a6a8;fill-opacity:0.5;stroke:#00a4a6;stroke-width:0.17442;stroke-linejoin:round;stroke-dasharray:none;stroke-dashoffset:0;stroke-opacity:1"
       id="rect3-7-06-4-9"
       width="64.027039"
       height="61.346718"
       x="103.06798"
       y="104.01784" /><g
       id="Icon-Architecture-Group/32/Private-subnet_32"
       stroke="none"
       stroke-width="1"
       fill="none"
       fill-rule="evenodd"
       transform="matrix(0.26458333,0,0,0.26458333,102.98076,103.93063)"><rect
         id="Rectangle-26"
         fill="#00a4a6"
         x="0"
         y="0"
         width="40"
         height="40" /><path
         d="m 19.536,22.049 c 1.106,0 2.006,0.899 2.006,2.005 0,1.106 -0.9,2.006 -2.006,2.006 -1.106,0 -2.006,-0.9 -2.006,-2.006 0,-1.106 0.9,-2.005 2.006,-2.005 z m -0.524,4.958 v 3.494 h 1 v -3.489 c 1.43,-0.23 2.53,-1.463 2.53,-2.958 0,-1.657 -1.349,-3.005 -3.006,-3.005 -1.657,0 -3.006,1.348 -3.006,3.005 0,1.478 1.074,2.703 2.482,2.953 z M 10,33.014 H 29.012 V 18 H 10 Z m 4.046,-20.53 C 14.046,9.46 16.506,7 19.529,7 c 3.024,0 5.483,2.46 5.483,5.484 V 17 H 14.046 Z M 29.512,17 h -3.5 V 12.484 C 26.012,8.908 23.103,6 19.529,6 15.954,6 13.046,8.908 13.046,12.484 V 17 H 9.5 C 9.223,17 9,17.224 9,17.5 v 16.014 c 0,0.276 0.223,0.5 0.5,0.5 h 20.012 c 0.276,0 0.5,-0.224 0.5,-0.5 V 17.5 c 0,-0.276 -0.224,-0.5 -0.5,-0.5 z"
         id="Fill-1-10"
         fill="#ffffff" /></g><path
       d="m 114.06532,146.58962 c -2.50636,0 -4.54545,-2.03909 -4.54545,-4.54546 0,-2.50636 2.03909,-4.54545 4.54545,-4.54545 2.50637,0 4.54546,2.03909 4.54546,4.54545 0,2.50637 -2.03909,4.54546 -4.54546,4.54546 z m 0,-9.54546 c -2.75704,0 -5,2.24296 -5,5 0,2.75705 2.24296,5 5,5 2.75705,0 5,-2.24295 5,-5 0,-2.75704 -2.24295,-5 -5,-5 z m -1.53841,7.55682 h -1.21704 l 1.44204,-3.02068 0.60932,1.2575 z m 0.42796,-3.64432 c -0.0382,-0.0784 -0.1175,-0.12818 -0.20455,-0.12818 h -6.7e-4 c -0.0875,2.3e-4 -0.16681,0.0507 -0.20431,0.12955 l -1.80069,3.77227 c -0.0339,0.0704 -0.0289,0.15318 0.0127,0.21909 0.0416,0.0661 0.11409,0.10614 0.19227,0.10614 h 1.72113 c 0.088,0 0.16796,-0.0507 0.20569,-0.13 l 0.94227,-1.99159 c 0.0293,-0.062 0.0291,-0.13455 -6.6e-4,-0.19637 z m 3.86614,3.64432 h -1.2391 l -2.25272,-4.84022 c -0.0373,-0.08 -0.11773,-0.13137 -0.20614,-0.13137 h -0.81886 l 6.6e-4,-0.9375 h 1.64091 l 2.24182,4.83977 c 0.0373,0.0802 0.1175,0.13182 0.20614,0.13182 h 0.42704 z m 0.22727,-1.39204 h -0.50909 l -2.24182,-4.83978 c -0.0375,-0.0802 -0.11773,-0.13181 -0.20636,-0.13181 h -2.01296 c -0.12546,0 -0.22704,0.10159 -0.22727,0.22704 l -0.001,1.39205 c 0,0.0605 0.0239,0.11818 0.0666,0.16091 0.0425,0.0427 0.10022,0.0666 0.16068,0.0666 h 0.90159 l 2.25273,4.84022 c 0.0373,0.08 0.1175,0.13137 0.2059,0.13137 h 1.61137 c 0.12568,0 0.22727,-0.10159 0.22727,-0.22728 v -1.39204 c 0,-0.12568 -0.10159,-0.22727 -0.22727,-0.22727 z"
       id="Amazon-Lambda-Lambda-Function_Resource-Icon_light-bg-4"
       fill="#ed7100"
       style="fill-rule:evenodd;stroke:none;stroke-width:0.227273" /><path
       d="m 130.13404,148.20973 c -2.50636,0 -4.54544,-2.03909 -4.54544,-4.54546 0,-2.50636 2.03908,-4.54545 4.54544,-4.54545 2.50637,0 4.54546,2.03909 4.54546,4.54545 0,2.50637 -2.03909,4.54546 -4.54546,4.54546 z m 0,-9.54546 c -2.75704,0 -4.99999,2.24296 -4.99999,5 0,2.75705 2.24295,5 4.99999,5 2.75705,0 5,-2.24295 5,-5 0,-2.75704 -2.24295,-5 -5,-5 z m -1.53841,7.55682 h -1.21704 l 1.44204,-3.02068 0.60932,1.2575 z m 0.42796,-3.64432 c -0.0382,-0.0784 -0.1175,-0.12818 -0.20455,-0.12818 h -6.7e-4 c -0.0875,2.3e-4 -0.16681,0.0507 -0.20431,0.12955 l -1.80069,3.77227 c -0.0339,0.0704 -0.0289,0.15318 0.0127,0.21909 0.0416,0.0661 0.11409,0.10614 0.19227,0.10614 h 1.72113 c 0.088,0 0.16796,-0.0507 0.20569,-0.13 l 0.94227,-1.99159 c 0.0293,-0.062 0.0291,-0.13455 -6.6e-4,-0.19637 z m 3.86614,3.64432 h -1.2391 l -2.25272,-4.84022 c -0.0373,-0.08 -0.11773,-0.13137 -0.20614,-0.13137 h -0.81886 l 6.6e-4,-0.9375 h 1.64091 l 2.24182,4.83977 c 0.0373,0.0802 0.1175,0.13182 0.20614,0.13182 h 0.42704 z m 0.22727,-1.39204 h -0.50909 l -2.24182,-4.83978 c -0.0375,-0.0802 -0.11773,-0.13181 -0.20636,-0.13181 h -2.01296 c -0.12546,0 -0.22704,0.10159 -0.22727,0.22704 l -0.001,1.39205 c 0,0.0605 0.0239,0.11818 0.0666,0.16091 0.0425,0.0427 0.10022,0.0666 0.16068,0.0666 h 0.90159 l 2.25273,4.84022 c 0.0373,0.08 0.1175,0.13137 0.2059,0.13137 h 1.61137 c 0.12568,0 0.22727,-0.10159 0.22727,-0.22728 v -1.39204 c 0,-0.12568 -0.10159,-0.22727 -0.22727,-0.22727 z"
       id="Amazon-Lambda-Lambda-Function_Resource-Icon_light-bg-4-9"
       fill="#ed7100"
       style="fill-rule:evenodd;stroke:none;stroke-width:0.227273" /><path
       d="m 127.03089,126.7234 c -2.50636,0 -4.54545,-2.03909 -4.54545,-4.54546 0,-2.50636 2.03909,-4.54545 4.54545,-4.54545 2.50637,0 4.54546,2.03909 4.54546,4.54545 0,2.50637 -2.03909,4.54546 -4.54546,4.54546 z m 0,-9.54546 c -2.75704,0 -5,2.24296 -5,5 0,2.75705 2.24296,5 5,5 2.75705,0 5,-2.24295 5,-5 0,-2.75704 -2.24295,-5 -5,-5 z m -1.53841,7.55682 h -1.21704 l 1.44204,-3.02068 0.60932,1.2575 z m 0.42796,-3.64432 c -0.0382,-0.0784 -0.1175,-0.12818 -0.20455,-0.12818 h -6.7e-4 c -0.0875,2.3e-4 -0.16681,0.0507 -0.20431,0.12955 l -1.80069,3.77227 c -0.0339,0.0704 -0.0289,0.15318 0.0127,0.21909 0.0416,0.0661 0.11409,0.10614 0.19227,0.10614 h 1.72113 c 0.088,0 0.16796,-0.0507 0.20569,-0.13 l 0.94227,-1.99159 c 0.0293,-0.062 0.0291,-0.13455 -6.6e-4,-0.19637 z m 3.86614,3.64432 h -1.2391 l -2.25272,-4.84022 c -0.0373,-0.08 -0.11773,-0.13137 -0.20614,-0.13137 h -0.81886 l 6.6e-4,-0.9375 h 1.64091 l 2.24182,4.83977 c 0.0373,0.0802 0.1175,0.13182 0.20614,0.13182 h 0.42704 z m 0.22727,-1.39204 h -0.50909 l -2.24182,-4.83978 c -0.0375,-0.0802 -0.11773,-0.13181 -0.20636,-0.13181 h -2.01296 c -0.12546,0 -0.22704,0.10159 -0.22727,0.22704 l -0.001,1.39205 c 0,0.0605 0.0239,0.11818 0.0666,0.16091 0.0425,0.0427 0.10022,0.0666 0.16068,0.0666 h 0.90159 l 2.25273,4.84022 c 0.0373,0.08 0.1175,0.13137 0.2059,0.13137 h 1.61137 c 0.12568,0 0.22727,-0.10159 0.22727,-0.22728 V 123.57 c 0,-0.12568 -0.10159,-0.22727 -0.22727,-0.22727 z"
       id="Amazon-Lambda-Lambda-Function_Resource-Icon_light-bg-4-2"
       fill="#ed7100"
       style="fill-rule:evenodd;stroke:none;stroke-width:0.227273" /><path
       d="m 144.50354,137.76913 c -2.50636,0 -4.54545,-2.03909 -4.54545,-4.54546 0,-2.50636 2.03909,-4.54545 4.54545,-4.54545 2.50638,0 4.54546,2.03909 4.54546,4.54545 0,2.50637 -2.03908,4.54546 -4.54546,4.54546 z m 0,-9.54546 c -2.75704,0 -5,2.24296 -5,5 0,2.75705 2.24296,5 5,5 2.75706,0 5,-2.24295 5,-5 0,-2.75704 -2.24294,-5 -5,-5 z m -1.53841,7.55682 h -1.21704 l 1.44204,-3.02068 0.60932,1.2575 z m 0.42796,-3.64432 c -0.0382,-0.0784 -0.1175,-0.12818 -0.20455,-0.12818 h -6.7e-4 c -0.0875,2.3e-4 -0.16681,0.0507 -0.20431,0.12955 l -1.80069,3.77227 c -0.0339,0.0704 -0.0289,0.15318 0.0127,0.21909 0.0416,0.0661 0.11409,0.10614 0.19227,0.10614 h 1.72113 c 0.088,0 0.16796,-0.0507 0.20569,-0.13 l 0.94227,-1.99159 c 0.0293,-0.062 0.0291,-0.13455 -6.6e-4,-0.19637 z m 3.86615,3.64432 h -1.2391 l -2.25273,-4.84022 c -0.0373,-0.08 -0.11773,-0.13137 -0.20614,-0.13137 h -0.81886 l 6.6e-4,-0.9375 h 1.64091 l 2.24183,4.83977 c 0.0373,0.0802 0.1175,0.13182 0.20614,0.13182 h 0.42704 z m 0.22727,-1.39204 h -0.50909 l -2.24182,-4.83978 c -0.0375,-0.0802 -0.11773,-0.13181 -0.20637,-0.13181 h -2.01296 c -0.12546,0 -0.22704,0.10159 -0.22727,0.22704 l -10e-4,1.39205 c 0,0.0605 0.0239,0.11818 0.0666,0.16091 0.0425,0.0427 0.10022,0.0666 0.16068,0.0666 h 0.90159 l 2.25274,4.84022 c 0.0373,0.08 0.1175,0.13137 0.2059,0.13137 h 1.61137 c 0.12568,0 0.22727,-0.10159 0.22727,-0.22728 v -1.39204 c 0,-0.12568 -0.10159,-0.22727 -0.22727,-0.22727 z"
       id="Amazon-Lambda-Lambda-Function_Resource-Icon_light-bg-4-1"
       fill="#ed7100"
       style="fill-rule:evenodd;stroke:none;stroke-width:0.227273" /><g
       id="Icon-Architecture/48/Arch_Amazon-DynamoDB_48"
       stroke="none"
       stroke-width="1"
       fill="none"
       fill-rule="evenodd"
       transform="matrix(0.15625,0,0,0.15625,153.16639,107.27719)"><g
         id="Icon-Architecture-BG/48/Database"
         fill="#c925d1"><rect
           id="Rectangle-9"
           x="0"
           y="0"
           width="64"
           height="64" /></g><path
         d="m 46.585829,25.249276 h -3.584982 c -0.327998,0 -0.634996,-0.162753 -0.821995,-0.434682 -0.186999,-0.272941 -0.229999,-0.620687 -0.114,-0.93103 l 2.492987,-6.721408 h -8.912953 l -4.090978,9.09801 h 4.446976 c 0.320999,0 0.622997,0.155677 0.811996,0.420531 0.186999,0.262831 0.238999,0.601479 0.135999,0.909801 l -3.65998,11.100583 z m 3.120983,-0.296191 -17.998905,18.196021 c -0.191999,0.195102 -0.448998,0.296191 -0.706996,0.296191 -0.181999,0 -0.362999,-0.04953 -0.524998,-0.150623 -0.394998,-0.246657 -0.570997,-0.734917 -0.422997,-1.179708 l 4.559976,-13.83302 h -4.611976 c -0.339998,0 -0.655997,-0.174884 -0.840996,-0.462987 -0.182999,-0.290126 -0.209999,-0.653035 -0.069,-0.966411 l 4.999973,-11.119791 c 0.161999,-0.360887 0.516998,-0.592381 0.909996,-0.592381 h 10.999942 c 0.327998,0 0.634996,0.162753 0.821995,0.434683 0.187,0.27294 0.229999,0.620686 0.115,0.931029 l -2.493987,6.721408 h 4.555976 c 0.403998,0 0.769996,0.246657 0.923995,0.623719 0.154999,0.378073 0.069,0.812756 -0.216998,1.10187 z m -8.705954,19.266554 c -2.709986,1.886321 -7.68696,2.882047 -12.467934,2.882047 -4.815975,0 -9.836949,-1.008868 -12.532934,-2.923494 l 9.99e-4,3.81611 c 0,1.663925 4.767975,3.983918 12.531935,3.983918 7.49496,0 12.467934,-2.702109 12.467934,-4.489363 z m 2.063989,-3.269219 c 0,0.187015 -0.032,0.366954 -0.064,0.545881 v 5.992556 C 43.000847,51.079539 36.510882,54 28.532924,54 21.62996,54 14.661997,52.110647 14.06,48.499747 H 14.001 L 14,43.445297 V 30.303726 16.151266 h 10e-4 C 14.001,12.155218 21.487961,10 28.532924,10 c 3.940979,0 7.729959,0.639893 10.396945,1.755916 l -0.765996,1.868125 c -2.431987,-1.018977 -5.942969,-1.602261 -9.630949,-1.602261 -7.76396,0 -12.531935,2.404908 -12.531935,4.129486 0,1.724578 4.767975,4.129486 12.531935,4.129486 0.194999,0 0.398998,0.001 0.595996,-0.0071 l 0.078,2.019759 c -0.224999,0.0091 -0.448998,0.0091 -0.673996,0.0091 -4.816975,0 -9.836949,-1.008868 -12.532934,-2.923494 v 4.357947 h 9.99e-4 v 0.01718 c 0.005,0.529706 0.488998,1.143317 1.363993,1.719524 1.98199,1.287874 5.549971,2.168359 9.53895,2.35133 l -0.091,2.019758 c -4.125979,-0.190047 -7.74996,-1.06851 -10.085947,-2.416027 -0.309999,0.298213 -0.725997,1.05638 -0.725997,1.466802 0,1.724578 4.767975,4.129485 12.531935,4.129485 0.737996,0 1.464992,-0.02527 2.161988,-0.0748 l 0.141,2.016725 c -0.743997,0.05358 -1.518993,0.07986 -2.302988,0.07986 -4.816975,0 -9.836949,-1.008869 -12.532934,-2.923494 v 3.66953 h 9.99e-4 c 0.005,0.546892 0.488998,1.160502 1.363993,1.73671 2.267988,1.474888 6.548966,2.393787 11.167942,2.393787 h 0.329998 v 2.02178 h -0.329998 c -4.777975,0 -9.859949,-1.007857 -12.531935,-2.543399 -0.321998,0.298213 0,1.01089 0,1.548683 0,1.724579 4.767975,4.129486 12.531935,4.129486 7.764959,0 12.531934,-2.404907 12.531934,-4.129486 0,-0.609566 -0.598997,-1.174654 -1.091994,-1.538574 -0.408998,0.246657 -0.858996,0.483205 -1.371993,0.699536 l -0.767996,-1.867114 c 0.530997,-0.223407 0.989995,-0.462988 1.363993,-0.711667 1.100994,-0.733906 1.80399,-1.778155 1.80399,-2.174424 h 1.999989 c 0,0.940127 -0.620996,1.946974 -1.416992,2.774893 1.191994,1.040206 1.480992,2.07839 1.480992,2.81735 z m -25.922864,7.438129 c 0.790996,0.4084 1.715991,0.77232 2.751986,1.080642 l 0.563997,-1.939898 c -0.915995,-0.27193 -1.725991,-0.589349 -2.405987,-0.941139 z m 2.751986,-11.050039 0.563997,-1.938887 c -0.915995,-0.27294 -1.725991,-0.589349 -2.405987,-0.941138 l -0.909996,1.799384 c 0.790996,0.40941 1.715991,0.77232 2.751986,1.080641 z m -2.751986,-13.210311 0.909996,-1.800395 c 0.679996,0.35179 1.489992,0.668198 2.405987,0.941139 l -0.563997,1.939898 c -1.035995,-0.308322 -1.96099,-0.672242 -2.751986,-1.080642 z"
         id="Amazon-DynamoDB_Icon_48_Squid"
         fill="#ffffff" /></g><g
       style="fill:none"
       id="g12"
       transform="matrix(0.15625,0,0,0.15625,104.46249,118.74568)"><g
         id="Icon-Architecture/48/Arch_Amazon-API-Gateway_48"><g
           id="Icon-Architecture-BG/48/Networking-Content-Delivery"><rect
             id="Rectangle-0"
             width="64"
             height="64"
             fill="#8c4fff"
             x="0"
             y="0" /></g><g
           id="Icon-Service/48/Amazon-API-Gateway_48"><path
             id="Amazon-API-Gateway_Icon_48_Squid"
             fill-rule="evenodd"
             clip-rule="evenodd"
             d="m 28,43.9999 h 3 v -2 h -3 z m 5,0 h 3 v -2 H 33 Z M 28,21.9998 h 3 v -2 h -3 z m 5,0 h 3 v -2 h -3 z m -11,-9.259 -10,5.833 V 46.382 l 10,5 z m 2,7.259 h 2 v 2 h -2 v 20.0001 h 2 v 2 H 24 V 53 c 0,0.347 -0.18,0.668 -0.475,0.851 C 23.365,53.95 23.183,54 23,54 22.847,54 22.694,53.965 22.553,53.895 l -12,-6 C 10.214,47.725 10,47.379 10,47 V 17.9998 c 0,-0.355 0.188,-0.685 0.496,-0.864 l 12,-7 c 0.309,-0.18005 0.692,-0.18105 1.002,-0.003 0.311,0.178 0.502,0.509 0.502,0.867 z m 28,-1.426 -10,-5.833 V 51.382 l 10,-5 z m 2,-0.574 V 47 c 0,0.379 -0.214,0.725 -0.553,0.895 l -12,6 C 41.306,53.965 41.153,54 41,54 40.817,54 40.635,53.95 40.475,53.851 40.18,53.668 40,53.347 40,53 v -9.0001 h -2 v -2 h 2 V 21.9998 h -2 v -2 h 2 v -9 c 0,-0.358 0.191,-0.689 0.502,-0.867 0.31,-0.17705 0.693,-0.17705 1.002,0.003 l 12,7 c 0.308,0.179 0.496,0.509 0.496,0.864 z m -19.061,9.3421 -1.878,-0.6841 -4,11.0001 1.878,0.684 z m 4.768,5.365 c 0.391,-0.391 0.391,-1.023 0,-1.414 l -3,-3 -1.414,1.414 2.293,2.293 -2.293,2.293 1.414,1.414 z m -12.414,3 -3,-3 c -0.391,-0.391 -0.391,-1.023 0,-1.414 l 3,-3 1.414,1.414 -2.293,2.293 2.293,2.293 z"
             fill="#ffffff" /></g></g></g><text
       xml:space="preserve"
       style="font-size:3.52778px;text-align:start;writing-mode:lr-tb;direction:ltr;text-anchor:start;fill:#00a4a7;fill-opacity:1;stroke:#00a4a6;stroke-width:0.1;stroke-linecap:round;stroke-linejoin:round;stroke-dasharray:none;stroke-opacity:1"
       x="114.36404"
       y="108.90243"
       id="text3-3-8-7-3-0"
       inkscape:transform-center-x="3.6745791"
       inkscape:transform-center-y="-13.401406"><tspan
         sodipodi:role="line"
         style="font-size:3.52778px;fill:#00a4a7;fill-opacity:1;stroke:#000000;stroke-width:0.1;stroke-dasharray:none;stroke-opacity:1"
         x="114.36404"
         y="108.90243"
         id="tspan10-1-0">PrivS C</tspan><tspan
         sodipodi:role="line"
         style="font-size:3.52778px;fill:#00a4a7;fill-opacity:1;stroke:#000000;stroke-width:0.1;stroke-dasharray:none;stroke-opacity:1"
         x="114.36404"
         y="113.31215"
         id="tspan4-4">10.0.3.0/24</tspan></text><text
       xml:space="preserve"
       style="font-size:3.52778px;text-align:start;writing-mode:lr-tb;direction:ltr;text-anchor:start;fill:#000000;fill-opacity:1;stroke:#000000;stroke-width:0;stroke-linecap:round;stroke-linejoin:round;stroke-dasharray:none;stroke-opacity:1"
       x="4.0883236"
       y="48.411736"
       id="text3-7"><tspan
         sodipodi:role="line"
         id="tspan3-0"
         style="font-size:3.52778px;stroke-width:0;stroke-dasharray:none"
         x="4.0883236"
         y="48.411736">Admin</tspan><tspan
         sodipodi:role="line"
         style="font-size:3.52778px;stroke-width:0;stroke-dasharray:none"
         x="4.0883236"
         y="52.821461"
         id="tspan15" /></text><text
       xml:space="preserve"
       style="font-size:3.52778px;text-align:start;writing-mode:lr-tb;direction:ltr;text-anchor:start;fill:#000000;fill-opacity:1;stroke:#000000;stroke-width:0;stroke-linecap:round;stroke-linejoin:round;stroke-dasharray:none;stroke-opacity:1"
       x="5.0853567"
       y="81.686401"
       id="text3-7-6"><tspan
         sodipodi:role="line"
         style="font-size:3.52778px;stroke-width:0;stroke-dasharray:none"
         x="5.0853567"
         y="81.686401"
         id="tspan15-6">PK</tspan></text><text
       xml:space="preserve"
       style="font-size:3.52777px;text-align:start;writing-mode:lr-tb;direction:ltr;text-anchor:start;fill:#000000;stroke-width:0.499999;stroke-dasharray:none;stroke-dashoffset:0"
       x="3.6952763"
       y="127.71799"
       id="text16"><tspan
         sodipodi:role="line"
         id="tspan16"
         style="stroke-width:0.5"
         x="3.6952763"
         y="127.71799">Regular</tspan><tspan
         sodipodi:role="line"
         style="stroke-width:0.5"
         x="3.6952763"
         y="132.1277"
         id="tspan17">Users</tspan></text><g
       id="Icon-Architecture/48/Arch_Amazon-EC2_48-0"
       stroke="none"
       stroke-width="1"
       fill="none"
       fill-rule="evenodd"
       transform="matrix(0.15625,0,0,0.15625,126.77929,62.465444)"><g
         id="Icon-Architecture-BG/48/Compute-6"
         fill="#ed7100"><rect
           id="Rectangle-3"
           x="0"
           y="0"
           width="64"
           height="64" /></g><path
         d="M 22,41 H 41 V 23 H 22 Z M 43,23 h 3 v 2 h -3 v 2 h 3 v 2 h -3 v 2 h 3 v 2 h -3 v 3 h 3 v 2 h -3 v 2 h 3 v 2 h -3.137 c -0.255,0.587 -0.84,1 -1.519,1 H 41 v 3 h -2 v -3 h -2 v 3 h -2 v -3 h -2 v 3 h -2 v -3 h -2 v 3 h -2 v -3 h -3 v 3 h -2 v -3 h -0.344 c -0.679,0 -1.264,-0.413 -1.519,-1 H 18 v -2 h 2 v -2 h -2 v -2 h 2 v -3 h -2 v -2 h 2 v -2 h -2 v -2 h 2 v -2 h -2 v -2 h 2 V 22.656 C 20,21.743 20.743,21 21.656,21 H 22 v -3 h 2 v 3 h 3 v -3 h 2 v 3 h 2 v -3 h 2 v 3 h 2 v -3 h 2 v 3 h 2 v -3 h 2 v 3 h 0.344 C 42.257,21 43,21.743 43,22.656 Z M 32,52 H 12 V 32 h 4 V 30 H 11.843 C 10.826,30 10,30.827 10,31.843 V 52.157 C 10,53.173 10.826,54 11.843,54 H 32.157 C 33.174,54 34,53.173 34,52.157 V 48 H 32 Z M 54,11.843 V 32.157 C 54,33.173 53.174,34 52.157,34 H 48 v -2 h 4 V 12 H 32 v 4 H 30 V 11.843 C 30,10.827 30.826,10 31.843,10 H 52.157 C 53.174,10 54,10.827 54,11.843 Z"
         id="Amazon-EC2_Icon_48_Squid-2"
         fill="#ffffff" /></g><text
       xml:space="preserve"
       style="font-size:2.82223px;text-align:start;writing-mode:lr-tb;direction:ltr;text-anchor:start;fill:#ffffff;fill-opacity:1;stroke:none;stroke-width:0;stroke-dasharray:none;stroke-dashoffset:0;stroke-opacity:1"
       x="69.308578"
       y="107.07711"
       id="text24"><tspan
         sodipodi:role="line"
         id="tspan24"
         style="stroke-width:0"
         x="69.308578"
         y="107.07711" /></text><text
       xml:space="preserve"
       style="font-size:2.82223px;text-align:start;writing-mode:lr-tb;direction:ltr;text-anchor:start;fill:#000000;fill-opacity:1;stroke:#ed7100;stroke-width:0"
       x="51.782948"
       y="76.534546"
       id="text5"><tspan
         sodipodi:role="line"
         id="tspan5"
         style="stroke-width:0;fill:#000000;fill-opacity:1"
         x="51.782948"
         y="76.534546">Nat </tspan><tspan
         sodipodi:role="line"
         style="stroke-width:0;fill:#000000;fill-opacity:1"
         x="51.782948"
         y="80.062332"
         id="tspan6">Gateway</tspan></text><g
       id="g7"
       transform="translate(-81.787358,15.156574)"><rect
         style="fill:#00a6a8;fill-opacity:0.5;stroke:#00a4a6;stroke-width:0.112767;stroke-linejoin:round;stroke-dasharray:none;stroke-dashoffset:0;stroke-opacity:1"
         id="rect3-7-06-4-9-9"
         width="45.938038"
         height="35.740044"
         x="131.95239"
         y="114.67625" /><g
         id="Icon-Architecture-Group/32/Private-subnet_32-9"
         stroke="none"
         stroke-width="1"
         fill="none"
         fill-rule="evenodd"
         transform="matrix(0.26458333,0,0,0.26458333,131.89602,114.61987)"><rect
           id="Rectangle-26-0"
           fill="#00a4a6"
           x="0"
           y="0"
           width="40"
           height="40" /><path
           d="m 19.536,22.049 c 1.106,0 2.006,0.899 2.006,2.005 0,1.106 -0.9,2.006 -2.006,2.006 -1.106,0 -2.006,-0.9 -2.006,-2.006 0,-1.106 0.9,-2.005 2.006,-2.005 z m -0.524,4.958 v 3.494 h 1 v -3.489 c 1.43,-0.23 2.53,-1.463 2.53,-2.958 0,-1.657 -1.349,-3.005 -3.006,-3.005 -1.657,0 -3.006,1.348 -3.006,3.005 0,1.478 1.074,2.703 2.482,2.953 z M 10,33.014 H 29.012 V 18 H 10 Z m 4.046,-20.53 C 14.046,9.46 16.506,7 19.529,7 c 3.024,0 5.483,2.46 5.483,5.484 V 17 H 14.046 Z M 29.512,17 h -3.5 V 12.484 C 26.012,8.908 23.103,6 19.529,6 15.954,6 13.046,8.908 13.046,12.484 V 17 H 9.5 C 9.223,17 9,17.224 9,17.5 v 16.014 c 0,0.276 0.223,0.5 0.5,0.5 h 20.012 c 0.276,0 0.5,-0.224 0.5,-0.5 V 17.5 c 0,-0.276 -0.224,-0.5 -0.5,-0.5 z"
           id="Fill-1-10-8"
           fill="#ffffff" /></g><text
         xml:space="preserve"
         style="font-size:3.52778px;text-align:start;writing-mode:lr-tb;direction:ltr;text-anchor:start;white-space:pre;inline-size:28.206;display:inline;fill:#00a4a7;fill-opacity:1;stroke:#00a4a6;stroke-width:0.1;stroke-linecap:round;stroke-linejoin:round;stroke-dasharray:none;stroke-opacity:1"
         x="140.19112"
         y="99.557022"
         id="text3-3-8-7-3-3"
         inkscape:transform-center-x="3.6745791"
         inkscape:transform-center-y="-13.401406"
         transform="translate(5.7033467,19.426805)"><tspan
           x="140.19112"
           y="99.557022"
           id="tspan7"><tspan
             style="stroke:#000000"
             id="tspan1">PrivS B
</tspan></tspan><tspan
           x="140.19112"
           y="103.96675"
           id="tspan30"><tspan
             style="stroke:#000000"
             id="tspan18">10.0.2.0/24</tspan></tspan></text><rect
         style="fill:#ed7100;fill-opacity:0.25;stroke:#dd344c;stroke-width:0.271778;stroke-linejoin:round;stroke-dasharray:none;stroke-dashoffset:0;stroke-opacity:1"
         id="rect3-7-06-4-8-1"
         width="29.38994"
         height="22.223606"
         x="138.90318"
         y="128.09773" /><text
         xml:space="preserve"
         style="font-size:2.82223px;text-align:start;writing-mode:lr-tb;direction:ltr;text-anchor:start;fill:#000000;fill-opacity:1;stroke:#ed7100;stroke-width:0"
         x="144.5351"
         y="146.67867"
         id="text5-6"><tspan
           sodipodi:role="line"
           style="fill:#000000;fill-opacity:1;stroke-width:0"
           x="144.5351"
           y="146.67867"
           id="tspan6-2">DB Services</tspan></text><path
         d="m 149.482,136.76463 c -0.0659,0 -0.14552,-0.01 -0.23865,-0.0283 -0.0929,-0.0193 -0.17648,-0.0429 -0.25056,-0.0707 v 0.31486 c 0.064,0.0362 0.14287,0.0651 0.23706,0.0873 0.0939,0.022 0.18812,0.0331 0.28205,0.0331 0.21643,0 0.38576,-0.0556 0.50879,-0.16668 0.1233,-0.11087 0.18468,-0.26168 0.18468,-0.45165 0,-0.0982 -0.0145,-0.18177 -0.0434,-0.25082 -0.0291,-0.0688 -0.0741,-0.1315 -0.13494,-0.18759 -0.0614,-0.0561 -0.14367,-0.11192 -0.24791,-0.16801 l -0.16193,-0.0873 c -0.0881,-0.0476 -0.14763,-0.0918 -0.17886,-0.13202 -0.0307,-0.04 -0.0466,-0.091 -0.0466,-0.1532 0,-0.0738 0.0243,-0.13202 0.0725,-0.17383 0.0476,-0.0421 0.11377,-0.0632 0.19791,-0.0632 0.12383,0 0.26697,0.0299 0.42942,0.0902 v -0.31803 c -0.1561,-0.0722 -0.31353,-0.10848 -0.47149,-0.10848 -0.12594,0 -0.23759,0.0246 -0.33469,0.0738 -0.0971,0.049 -0.17357,0.11906 -0.22966,0.21008 -0.0558,0.091 -0.0841,0.19764 -0.0841,0.31962 0,0.13229 0.0317,0.24421 0.096,0.33628 0.064,0.0921 0.17013,0.17807 0.31856,0.25823 l 0.16166,0.0871 c 0.0823,0.0439 0.14076,0.0876 0.17569,0.13044 0.0349,0.0431 0.0524,0.0955 0.0524,0.15769 0,0.0841 -0.0246,0.14843 -0.0749,0.19341 -0.05,0.0452 -0.12304,0.0677 -0.21908,0.0677 z m -1.18269,-0.78052 c 0,-0.23601 -0.0315,-0.40958 -0.0947,-0.52097 -0.0627,-0.11086 -0.16139,-0.16669 -0.29554,-0.16669 h -0.17436 v 1.43828 h 0.17701 c 0.13044,0 0.22728,-0.0566 0.29157,-0.1696 0.0638,-0.11351 0.096,-0.28707 0.096,-0.52096 z m 0.23098,-0.74454 c 0.13415,0.17621 0.20109,0.43418 0.20109,0.77443 0,0.34237 -0.0659,0.60167 -0.19791,0.77788 -0.13229,0.17595 -0.32438,0.26405 -0.57653,0.26405 h -0.64214 v -2.08042 h 0.62733 c 0.25796,0 0.45402,0.0881 0.58816,0.26406 z m -1.96902,0.39026 c 0,-0.11192 -0.0206,-0.19685 -0.0614,-0.25506 -0.0413,-0.0582 -0.1008,-0.0871 -0.17886,-0.0871 h -0.19526 v 0.68448 h 0.19526 c 0.0781,0 0.13759,-0.0288 0.17886,-0.0871 0.0408,-0.0582 0.0614,-0.14314 0.0614,-0.25532 z m 0.10212,0.59161 0.42016,0.83449 h -0.43206 l -0.36327,-0.77152 h -0.16246 v 0.77152 h -0.4109 v -2.08042 h 0.65723 c 0.18415,0 0.33073,0.0585 0.43974,0.17569 0.109,0.11694 0.16351,0.27649 0.16351,0.47863 0,0.13996 -0.027,0.26114 -0.0807,0.36327 -0.0542,0.10213 -0.13123,0.17833 -0.23125,0.22834 z m 8.20394,-2.16747 v -1.1258 c 0,-0.14605 -0.0307,-0.25718 -0.0915,-0.33338 -0.0614,-0.0759 -0.15002,-0.11377 -0.26564,-0.11377 -0.14632,0 -0.29924,0.059 -0.45932,0.17701 l -0.0331,-0.13811 h -0.33628 v 1.53405 h 0.41116 v -1.18877 c 0.0741,-0.0482 0.14208,-0.0722 0.20399,-0.0722 0.0582,0 0.0992,0.0201 0.1233,0.0601 0.0241,0.0402 0.036,0.10424 0.036,0.19208 v 1.00886 z m -1.88516,-0.76544 c 0,-0.17013 -0.0167,-0.29527 -0.0497,-0.37544 -0.0328,-0.0799 -0.0865,-0.12012 -0.16034,-0.12012 -0.0741,0 -0.12779,0.0402 -0.16086,0.12012 -0.0328,0.0802 -0.0495,0.20531 -0.0495,0.37544 0,0.17013 0.0167,0.29475 0.0495,0.37359 0.0331,0.0791 0.0868,0.1188 0.16086,0.1188 0.0738,0 0.12753,-0.0397 0.16034,-0.1188 0.0331,-0.0788 0.0497,-0.20346 0.0497,-0.37359 z m 0.24924,-0.59743 c 0.10795,0.13997 0.16193,0.3392 0.16193,0.59743 0,0.25612 -0.054,0.45403 -0.16193,0.59399 -0.10795,0.14049 -0.26114,0.21034 -0.45932,0.21034 -0.1979,0 -0.35136,-0.0699 -0.45958,-0.21034 -0.10795,-0.13996 -0.16192,-0.33787 -0.16192,-0.59399 0,-0.25823 0.054,-0.45746 0.16192,-0.59743 0.10822,-0.14023 0.26168,-0.21008 0.45958,-0.21008 0.19818,0 0.35137,0.0699 0.45932,0.21008 z m -2.33257,1.36287 h 1.06575 v -0.31538 h -0.63342 l 0.62125,-0.92737 v -0.2913 h -1.02976 v 0.31511 h 0.59743 l -0.62125,0.92763 z m -0.62468,-0.34528 v -0.29422 c -0.0439,-0.014 -0.0958,-0.0209 -0.1561,-0.0209 -0.0577,0 -0.10239,0.0185 -0.13335,0.0556 -0.0312,0.0368 -0.0466,0.0907 -0.0466,0.16034 0,0.0603 0.0124,0.10769 0.0376,0.14261 0.0251,0.0352 0.0585,0.0524 0.10054,0.0524 0.0661,0 0.13203,-0.032 0.19791,-0.0958 z m -0.12276,0.33496 c -0.0643,0.0328 -0.12912,0.0492 -0.19527,0.0492 -0.12409,0 -0.22225,-0.0402 -0.29395,-0.1217 -0.0722,-0.0807 -0.10848,-0.19236 -0.10848,-0.33444 0,-0.15028 0.0442,-0.26881 0.13229,-0.35586 0.0881,-0.0871 0.20717,-0.13044 0.35719,-0.13044 0.0619,0 0.13891,0.0122 0.23098,0.036 v -0.13811 c 0,-0.10398 -0.0135,-0.17463 -0.0402,-0.21167 -0.0273,-0.0368 -0.0775,-0.0556 -0.15161,-0.0556 -0.12039,0 -0.26723,0.032 -0.44106,0.096 v -0.27331 c 0.0577,-0.0378 0.13361,-0.0677 0.22781,-0.0897 0.0939,-0.022 0.19023,-0.0331 0.28813,-0.0331 0.17409,0 0.3003,0.0394 0.37835,0.11854 0.0781,0.0791 0.11721,0.20558 0.11721,0.37967 v 1.07474 h -0.31829 l -0.036,-0.13811 c -0.0341,0.0521 -0.0833,0.0945 -0.1471,0.12779 z m -0.88874,0.0103 v -1.1258 c 0,-0.1442 -0.0299,-0.25453 -0.09,-0.33179 -0.0601,-0.077 -0.14631,-0.11536 -0.25823,-0.11536 -0.13996,0 -0.2921,0.0609 -0.45614,0.18309 -0.0582,-0.12223 -0.15822,-0.18309 -0.30004,-0.18309 -0.14023,0 -0.29051,0.059 -0.45032,0.17701 l -0.0333,-0.13811 h -0.33628 v 1.53405 h 0.41142 v -1.18877 c 0.0738,-0.0482 0.13917,-0.0722 0.195,-0.0722 0.0542,0 0.0929,0.0201 0.11589,0.0601 0.023,0.0402 0.0344,0.10318 0.0344,0.18944 v 1.0115 h 0.41116 v -1.11998 -0.0357 c 0,-0.0122 -8e-4,-0.023 -0.003,-0.0331 0.0741,-0.0482 0.14023,-0.0722 0.19817,-0.0722 0.054,0 0.0923,0.0201 0.11562,0.0601 0.0228,0.0402 0.0344,0.10318 0.0344,0.18944 v 1.0115 z m -2.75219,-0.79534 -0.18945,-0.86175 -0.18309,0.86175 z m 0.63314,0.79534 h -0.46222 l -0.10822,-0.4953 h -0.49821 l -0.10504,0.4953 h -0.44132 l 0.57626,-2.08015 h 0.4654 z m 8.3611,3.93383 v -0.93531 c -0.45799,0.24951 -1.15199,0.37889 -1.84309,0.37889 -0.69109,0 -1.38509,-0.12938 -1.84282,-0.37889 v 0.93531 c 0,0.16642 0.6268,0.55668 1.84282,0.55668 1.21603,0 1.84309,-0.39026 1.84309,-0.55668 z m 0,1.61342 v -0.90646 c -0.45799,0.2495 -1.15199,0.37889 -1.84309,0.37889 -0.69109,0 -1.38509,-0.12939 -1.84282,-0.37889 v 0.90646 c 0,0.16643 0.6268,0.55642 1.84282,0.55642 1.21603,0 1.84309,-0.38999 1.84309,-0.55642 z m 0,1.4404 v -0.73343 c -0.45799,0.2495 -1.15199,0.37862 -1.84309,0.37862 -0.69109,0 -1.38509,-0.12912 -1.84282,-0.37862 v 0.73343 c 0,0.16642 0.6268,0.55668 1.84282,0.55668 1.21603,0 1.84309,-0.39026 1.84309,-0.55668 z m -3.68591,-4.69609 c 0,0.16642 0.6268,0.55668 1.84282,0.55668 1.21603,0 1.84309,-0.39026 1.84309,-0.55668 0,-0.16643 -0.62706,-0.55669 -1.84309,-0.55669 -1.21602,0 -1.84282,0.39026 -1.84282,0.55669 z m 4.21508,0 v 4.69609 c 0,0.71278 -1.19354,1.08585 -2.37226,1.08585 -1.17872,0 -2.37199,-0.37307 -2.37199,-1.08585 v -4.69609 c 0,-0.71279 1.19327,-1.08559 2.37199,-1.08559 1.17872,0 2.37226,0.3728 2.37226,1.08559 z m -10.11979,5.31627 h 5.20753 v 0.52917 h -5.20753 c -0.83952,0 -1.52241,-0.68289 -1.52241,-1.52242 v -8.568 c 0,-0.83952 0.68289,-1.52268 1.52241,-1.52268 h 8.56774 c 0.83953,0 1.52268,0.68316 1.52268,1.52268 v 3.36021 h -0.52917 v -3.36021 c 0,-0.54769 -0.44556,-0.99351 -0.99351,-0.99351 h -8.56774 c -0.54795,0 -0.99324,0.44582 -0.99324,0.99351 v 8.568 c 0,0.54769 0.44529,0.99325 0.99324,0.99325 z"
         id="Amazon-DATABASEAmazon-Aurora-Amazon-RDS-instance_Res_48"
         fill="#c925d1"
         style="fill-rule:evenodd;stroke:none;stroke-width:0.264583" /><text
         xml:space="preserve"
         style="font-size:2.82222px;text-align:start;writing-mode:lr-tb;direction:ltr;text-anchor:start;fill:#dd344c;fill-opacity:1;stroke:#dd344c;stroke-width:0;stroke-linecap:round;stroke-linejoin:round;stroke-dasharray:none;stroke-opacity:1"
         x="158.60426"
         y="132.18768"
         id="text3-3-8-7-4-2"
         inkscape:transform-center-x="3.6745791"
         inkscape:transform-center-y="-13.401406"><tspan
           sodipodi:role="line"
           style="font-size:2.82222px;fill:#dd344c;fill-opacity:1;stroke:#dd344c;stroke-width:0;stroke-dasharray:none;stroke-opacity:1"
           x="158.60426"
           y="132.18768"
           id="tspan11-6">DB SG</tspan></text></g><text
       xml:space="preserve"
       style="font-size:2.82222px;text-align:start;writing-mode:lr-tb;direction:ltr;text-anchor:start;fill:#000000;fill-opacity:1;stroke:#000000;stroke-width:0;stroke-linecap:round;stroke-linejoin:round;stroke-dasharray:none;stroke-opacity:1"
       x="104.58968"
       y="133.73509"
       id="text3-73-6-3-3"><tspan
         sodipodi:role="line"
         style="font-size:2.82222px;stroke-width:0;stroke-dasharray:none"
         x="104.58968"
         y="133.73509"
         id="tspan21-2-6">WS API</tspan></text><text
       xml:space="preserve"
       style="font-size:2.82222px;text-align:start;writing-mode:lr-tb;direction:ltr;text-anchor:start;fill:#000000;fill-opacity:1;stroke:#000000;stroke-width:0;stroke-linecap:round;stroke-linejoin:round;stroke-dasharray:none;stroke-opacity:1"
       x="109.4055"
       y="150.05678"
       id="text3-73-6-3-3-5"><tspan
         sodipodi:role="line"
         style="font-size:2.82222px;stroke-width:0;stroke-dasharray:none"
         x="109.4055"
         y="150.05678"
         id="tspan21-2-6-5">disconnect</tspan><tspan
         sodipodi:role="line"
         style="font-size:2.82222px;stroke-width:0;stroke-dasharray:none"
         x="109.4055"
         y="153.58455"
         id="tspan27">Route</tspan></text><text
       xml:space="preserve"
       style="font-size:2.82222px;text-align:start;writing-mode:lr-tb;direction:ltr;text-anchor:start;fill:#000000;fill-opacity:1;stroke:#000000;stroke-width:0;stroke-linecap:round;stroke-linejoin:round;stroke-dasharray:none;stroke-opacity:1"
       x="125.02521"
       y="153.27335"
       id="text3-73-6-3-3-5-6"><tspan
         sodipodi:role="line"
         style="font-size:2.82222px;stroke-width:0;stroke-dasharray:none"
         x="125.02521"
         y="153.27335"
         id="tspan21-2-6-5-9">send</tspan><tspan
         sodipodi:role="line"
         style="font-size:2.82222px;stroke-width:0;stroke-dasharray:none"
         x="125.02521"
         y="156.80112"
         id="tspan28">message</tspan><tspan
         sodipodi:role="line"
         style="font-size:2.82222px;stroke-width:0;stroke-dasharray:none"
         x="125.02521"
         y="160.3289"
         id="tspan27-3">Route</tspan></text><text
       xml:space="preserve"
       style="font-size:2.82222px;text-align:start;writing-mode:lr-tb;direction:ltr;text-anchor:start;fill:#000000;fill-opacity:1;stroke:#000000;stroke-width:0;stroke-linecap:round;stroke-linejoin:round;stroke-dasharray:none;stroke-opacity:1"
       x="121.71726"
       y="131.82079"
       id="text3-73-6-3-3-5-6-5"><tspan
         sodipodi:role="line"
         style="font-size:2.82222px;stroke-width:0;stroke-dasharray:none"
         x="121.71726"
         y="131.82079"
         id="tspan21-2-6-5-9-4">connect</tspan><tspan
         sodipodi:role="line"
         style="font-size:2.82222px;stroke-width:0;stroke-dasharray:none"
         x="121.71726"
         y="135.34856"
         id="tspan27-3-7">Route</tspan></text><text
       xml:space="preserve"
       style="font-size:2.82222px;text-align:start;writing-mode:lr-tb;direction:ltr;text-anchor:start;fill:#000000;fill-opacity:1;stroke:#000000;stroke-width:0;stroke-linecap:round;stroke-linejoin:round;stroke-dasharray:none;stroke-opacity:1"
       x="138.80835"
       y="142.51234"
       id="text3-73-6-3-3-5-6-5-7"><tspan
         sodipodi:role="line"
         style="font-size:2.82222px;stroke-width:0;stroke-dasharray:none"
         x="138.80835"
         y="142.51234"
         id="tspan21-2-6-5-9-4-8">default</tspan><tspan
         sodipodi:role="line"
         style="font-size:2.82222px;stroke-width:0;stroke-dasharray:none"
         x="138.80835"
         y="146.04012"
         id="tspan27-3-7-6">Route</tspan></text><text
       xml:space="preserve"
       style="font-size:2.82223px;text-align:start;writing-mode:lr-tb;direction:ltr;text-anchor:start;fill:#000000;fill-opacity:1;stroke:#ed7100;stroke-width:0"
       x="150.26062"
       y="122.27243"
       id="text29"><tspan
         sodipodi:role="line"
         id="tspan29"
         style="stroke-width:0"
         x="150.26062"
         y="122.27243">DynamoDB</tspan></text><g
       id="g30"
       stroke="none"
       stroke-width="1"
       fill="none"
       fill-rule="evenodd"
       transform="matrix(0.15625,0,0,0.15625,126.77929,62.465444)"><g
         id="g29"
         fill="#ed7100"><rect
           id="rect29"
           x="0"
           y="0"
           width="64"
           height="64" /></g><path
         d="M 22,41 H 41 V 23 H 22 Z M 43,23 h 3 v 2 h -3 v 2 h 3 v 2 h -3 v 2 h 3 v 2 h -3 v 3 h 3 v 2 h -3 v 2 h 3 v 2 h -3.137 c -0.255,0.587 -0.84,1 -1.519,1 H 41 v 3 h -2 v -3 h -2 v 3 h -2 v -3 h -2 v 3 h -2 v -3 h -2 v 3 h -2 v -3 h -3 v 3 h -2 v -3 h -0.344 c -0.679,0 -1.264,-0.413 -1.519,-1 H 18 v -2 h 2 v -2 h -2 v -2 h 2 v -3 h -2 v -2 h 2 v -2 h -2 v -2 h 2 v -2 h -2 v -2 h 2 V 22.656 C 20,21.743 20.743,21 21.656,21 H 22 v -3 h 2 v 3 h 3 v -3 h 2 v 3 h 2 v -3 h 2 v 3 h 2 v -3 h 2 v 3 h 2 v -3 h 2 v 3 h 0.344 C 42.257,21 43,21.743 43,22.656 Z M 32,52 H 12 V 32 h 4 V 30 H 11.843 C 10.826,30 10,30.827 10,31.843 V 52.157 C 10,53.173 10.826,54 11.843,54 H 32.157 C 33.174,54 34,53.173 34,52.157 V 48 H 32 Z M 54,11.843 V 32.157 C 54,33.173 53.174,34 52.157,34 H 48 v -2 h 4 V 12 H 32 v 4 H 30 V 11.843 C 30,10.827 30.826,10 31.843,10 H 52.157 C 53.174,10 54,10.827 54,11.843 Z"
         id="path29"
         fill="#ffffff" /></g></g></svg>
