<?xml version="1.0" encoding="UTF-8" standalone="no"?>
<!-- Created with Inkscape (http://www.inkscape.org/) -->

<svg
   width="297mm"
   height="210mm"
   viewBox="0 0 297 210"
   version="1.1"
   id="svg1"
   inkscape:version="1.4.2 (ebf0e940d0, 2025-05-08)"
   sodipodi:docname="archDiagram.svg"
   xml:space="preserve"
   xmlns:inkscape="http://www.inkscape.org/namespaces/inkscape"
   xmlns:sodipodi="http://sodipodi.sourceforge.net/DTD/sodipodi-0.dtd"
   xmlns="http://www.w3.org/2000/svg"
   xmlns:svg="http://www.w3.org/2000/svg"><sodipodi:namedview
     id="namedview1"
     pagecolor="#ffffff"
     bordercolor="#000000"
     borderopacity="0.25"
     inkscape:showpageshadow="2"
     inkscape:pageopacity="0.0"
     inkscape:pagecheckerboard="0"
     inkscape:deskcolor="#d1d1d1"
     inkscape:document-units="mm"
     inkscape:zoom="1.6439349"
     inkscape:cx="379.27292"
     inkscape:cy="206.51669"
     inkscape:window-width="1366"
     inkscape:window-height="768"
     inkscape:window-x="0"
     inkscape:window-y="0"
     inkscape:window-maximized="1"
     inkscape:current-layer="layer1"
     showgrid="true"><inkscape:grid
       id="grid1"
       units="mm"
       originx="0"
       originy="0"
       spacingx="1"
       spacingy="0.99999998"
       empcolor="#0099e5"
       empopacity="0.30196078"
       color="#0099e5"
       opacity="0.14901961"
       empspacing="5"
       enabled="true"
       visible="true" /><inkscape:grid
       type="modular"
       id="grid2"
       units="mm"
       originx="0"
       originy="0"
       spacingx="40.000001"
       spacingy="39.999999"
       empcolor="#0047cb"
       empopacity="0.30196078"
       color="#0099e5"
       opacity="0.14901961"
       empspacing="0"
       marginx="0"
       marginy="0"
       gapx="10"
       gapy="9.9999998"
       enabled="true"
       visible="true" /><inkscape:grid
       id="grid3"
       units="mm"
       originx="0"
       originy="0"
       spacingx="1"
       spacingy="0.99999998"
       empcolor="#0099e5"
       empopacity="0.30196078"
       color="#0099e5"
       opacity="0.14901961"
       empspacing="5"
       enabled="true"
       visible="true" /></sodipodi:namedview><defs
     id="defs1" /><g
     inkscape:label="Layer 1"
     inkscape:groupmode="layer"
     id="layer1"><g
       id="Icon-Architecture-Group/32/Auto-Scaling-group_32"
       stroke="none"
       stroke-width="1"
       fill="none"
       fill-rule="evenodd"
       transform="matrix(0.26458333,0,0,0.26458333,107.4631,60.431227)"><rect
         id="Rectangle"
         fill="#ed7100"
         x="0"
         y="0"
         width="40"
         height="40" /><path
         d="m 18.021,19.495254 c 0,-0.155 -0.071,-0.297 -0.188,-0.391 l -2.954,-2.953 -0.707,0.707 2.138,2.137 H 7 v 1 h 9.314 l -2.142,2.142 0.707,0.707 2.969,-2.969 c 0.108,-0.094 0.173,-0.232 0.173,-0.38 z m 15.965,-0.5 h -9.311 l 2.138,-2.137 -0.707,-0.707 -2.969,2.969 c -0.107,0.093 -0.173,0.231 -0.173,0.379 0,0.155 0.072,0.298 0.189,0.391 l 2.953,2.954 0.707,-0.707 -2.142,-2.142 h 9.315 z m -12.99,12.329 v -9.314 h -1 v 9.31 l -2.138,-2.137 -0.707,0.707 2.969,2.967 c 0.093,0.109 0.232,0.175 0.38,0.175 0.156,0 0.3,-0.073 0.393,-0.191 l 2.951,-2.951 -0.707,-0.707 z m -3.138,-21.4870002 -0.707,-0.707 2.952,-2.951 c 0.182,-0.232 0.58,-0.24 0.774,-0.017 l 2.967,2.968 -0.707,0.707 -2.141,-2.141 v 9.3140002 h -1 V 7.7002538 Z"
         id="Fill-1"
         fill="#ffffff" /></g><g
       id="Icon-Architecture/16/Arch_Amazon-VPC-Lattice_16"
       stroke="none"
       stroke-width="1"
       fill="none"
       fill-rule="evenodd"
       transform="matrix(0.66591522,0,0,0.66591522,80.366047,59.031581)"><g
         id="Icon-Architecture-BG/16/Networking-Content-Delivery"
         fill="#8c4fff"><rect
           id="Rectangle-6"
           x="0"
           y="0"
           width="24"
           height="24" /></g><path
         d="M 12.536,16.197 V 7.727 L 15,8.555 v 5.085 c 0,0.51 -0.451,2.29 -2.464,2.557 z M 9,13.64 V 8.557 l 2.536,-0.835 v 8.475 C 9.484,15.93 9,14.12 9,13.64 Z M 5,6 H 6 V 5 H 5 Z m 13,0 h 1 V 5 h -1 z m 0,13 h 1 V 18 H 18 Z M 5,19 H 6 V 18 H 5 Z M 16,8.707 17.707,7 H 19.5 C 19.776,7 20,6.777 20,6.5 v -2 C 20,4.224 19.776,4 19.5,4 h -2 C 17.223,4 17,4.224 17,4.5 V 6.293 L 15.594,7.699 12.195,6.557 C 12.093,6.523 11.982,6.522 11.88,6.556 L 8.406,7.7 7,6.293 V 4.5 C 7,4.224 6.776,4 6.5,4 h -2 C 4.223,4 4,4.224 4,4.5 v 2 C 4,6.777 4.223,7 4.5,7 H 6.293 L 8,8.707 v 4.933 c 0,0.351 0.098,0.833 0.324,1.329 L 6.293,17 H 4.5 C 4.223,17 4,17.224 4,17.5 v 2 C 4,19.777 4.223,20 4.5,20 h 2 C 6.776,20 7,19.777 7,19.5 v -1.793 l 1.865,-1.865 c 0.63,0.774 1.643,1.409 3.171,1.409 1.512,0 2.506,-0.621 3.122,-1.386 L 17,17.707 V 19.5 c 0,0.277 0.223,0.5 0.5,0.5 h 2 c 0.276,0 0.5,-0.223 0.5,-0.5 v -2 C 20,17.224 19.776,17 19.5,17 H 17.707 L 15.69,14.983 C 15.907,14.488 16,14.004 16,13.64 Z"
         id="Fill-1-2"
         fill="#ffffff" /></g><path
       d="m 34.16569,53.969296 v -0.750888 l 0.469371,0.375444 z m -0.09922,-1.508125 c -0.07964,-0.06377 -0.188912,-0.0762 -0.280194,-0.03175 -0.09128,0.04418 -0.149754,0.136525 -0.149754,0.238389 v 1.852083 c 0,0.101865 0.05847,0.194205 0.149754,0.23839 0.03678,0.01773 0.07594,0.02619 0.11483,0.02619 0.059,0 0.117475,-0.01958 0.165364,-0.05794 l 1.157552,-0.926042 c 0.06271,-0.05027 0.09922,-0.126206 0.09922,-0.206639 0,-0.08043 -0.03651,-0.156369 -0.09922,-0.20664 z m 6.350265,-0.89535 v -1.037696 l 0.518848,0.518848 z m 1.080029,-0.705909 -1.157552,-1.157552 c -0.07567,-0.07567 -0.188912,-0.09842 -0.288396,-0.05741 -0.09895,0.04101 -0.163248,0.137583 -0.163248,0.244475 v 0.892968 h -2.017711 v -2.513545 c 0,-0.146315 -0.118269,-0.264584 -0.264584,-0.264584 h -2.035704 v 0.529167 h 1.771121 v 2.248958 h -1.81901 v 0.529167 h 1.81901 v 2.249223 h -1.771121 v 0.529167 h 2.035704 c 0.146315,0 0.264584,-0.118269 0.264584,-0.264584 v -2.513806 h 2.017712 v 0.893233 c 0,0.106892 0.06456,0.203729 0.163248,0.244475 0.03281,0.01376 0.0672,0.02011 0.101336,0.02011 0.06879,0 0.136525,-0.02699 0.18706,-0.07752 l 1.157552,-1.157816 c 0.103452,-0.103452 0.103452,-0.270669 0,-0.374121 z m -7.331075,0.562769 v -0.751152 l 0.469371,0.375444 z m -0.09922,-1.50839 c -0.07964,-0.06376 -0.188912,-0.07594 -0.280193,-0.03175 -0.09128,0.04419 -0.149755,0.136525 -0.149755,0.23839 v 1.852348 c 0,0.101864 0.05847,0.194204 0.149755,0.238389 0.03678,0.01773 0.07594,0.02619 0.114829,0.02619 0.059,0 0.117475,-0.01958 0.165364,-0.05794 l 1.157552,-0.926306 c 0.06271,-0.05027 0.09922,-0.126206 0.09922,-0.206639 0,-0.08043 -0.03651,-0.156369 -0.09922,-0.20664 z m 0.09922,-1.27 v -0.750887 l 0.469371,0.375444 z m -0.09922,-1.508125 c -0.07964,-0.06377 -0.188912,-0.0762 -0.280193,-0.03175 -0.09128,0.04418 -0.149755,0.136525 -0.149755,0.23839 v 1.852083 c 0,0.101865 0.05847,0.194204 0.149755,0.23839 0.03678,0.01773 0.07594,0.02619 0.114829,0.02619 0.059,0 0.117475,-0.01958 0.165364,-0.05794 l 1.157552,-0.926042 c 0.06271,-0.05027 0.09922,-0.126206 0.09922,-0.206639 0,-0.08043 -0.03651,-0.156369 -0.09922,-0.20664 z m 2.844271,8.971492 c -2.917825,0 -5.291931,-2.374106 -5.291931,-5.292196 0,-2.917825 2.374106,-5.291931 5.291931,-5.291931 2.91809,0 5.292196,2.374106 5.292196,5.291931 0,2.91809 -2.374106,5.292196 -5.292196,5.292196 z m 0,-11.113294 c -3.209925,0 -5.821098,2.611173 -5.821098,5.821098 0,3.209925 2.611173,5.821363 5.821098,5.821363 3.209925,0 5.821363,-2.611438 5.821363,-5.821363 0,-3.209925 -2.611438,-5.821098 -5.821363,-5.821098 z"
       id="AWS-Amazon-VPC_NAT-gateway_Resource-Icon_light-bg"
       fill="#8c4fff"
       style="fill-rule:evenodd;stroke:none;stroke-width:0.264583" /><path
       d="m 85.611089,52.374618 h 0.620448 v -0.628385 h -0.620448 z m -1.835944,0 h 0.628386 v -0.628385 h -0.628386 z m -2.083594,0 h 0.628386 v -0.628385 h -0.628386 z m -1.82827,0 h 0.604572 v -0.628385 h -0.604572 z m 1.59676,-4.630208 h 3.175 v -1.554427 h -3.175 z m 5.036079,3.472656 h -0.405871 v -0.892969 c 0,-0.146314 -0.118533,-0.264583 -0.264583,-0.264583 h -0.661458 v -0.892969 c 0,-0.146315 -0.118534,-0.264583 -0.264584,-0.264583 h -1.5875 v -0.628386 h 1.5875 c 0.14605,0 0.264584,-0.118268 0.264584,-0.264583 v -2.083594 c 0,-0.146314 -0.118534,-0.264583 -0.264584,-0.264583 h -3.704166 c -0.146315,0 -0.264584,0.118269 -0.264584,0.264583 v 2.083594 c 0,0.146315 0.118269,0.264583 0.264584,0.264583 h 1.5875 v 0.628386 h -1.5875 c -0.146315,0 -0.264584,0.118268 -0.264584,0.264583 v 0.892969 h -0.661458 c -0.146315,0 -0.264583,0.118269 -0.264583,0.264583 v 0.892969 h -0.4064 c -0.14605,0 -0.264584,0.118269 -0.264584,0.264583 v 1.157552 c 0,0.146315 0.118534,0.264584 0.264584,0.264584 h 1.134004 c 0.14605,0 0.264583,-0.118269 0.264583,-0.264584 v -1.157552 c 0,-0.146314 -0.118533,-0.264583 -0.264583,-0.264583 H 80.533999 V 50.58868 h 1.091407 v 0.628386 h -0.198438 c -0.146315,0 -0.264583,0.118269 -0.264583,0.264583 v 1.157552 c 0,0.146315 0.118268,0.264584 0.264583,0.264584 h 1.157552 c 0.14605,0 0.264583,-0.118269 0.264583,-0.264584 v -1.157552 c 0,-0.146314 -0.118533,-0.264583 -0.264583,-0.264583 h -0.429948 v -0.892969 c 0,-0.146314 -0.118533,-0.264583 -0.264583,-0.264583 h -0.429948 v -0.628386 h 3.175 v 0.628386 h -0.429948 c -0.146315,0 -0.264583,0.118269 -0.264583,0.264583 v 0.892969 h -0.429948 c -0.146315,0 -0.264584,0.118269 -0.264584,0.264583 v 1.157552 c 0,0.146315 0.118269,0.264584 0.264584,0.264584 h 1.157552 c 0.14605,0 0.264583,-0.118269 0.264583,-0.264584 v -1.157552 c 0,-0.146314 -0.118533,-0.264583 -0.264583,-0.264583 H 84.469676 V 50.58868 h 1.091407 v 0.628386 h -0.214577 c -0.146315,0 -0.264584,0.118269 -0.264584,0.264583 v 1.157552 c 0,0.146315 0.118269,0.264584 0.264584,0.264584 h 1.149614 c 0.14605,0 0.264583,-0.118269 0.264583,-0.264584 v -1.157552 c 0,-0.146314 -0.118533,-0.264583 -0.264583,-0.264583 z m -3.448579,3.704167 c -2.91809,0 -5.291931,-2.373842 -5.291931,-5.291667 0,-2.917825 2.373841,-5.291667 5.291931,-5.291667 2.917825,0 5.291666,2.373842 5.291666,5.291667 0,2.917825 -2.373841,5.291667 -5.291666,5.291667 z m 0,-11.1125 c -3.209925,0 -5.821098,2.611172 -5.821098,5.820833 0,3.20966 2.611173,5.820833 5.821098,5.820833 3.209396,0 5.820833,-2.611173 5.820833,-5.820833 0,-3.209661 -2.611437,-5.820833 -5.820833,-5.820833 z"
       id="AWS-Elastic-Load-Balancing_-Application-Load-Balancer_Resource-Icon_light-bg"
       fill="#8c4fff"
       style="fill-rule:evenodd;stroke:none;stroke-width:0.264583" /><path
       d="m 24.035415,86.727934 c 0.03692,-0.03662 0.08546,-0.05679 0.137134,-0.05679 h 2.84e-4 c 0.05224,0 0.101364,0.02017 0.138269,0.05707 0.03662,0.03692 0.0565,0.08546 0.0565,0.137134 v 5.68e-4 c 0,0.05224 -0.02015,0.101074 -0.05707,0.137985 -0.03662,0.03662 -0.08546,0.05679 -0.137702,0.05679 h -2.84e-4 c -0.107322,0 -0.194202,-0.08745 -0.194202,-0.19477 0,-0.05196 0.02017,-0.101074 0.05707,-0.137985 z M 23.888911,87.5726 v 0.79782 h 0.567843 v -0.796968 c 0.09398,-0.03776 0.180858,-0.09398 0.255246,-0.167798 0.143949,-0.143948 0.223162,-0.335311 0.223449,-0.539167 5.68e-4,-0.203571 -0.07865,-0.394934 -0.222597,-0.539166 -0.143949,-0.144516 -0.335879,-0.224014 -0.539735,-0.224014 h -8.54e-4 c -0.419636,0 -0.761194,0.341841 -0.761761,0.762329 0,0.320264 0.198461,0.593964 0.478409,0.706964 z m 2.232476,1.311718 -3.898527,-0.0017 0.0012,-3.153801 3.899094,0.002 z m -2.904802,-4.438261 c 8.54e-4,-0.280231 0.103349,-0.542858 0.289032,-0.739048 0.180291,-0.190511 0.417649,-0.295279 0.66892,-0.295279 h 0.0031 c 0.52497,0.0017 0.950284,0.471026 0.948586,1.046536 l -2.84e-4,0.704125 -1.912779,-8.54e-4 z m 3.190426,0.716901 -0.71321,-2.83e-4 2.84e-4,-0.703558 c 0.0028,-0.887823 -0.676869,-1.61239 -1.514722,-1.615229 h -0.0048 c -0.408847,0 -0.792995,0.167798 -1.081458,0.473013 -0.285057,0.301524 -0.442918,0.701854 -0.444337,1.126885 l -0.0034,0.717469 -0.705261,-2.84e-4 c -0.07525,0 -0.147356,0.0301 -0.200733,0.08319 -0.0531,0.05337 -0.08319,0.125493 -0.08319,0.200733 l -0.0012,3.721643 c 0,0.156725 0.126914,0.283921 0.283922,0.283921 l 4.46637,0.0017 c 0.156441,0 0.28392,-0.127197 0.28392,-0.283922 l 0.0017,-3.721359 c 0,-0.07496 -0.0301,-0.147355 -0.08319,-0.200732 -0.05337,-0.05311 -0.125486,-0.08321 -0.200726,-0.08321 z m -5.951279,-4.511229 c -0.113285,0 -0.205276,-0.09228 -0.205276,-0.205275 0,-0.113285 0.09199,-0.205559 0.205276,-0.205559 0.113285,0 0.205275,0.09228 0.205275,0.205559 0,0.113 -0.09199,0.205275 -0.205275,0.205275 z m 0,-0.978678 c -0.426166,0 -0.773118,0.346953 -0.773118,0.773403 0,0.426166 0.346952,0.773119 0.773118,0.773119 0.42645,0 0.773119,-0.346953 0.773119,-0.773119 0,-0.42645 -0.346669,-0.773403 -0.773119,-0.773403 z m 0.403453,2.317936 c -0.118112,0.03748 -0.198178,0.147072 -0.198178,0.270861 v 0.496296 c 0,0.07523 0.0301,0.147354 0.08319,0.200732 l 0.21862,0.218336 -0.21862,0.218903 c -0.0531,0.0531 -0.08319,0.125493 -0.08319,0.200733 v 0.279378 c 0,0.07552 0.0301,0.147639 0.08319,0.200733 l 0.21862,0.218619 -0.21862,0.21862 c -0.0531,0.05337 -0.08319,0.125777 -0.08319,0.200733 v 0.312597 l -0.233951,0.267454 -0.1766,-0.151614 v -2.88152 c 0,-0.123789 -0.08006,-0.233383 -0.198177,-0.270861 -0.550239,-0.174328 -0.920189,-0.68056 -0.920189,-1.25976 0,-0.729678 0.59368,-1.323642 1.323642,-1.323642 0.729678,0 1.323643,0.593964 1.323643,1.323642 0,0.5792 -0.36995,1.085432 -0.92019,1.25976 z m 0.705828,1.386957 c 0.11073,-0.110729 0.11073,-0.290452 0,-0.401465 L 21.228851,82.6406 v -0.183414 c 0.676868,-0.300104 1.118366,-0.969592 1.118366,-1.725959 0,-1.043127 -0.848641,-1.891485 -1.891485,-1.891485 -1.042843,0 -1.891485,0.848358 -1.891485,1.891485 0,0.756367 0.441498,1.425855 1.118367,1.725959 v 2.816786 c 0,0.08291 0.03634,0.161551 0.09909,0.215496 l 0.488912,0.419353 c 0.05367,0.04599 0.119247,0.06842 0.185118,0.06842 0.07893,0 0.157292,-0.03265 0.213793,-0.09681 l 0.489195,-0.559326 c 0.04514,-0.05167 0.07013,-0.118111 0.07013,-0.18682 v -0.30181 l 0.336162,-0.336162 c 0.11073,-0.111013 0.11073,-0.290736 0,-0.401465 l -0.336159,-0.336162 v -0.04428 z m 5.550951,6.270407 c 0,0.126061 -0.102781,0.228841 -0.228841,0.228841 H 18.48049 c -0.126346,0 -0.22884,-0.102781 -0.22884,-0.228841 V 78.75996 c 0,-0.126344 0.102501,-0.22884 0.22884,-0.22884 h 8.406633 c 0.126061,0 0.228841,0.10249 0.228841,0.22884 z M 26.887123,77.963276 H 18.48049 c -0.439227,0 -0.796684,0.357458 -0.796684,0.796684 v 10.888391 c 0,0.439226 0.357457,0.796684 0.796684,0.796684 h 8.406633 c 0.439226,0 0.796683,-0.357458 0.796683,-0.796684 V 78.75996 c 0,-0.439226 -0.357457,-0.796684 -0.796683,-0.796684 z"
       id="AWS-Identity-and-Access-Management_Data-Encryption-Key_-Resource-Icon_light-bg"
       fill="#dd344c"
       style="fill-rule:evenodd;stroke:none;stroke-width:0.283921" /><path
       d="m 16.081267,54.188238 c 1.228862,0 2.228866,-1.007273 2.228866,-2.245001 0,-1.237956 -1.000004,-2.245229 -2.228866,-2.245229 -1.229095,0 -2.229322,1.007273 -2.229322,2.245229 0,1.237728 1.000227,2.245001 2.229322,2.245001 z m -4.085457,4.600685 h 5.448862 v 0.454545 h -5.681819 c -0.125678,0 -0.22727,-0.101818 -0.22727,-0.227272 0,-2.227274 1.487494,-4.09523 3.481359,-4.595912 -0.951814,-0.415455 -1.619545,-1.368865 -1.619545,-2.477047 0,-1.488637 1.203866,-2.699774 2.68387,-2.699774 1.479548,0 2.683406,1.211137 2.683406,2.699774 0,1.107728 -0.6675,2.061137 -1.618404,2.476592 0.207497,0.05205 0.412725,0.114319 0.612498,0.197046 0.04046,0.0166 0.07997,0.03364 0.119546,0.05137 l -0.186365,0.414773 c -0.03548,-0.01614 -0.07138,-0.03136 -0.10727,-0.04637 -0.478188,-0.197727 -0.984319,-0.298182 -1.503644,-0.298182 -2.182729,0 -3.971821,1.797047 -4.085224,4.050458 z m 9.085233,-1.704547 c 0,-0.94 -0.764547,-1.704546 -1.70455,-1.704546 -0.940004,0 -1.704543,0.764546 -1.704543,1.704546 0,0.940001 0.764539,1.704547 1.704543,1.704547 0.940003,0 1.70455,-0.764546 1.70455,-1.704547 z m 0.45454,0 c 0,1.190456 -0.968633,2.159092 -2.15909,2.159092 -1.190458,0 -2.159092,-0.968636 -2.159092,-2.159092 0,-1.190455 0.968634,-2.159092 2.159092,-2.159092 1.190457,0 2.15909,0.968637 2.15909,2.159092 z m -1.29704,-0.823637 0.321363,0.321364 -1.363637,1.363638 c -0.04433,0.04454 -0.102503,0.06659 -0.160682,0.06659 -0.05815,0 -0.116366,-0.02204 -0.160682,-0.06659 l -0.681818,-0.681819 0.321364,-0.321364 0.521136,0.521137 z"
       id="Fill-1-1"
       fill="#232f3d"
       style="fill-rule:evenodd;stroke:none;stroke-width:0.227272" /><path
       d="m 19.124053,111.88201 c 0,-0.66251 0.548408,-1.20136 1.222727,-1.20136 0.674091,0 1.222272,0.53885 1.222272,1.20136 0,0.6625 -0.548181,1.20136 -1.222272,1.20136 -0.674319,0 -1.222727,-0.53886 -1.222727,-1.20136 z m 2.61909,1.60182 c -0.147045,-0.0914 -0.302272,-0.16683 -0.4625,-0.2275 0.447727,-0.29773 0.742954,-0.80251 0.742954,-1.37432 0,-0.91296 -0.752273,-1.65591 -1.676817,-1.65591 -0.924773,0 -1.677273,0.74295 -1.677273,1.65591 0,0.57046 0.293863,1.07454 0.74,1.3725 -0.291136,0.10978 -0.564772,0.27046 -0.805909,0.47728 l 0.296136,0.34499 c 0.405,-0.34749 0.9175,-0.53886 1.442728,-0.53886 0.409545,0 0.811136,0.11477 1.161136,0.33204 0.622727,0.38682 1.031363,1.06637 1.100909,1.81068 h -2.262045 v 0.45456 h 2.499999 c 0.125682,0 0.227273,-0.1016 0.227273,-0.22728 0,-0.98705 -0.508182,-1.91591 -1.326591,-2.42409 z m -7.164545,-1.60182 c 0,-0.66251 0.548408,-1.20136 1.222727,-1.20136 0.674091,0 1.222272,0.53885 1.222272,1.20136 0,0.6625 -0.548181,1.20136 -1.222272,1.20136 -0.674319,0 -1.222727,-0.53886 -1.222727,-1.20136 z m 1.218409,3.79863 h -2.262273 c 0.11,-1.20067 1.082728,-2.14272 2.262273,-2.14272 0.409545,0 0.811136,0.11477 1.161136,0.33204 0.09818,0.0612 0.192955,0.13069 0.281819,0.20681 l 0.296136,-0.34476 c -0.106364,-0.0914 -0.22,-0.17477 -0.33841,-0.24818 -0.147045,-0.0914 -0.302272,-0.16683 -0.462499,-0.2275 0.447727,-0.29773 0.742954,-0.80251 0.742954,-1.37432 0,-0.91296 -0.752273,-1.65591 -1.676818,-1.65591 -0.924773,0 -1.677273,0.74295 -1.677273,1.65591 0,0.57159 0.295,1.07659 0.742728,1.37409 -1.046591,0.39523 -1.797046,1.43319 -1.797046,2.65182 0,0.12568 0.101818,0.22728 0.227272,0.22728 h 2.500001 z m 0.01045,4.09091 c 0.11,-1.20067 1.082727,-2.14272 2.262272,-2.14272 0.409547,0 0.811137,0.11477 1.161137,0.33204 0.622727,0.38681 1.031364,1.06636 1.100909,1.81068 z m 1.043863,-3.79863 c 0,-0.66251 0.54841,-1.20136 1.222728,-1.20136 0.674091,0 1.222273,0.53885 1.222273,1.20136 0,0.66249 -0.548182,1.20136 -1.222273,1.20136 -0.674318,0 -1.222728,-0.53887 -1.222728,-1.20136 z m 2.619092,1.60182 c -0.147046,-0.0914 -0.302273,-0.16683 -0.462501,-0.22751 0.447728,-0.29773 0.742955,-0.8025 0.742955,-1.37431 0,-0.91296 -0.752272,-1.65591 -1.676818,-1.65591 -0.924773,0 -1.677272,0.74295 -1.677272,1.65591 0,0.57159 0.294999,1.07658 0.742727,1.37408 -1.046591,0.39523 -1.797046,1.43319 -1.797046,2.65182 0,0.12569 0.101818,0.22728 0.227273,0.22728 h 5.000001 c 0.125682,0 0.227272,-0.10159 0.227272,-0.22728 0,-0.98703 -0.508181,-1.9159 -1.326591,-2.42408 z"
       id="Fill-1-20"
       fill="#242f3e"
       style="fill-rule:evenodd;stroke:none;stroke-width:0.227272" /><path
       d="m 75.292197,124.48805 h -1.023458 v -12.07652 c 0,-0.2685 -0.157826,-0.51241 -0.402412,-0.62241 l -0.06285,-0.0287 c -1.372581,-0.61967 -2.792987,-1.26121 -4.834435,-1.26121 -2.133681,0 -3.699611,0.68936 -5.247778,1.45798 -0.232298,0.11545 -0.379185,0.35254 -0.379185,0.61216 v 11.91869 H 62.342533 V 111.5985 c 1.662947,-1.35208 4.060349,-2.12275 6.63334,-2.12275 2.39194,0 4.672513,0.68117 6.316329,1.87748 z m -6.31633,-16.37873 c -3.023228,0 -5.854473,0.96949 -7.768845,2.66113 -0.146877,0.12914 -0.230929,0.31564 -0.230929,0.51173 v 13.88908 c 0,0.37782 0.305398,0.68322 0.683215,0.68322 h 2.365978 c 0.377817,0 0.683215,-0.3054 0.683215,-0.68322 V 112.995 c 1.31109,-0.63334 2.581871,-1.12936 4.260531,-1.12936 1.595311,0 2.75541,0.46117 3.933275,0.98793 v 12.31769 c 0,0.37782 0.305395,0.68322 0.683215,0.68322 h 2.389889 c 0.377817,0 0.683215,-0.3054 0.683215,-0.68322 v -14.15622 c 0,-0.20769 -0.09497,-0.40447 -0.258257,-0.53496 -1.895239,-1.50649 -4.601455,-2.37076 -7.424502,-2.37076 z M 68.81737,130.4532 c -7.516739,0 -13.633568,-6.11614 -13.633568,-13.63356 0,-7.51742 6.116829,-13.63289 13.633568,-13.63289 7.517424,0 13.633568,6.11547 13.633568,13.63289 0,7.51742 -6.116144,13.63356 -13.633568,13.63356 z m 0,-28.63288 c -8.271009,0 -15,6.72899 -15,14.99932 0,8.27169 6.728991,14.99999 15,14.99999 8.271009,0 15.000003,-6.7283 15.000003,-14.99999 0,-8.27033 -6.728994,-14.99932 -15.000003,-14.99932 z"
       id="AWS-Amazon-VPC_Internet-gateway_Resource-Icon_light-bg"
       fill="#8c4fff"
       style="fill-rule:evenodd;stroke:none;stroke-width:0.683215" /><g
       id="g7"
       transform="translate(-2.4443527,-0.6353941)"><rect
         style="fill:none;fill-opacity:1;stroke:#000000;stroke-width:0.5;stroke-linejoin:round;stroke-dasharray:none;stroke-opacity:1"
         id="rect3"
         width="211.77827"
         height="152.4104"
         x="43.094353"
         y="15.885394" /><g
         id="g6"><g
           id="Icon-Architecture-Group/32/AWS-Cloud_32"
           stroke="none"
           stroke-width="1"
           fill="none"
           fill-rule="evenodd"
           transform="matrix(0.2375,0,0,0.2375,43.094354,15.885395)"
           style="stroke:#000000;stroke-width:2.10526;stroke-linecap:round;stroke-linejoin:round;stroke-dasharray:none;stroke-opacity:1"><rect
             id="Rectangle-2"
             fill="#ffffff"
             x="0"
             y="0"
             width="40"
             height="40"
             style="stroke:#000000;stroke-width:2.10526;stroke-linecap:round;stroke-linejoin:round;stroke-dasharray:none;stroke-opacity:1" /><path
             d="m 28.993,27.995269 -17.506,-0.019 c -2.366,-0.002 -4.333,-1.847 -4.475,-4.201 -0.008,-0.123 -0.012,-0.249 -0.012,-0.378 0,-3.098 2.091,-4.11 3.337,-4.438 0.24,-0.063 0.398,-0.293 0.37,-0.54 -0.031,-0.27 -0.048,-0.544 -0.048,-0.823 0,-2.464 1.649,-5.114 3.756,-6.033 0.944,-0.413 1.817,-0.577 2.608,-0.577 2.253,0 3.844,1.329 4.538,2.047 0.768,0.793 1.366,1.805 1.779,3.009 0.06,0.177 0.215,0.305 0.4,0.332 0.178,0.027 0.369,-0.051 0.479,-0.203 0.588,-0.821 1.547,-1.189 2.44,-0.932 1.123,0.321 1.857,1.488 1.961,3.068 -0.042,0.269 0.139,0.522 0.407,0.57 1.195,0.212 3.973,1.08 3.973,4.563 0,4.149 -3.886,4.542 -4.007,4.555 m 0.601,-10.021 c -0.215,-1.907 -1.194,-3.278 -2.66,-3.696 -1.035,-0.296 -2.123,-0.033 -2.945,0.672 -0.436,-1.014 -1.01,-1.89 -1.709,-2.612 -2.257,-2.333 -5.347,-2.9660001 -8.266,-1.692 -2.483,1.084 -4.355,4.072 -4.355,6.95 0,0.174 0.006,0.347 0.017,0.518 -1.357,0.459 -3.676,1.761 -3.676,5.283 0,0.152 0.004,0.299 0.014,0.441 0.174,2.878 2.579,5.135 5.472,5.138 l 17.548,0.017 c 0.05,-0.004 4.966,-0.474 4.966,-5.553 0,-3.938 -2.997,-5.126 -4.406,-5.466"
             id="Fill-1-8"
             fill="#232f3e"
             style="stroke:#000000;stroke-width:2.10526;stroke-linecap:round;stroke-linejoin:round;stroke-dasharray:none;stroke-opacity:1" /></g></g></g><g
       id="g5"
       transform="translate(-5.0000004)"><g
         id="g4"><rect
           style="fill:none;fill-opacity:1;stroke:#8c4fff;stroke-width:0.428006;stroke-linejoin:round;stroke-dasharray:none;stroke-opacity:1"
           id="rect3-7-0"
           width="189.13586"
           height="125.04979"
           x="65.214005"
           y="35.214005" /></g><g
         id="Icon-Architecture-Group/32/AWS-Cloud_32-2"
         stroke="none"
         stroke-width="1"
         fill="none"
         fill-rule="evenodd"
         transform="matrix(0.2375,0,0,0.2375,65.25,35.25)"
         style="stroke:#8c4fff;stroke-width:2.10526;stroke-linecap:round;stroke-linejoin:round;stroke-dasharray:none;stroke-opacity:1"><rect
           id="Rectangle-2-5"
           fill="#ffffff"
           x="0"
           y="0"
           width="40"
           height="40"
           style="stroke:#8c4fff;stroke-width:2.10526;stroke-linecap:round;stroke-linejoin:round;stroke-dasharray:none;stroke-opacity:1" /><path
           d="m 28.993,27.995269 -17.506,-0.019 c -2.366,-0.002 -4.333,-1.847 -4.475,-4.201 -0.008,-0.123 -0.012,-0.249 -0.012,-0.378 0,-3.098 2.091,-4.11 3.337,-4.438 0.24,-0.063 0.398,-0.293 0.37,-0.54 -0.031,-0.27 -0.048,-0.544 -0.048,-0.823 0,-2.464 1.649,-5.114 3.756,-6.033 0.944,-0.413 1.817,-0.577 2.608,-0.577 2.253,0 3.844,1.329 4.538,2.047 0.768,0.793 1.366,1.805 1.779,3.009 0.06,0.177 0.215,0.305 0.4,0.332 0.178,0.027 0.369,-0.051 0.479,-0.203 0.588,-0.821 1.547,-1.189 2.44,-0.932 1.123,0.321 1.857,1.488 1.961,3.068 -0.042,0.269 0.139,0.522 0.407,0.57 1.195,0.212 3.973,1.08 3.973,4.563 0,4.149 -3.886,4.542 -4.007,4.555 m 0.601,-10.021 c -0.215,-1.907 -1.194,-3.278 -2.66,-3.696 -1.035,-0.296 -2.123,-0.033 -2.945,0.672 -0.436,-1.014 -1.01,-1.89 -1.709,-2.612 -2.257,-2.333 -5.347,-2.9660001 -8.266,-1.692 -2.483,1.084 -4.355,4.072 -4.355,6.95 0,0.174 0.006,0.347 0.017,0.518 -1.357,0.459 -3.676,1.761 -3.676,5.283 0,0.152 0.004,0.299 0.014,0.441 0.174,2.878 2.579,5.135 5.472,5.138 l 17.548,0.017 c 0.05,-0.004 4.966,-0.474 4.966,-5.553 0,-3.938 -2.997,-5.126 -4.406,-5.466"
           id="Fill-1-8-4"
           fill="#232f3e"
           style="stroke:#8c4fff;stroke-width:2.10526;stroke-linecap:round;stroke-linejoin:round;stroke-dasharray:none;stroke-opacity:1" /></g></g><g
       id="g8"><rect
         style="fill:none;fill-opacity:1;stroke:#00a4a6;stroke-width:0.428006;stroke-linejoin:round;stroke-dasharray:none;stroke-opacity:1"
         id="rect3-7"
         width="189.13586"
         height="125.04979"
         x="50.214005"
         y="25.214003" /><g
         id="Icon-Architecture-Group/32/Region_32"
         stroke="none"
         stroke-width="1"
         fill="none"
         fill-rule="evenodd"
         transform="matrix(0.25,0,0,0.25,50,25.137487)"><rect
           id="Rectangle-61"
           fill="#00a4a6"
           x="0"
           y="-0.54994935"
           width="40"
           height="40" /><path
           d="m 14,20.026 v -9 h 15.293 l -4.147,4.146 c -0.195,0.196 -0.195,0.512 0,0.708 l 4.147,4.146 z m 12.207,-4.5 4.647,-4.646 c 0.142,-0.144 0.185,-0.358 0.108,-0.545 -0.077,-0.187 -0.26,-0.309 -0.462,-0.309 H 14 V 8.97 C 14.596,8.76 15.026,8.198 15.026,7.531 15.026,6.687 14.34,6 13.495,6 12.65,6 11.963,6.687 11.963,7.531 c 0,0.67 0.435,1.235 1.037,1.442 v 24.053 h -3 v 1 h 7 v -1 h -3 v -12 h 16.5 c 0.202,0 0.385,-0.122 0.462,-0.309 0.077,-0.187 0.034,-0.401 -0.108,-0.545 z"
           id="Fill-1-29"
           fill="#ffffff" /></g></g><text
       xml:space="preserve"
       style="font-size:6.5445px;text-align:start;writing-mode:lr-tb;direction:ltr;text-anchor:start;fill:#000000;fill-opacity:1;stroke:#000000;stroke-width:0;stroke-linecap:round;stroke-linejoin:round;stroke-dasharray:none;stroke-opacity:1"
       x="58.554001"
       y="23.407566"
       id="text3"><tspan
         sodipodi:role="line"
         id="tspan3"
         style="font-size:6.5445px;stroke-width:0;stroke-dasharray:none"
         x="58.554001"
         y="23.407566">AWS Cloud</tspan></text><text
       xml:space="preserve"
       style="font-size:6.5445px;text-align:start;writing-mode:lr-tb;direction:ltr;text-anchor:start;fill:#00a4a6;fill-opacity:1;stroke:#00a4a6;stroke-width:0;stroke-linecap:round;stroke-linejoin:round;stroke-dasharray:none;stroke-opacity:1"
       x="65.182648"
       y="33.516373"
       id="text3-3"
       inkscape:transform-center-x="3.6745791"
       inkscape:transform-center-y="-13.401406"><tspan
         sodipodi:role="line"
         id="tspan3-6"
         style="font-size:6.5445px;fill:#00a4a6;fill-opacity:1;stroke:#00a4a6;stroke-width:0;stroke-dasharray:none;stroke-opacity:1"
         x="65.182648"
         y="33.516373">Region</tspan></text><text
       xml:space="preserve"
       style="font-size:3.52778px;text-align:start;writing-mode:lr-tb;direction:ltr;text-anchor:start;fill:#8c4fff;fill-opacity:1;stroke:#8c4fff;stroke-width:0;stroke-linecap:round;stroke-linejoin:round;stroke-dasharray:none;stroke-opacity:1"
       x="71.459229"
       y="39.622807"
       id="text3-3-8"
       inkscape:transform-center-x="3.6745791"
       inkscape:transform-center-y="-13.401406"><tspan
         sodipodi:role="line"
         id="tspan3-6-4"
         style="font-size:3.52778px;fill:#8c4fff;fill-opacity:1;stroke:#8c4fff;stroke-width:0;stroke-dasharray:none;stroke-opacity:1"
         x="71.459229"
         y="39.622807">VPC</tspan><tspan
         sodipodi:role="line"
         style="font-size:3.52778px;fill:#8c4fff;fill-opacity:1;stroke:#8c4fff;stroke-width:0;stroke-dasharray:none;stroke-opacity:1"
         x="71.459229"
         y="44.032532"
         id="tspan8">10.0.0.0/16</tspan></text><path
       d="m 102.1331,56.094359 h 9.08975 v -2.129755 h -9.08975 z m 9.54488,-2.357317 v 2.584879 c 0,0.125843 -0.10172,0.227563 -0.22756,0.227563 h -9.54488 c -0.12584,0 -0.22756,-0.10172 -0.22756,-0.227563 v -2.584879 c 0,-0.125843 0.10172,-0.227562 0.22756,-0.227562 h 9.54488 c 0.12584,0 0.22756,0.101719 0.22756,0.227562 z m -9.54488,-1.023348 h 9.08975 v -2.129757 h -9.08975 z m 9.54488,-2.357319 v 2.585109 c 0,0.125614 -0.10172,0.227562 -0.22756,0.227562 h -9.54488 c -0.12584,0 -0.22756,-0.101948 -0.22756,-0.227562 v -2.585109 c 0,-0.125842 0.10172,-0.227562 0.22756,-0.227562 h 9.54488 c 0.12584,0 0.22756,0.10172 0.22756,0.227562 z m -9.54488,-1.02312 h 9.08975 v -2.129756 h -9.08975 z m 9.54488,-2.357319 v 2.584882 c 0,0.125841 -0.10172,0.227562 -0.22756,0.227562 h -9.54488 c -0.12584,0 -0.22756,-0.101721 -0.22756,-0.227562 v -2.584882 c 0,-0.125841 0.10172,-0.227562 0.22756,-0.227562 h 9.54488 c 0.12584,0 0.22756,0.101721 0.22756,0.227562 z m -1.4894,8.059576 c 0,0.194793 0.0182,0.335882 0.0548,0.423493 0.0366,0.08761 0.0951,0.131076 0.17545,0.131076 0.0801,0 0.13859,-0.04346 0.17523,-0.131076 0.0366,-0.08761 0.0549,-0.2287 0.0549,-0.423493 0,-0.193655 -0.0182,-0.334061 -0.0549,-0.421673 -0.0366,-0.08761 -0.0951,-0.131303 -0.17523,-0.131303 -0.0803,0 -0.13881,0.04369 -0.17545,0.131303 -0.0366,0.08761 -0.0548,0.228018 -0.0548,0.421673 z m -0.094,0.532723 c -0.074,-0.121973 -0.11082,-0.299472 -0.11082,-0.532723 0,-0.233479 0.0369,-0.41075 0.11082,-0.53204 0.074,-0.121291 0.18205,-0.18205 0.32428,-0.18205 0.14223,0 0.25032,0.06076 0.32405,0.18205 0.0742,0.12129 0.11105,0.298561 0.11105,0.53204 0,0.234616 -0.0369,0.41257 -0.11105,0.533634 -0.0737,0.121518 -0.18182,0.182049 -0.32405,0.182049 -0.14223,0 -0.25032,-0.06076 -0.32428,-0.18296 z m -0.42759,0.177044 c 0.0378,0 0.0687,-0.0116 0.0917,-0.03482 0.0232,-0.02298 0.035,-0.05394 0.035,-0.09239 0,-0.03845 -0.0118,-0.06918 -0.035,-0.09239 -0.023,-0.02344 -0.0539,-0.03482 -0.0917,-0.03482 -0.038,0 -0.069,0.01138 -0.0919,0.03482 -0.0232,0.02321 -0.0348,0.05394 -0.0348,0.09239 0,0.03845 0.0116,0.06941 0.0348,0.09239 0.023,0.02321 0.0539,0.03482 0.0919,0.03482 z m -0.34657,-0.185008 h -0.5746 c 0.16339,-0.19889 0.27899,-0.346123 0.34658,-0.442382 0.0674,-0.09603 0.11401,-0.176588 0.13927,-0.24167 0.0253,-0.06486 0.0382,-0.127663 0.0382,-0.188877 0,-0.115146 -0.0305,-0.205034 -0.0913,-0.269434 -0.0603,-0.06417 -0.14473,-0.09649 -0.25305,-0.09649 -0.0621,0 -0.12266,0.01047 -0.18182,0.03094 -0.0589,0.02048 -0.12038,0.05325 -0.18365,0.09831 v 0.169307 c 0.13358,-0.0851 0.24418,-0.127436 0.33156,-0.127436 0.11424,0 0.17113,0.06895 0.17113,0.206854 0,0.06236 -0.0164,0.127891 -0.0485,0.196842 -0.0328,0.06895 -0.086,0.155425 -0.16066,0.259421 -0.0746,0.103997 -0.18319,0.244175 -0.32542,0.420763 v 0.149054 h 0.79215 z m -1.15739,0.185008 c 0.038,0 0.0685,-0.0116 0.0919,-0.03482 0.023,-0.02298 0.0348,-0.05394 0.0348,-0.09239 0,-0.03845 -0.0118,-0.06918 -0.0348,-0.09239 -0.0234,-0.02344 -0.0539,-0.03482 -0.0919,-0.03482 -0.038,0 -0.0687,0.01138 -0.0919,0.03482 -0.0232,0.02321 -0.0348,0.05394 -0.0348,0.09239 0,0.03845 0.0116,0.06941 0.0348,0.09239 0.0232,0.02321 0.0539,0.03482 0.0919,0.03482 z m -0.96554,-0.626252 c 0,0.164528 0.0187,0.284681 0.0562,0.360914 0.0373,0.07624 0.0958,0.114236 0.17613,0.114236 0.13403,0 0.20094,-0.0933 0.20094,-0.280357 0,-0.08625 -0.0175,-0.152239 -0.053,-0.197978 -0.035,-0.04552 -0.0872,-0.06872 -0.15611,-0.06872 -0.0733,0 -0.14792,0.01866 -0.22415,0.05598 z m -0.094,0.468096 c -0.0696,-0.10923 -0.10446,-0.277853 -0.10446,-0.505871 0,-0.245312 0.0421,-0.433278 0.12585,-0.563899 0.0837,-0.130621 0.20298,-0.195931 0.35773,-0.195931 0.0478,0 0.0963,0.0059 0.14495,0.01797 0.0485,0.01206 0.091,0.02776 0.12767,0.04779 v 0.145185 c -0.0353,-0.01616 -0.0753,-0.0289 -0.12039,-0.03869 -0.0451,-0.01001 -0.0872,-0.01525 -0.12675,-0.01525 -0.0999,0 -0.17454,0.0396 -0.22392,0.11856 -0.0494,0.07896 -0.0776,0.204352 -0.0844,0.376844 0.0901,-0.05302 0.18319,-0.07964 0.27899,-0.07964 0.10673,0 0.19229,0.03732 0.25646,0.111504 0.0642,0.07418 0.0963,0.172948 0.0963,0.296287 0,0.137902 -0.0371,0.247132 -0.10991,0.327918 -0.0733,0.08079 -0.17272,0.12129 -0.29765,0.12129 -0.14382,0 -0.25055,-0.05461 -0.32041,-0.164072 z m -0.7298,0.138358 h 0.20071 v -1.378118 h -0.18364 l -0.33179,0.188878 v 0.163162 l 0.31472,-0.149281 z m -0.74139,0.0198 c 0.038,0 0.0687,-0.0116 0.0922,-0.03482 0.023,-0.02298 0.0348,-0.05393 0.0348,-0.09239 0,-0.03845 -0.0118,-0.06918 -0.0348,-0.09239 -0.0234,-0.02344 -0.0542,-0.03482 -0.0922,-0.03482 -0.0378,0 -0.0685,0.01138 -0.0917,0.03482 -0.0232,0.02321 -0.0348,0.05394 -0.0348,0.09239 0,0.03845 0.0116,0.06941 0.0348,0.09239 0.0232,0.02321 0.0539,0.03482 0.0917,0.03482 z m -0.34635,-0.185009 h -0.57437 c 0.16316,-0.19889 0.27876,-0.346123 0.34612,-0.442382 0.0678,-0.09603 0.11424,-0.176588 0.1395,-0.24167 0.0255,-0.06486 0.0382,-0.127663 0.0382,-0.188877 0,-0.115146 -0.0303,-0.205034 -0.091,-0.269434 -0.0605,-0.06417 -0.14496,-0.09649 -0.25305,-0.09649 -0.0624,0 -0.12266,0.01047 -0.18182,0.03094 -0.0594,0.02048 -0.12038,0.05325 -0.18388,0.09831 v 0.169307 c 0.13358,-0.0851 0.24418,-0.127436 0.33156,-0.127436 0.11424,0 0.17113,0.06895 0.17113,0.206854 0,0.06236 -0.0162,0.127891 -0.0485,0.196842 -0.0325,0.06895 -0.086,0.155425 -0.16066,0.259421 -0.0746,0.103997 -0.18296,0.244175 -0.32519,0.420763 v 0.149054 h 0.79192 z m -1.68988,0.16521 h 0.20708 l 0.4417,-1.230884 v -0.147235 h -0.80694 v 0.164983 h 0.60623 z m -0.7794,0 h 0.20071 v -1.378119 h -0.18365 l -0.33178,0.188878 v 0.163162 l 0.31472,-0.149281 z m 7.37188,-4.144366 c 0,0.194794 0.0182,0.336338 0.0548,0.423722 0.0366,0.08738 0.0951,0.131076 0.17545,0.131076 0.0801,0 0.13858,-0.04369 0.17522,-0.131076 0.0366,-0.08738 0.0549,-0.228928 0.0549,-0.423722 0,-0.193427 -0.0182,-0.334061 -0.0549,-0.421445 -0.0366,-0.08738 -0.0951,-0.131304 -0.17522,-0.131304 -0.0803,0 -0.13881,0.04393 -0.17545,0.131304 -0.0366,0.08738 -0.0548,0.228018 -0.0548,0.421445 z m -0.094,0.533179 c -0.074,-0.121973 -0.11082,-0.299699 -0.11082,-0.533179 0,-0.233023 0.0369,-0.410522 0.11082,-0.531813 0.074,-0.12129 0.18205,-0.18205 0.32427,-0.18205 0.14223,0 0.25032,0.06076 0.32405,0.18205 0.0742,0.121291 0.11105,0.29879 0.11105,0.531813 0,0.234618 -0.0369,0.412571 -0.11105,0.534089 -0.0737,0.121291 -0.18182,0.181823 -0.32405,0.181823 -0.14222,0 -0.25031,-0.06076 -0.32427,-0.182733 z m -0.42759,0.176816 c 0.0378,0 0.0687,-0.0116 0.0917,-0.03482 0.0232,-0.02321 0.035,-0.05394 0.035,-0.09239 0,-0.03846 -0.0118,-0.06918 -0.035,-0.09262 -0.023,-0.02298 -0.0539,-0.03459 -0.0917,-0.03459 -0.038,0 -0.0689,0.0116 -0.0919,0.03459 -0.0232,0.02344 -0.0348,0.05416 -0.0348,0.09262 0,0.03845 0.0116,0.06918 0.0348,0.09239 0.023,0.02321 0.0539,0.03482 0.0919,0.03482 z m -0.76279,-0.0198 h 0.2007 v -1.378118 h -0.18364 l -0.33156,0.189105 v 0.162707 l 0.31449,-0.149054 z m -0.74117,0.0198 c 0.038,0 0.0685,-0.0116 0.0919,-0.03482 0.023,-0.02321 0.0348,-0.05394 0.0348,-0.09239 0,-0.03845 -0.0118,-0.06918 -0.0348,-0.09262 -0.0234,-0.02298 -0.0539,-0.03459 -0.0919,-0.03459 -0.038,0 -0.0687,0.0116 -0.0919,0.03459 -0.0232,0.02344 -0.0348,0.05416 -0.0348,0.09262 0,0.03846 0.0116,0.06918 0.0348,0.09239 0.0232,0.02321 0.0539,0.03482 0.0919,0.03482 z m -0.96555,-0.626252 c 0,0.1643 0.0187,0.284681 0.0562,0.360914 0.0373,0.07624 0.0958,0.114236 0.17614,0.114236 0.13403,0 0.20093,-0.0933 0.20093,-0.280129 0,-0.08625 -0.0175,-0.152239 -0.053,-0.198207 -0.035,-0.04574 -0.0872,-0.0685 -0.15611,-0.0685 -0.0733,0 -0.14791,0.01866 -0.22414,0.05575 z m -0.094,0.468324 c -0.0696,-0.109458 -0.10445,-0.278082 -0.10445,-0.506327 0,-0.245085 0.0421,-0.433051 0.12584,-0.563672 0.0837,-0.130621 0.20299,-0.195932 0.35773,-0.195932 0.0478,0 0.0963,0.0061 0.14496,0.01798 0.0485,0.01184 0.091,0.02776 0.12766,0.04779 v 0.145186 c -0.0353,-0.01593 -0.0753,-0.0289 -0.12038,-0.03891 -0.0451,-0.01001 -0.0872,-0.01479 -0.12675,-0.01479 -0.0999,0 -0.17454,0.03937 -0.22392,0.118332 -0.0494,0.07874 -0.0776,0.204579 -0.0844,0.376616 0.0901,-0.05279 0.18318,-0.07942 0.27899,-0.07942 0.10672,0 0.19229,0.0371 0.25646,0.111279 0.0642,0.07441 0.0963,0.173174 0.0963,0.296513 0,0.137676 -0.0371,0.247133 -0.10991,0.327917 -0.0733,0.08101 -0.17272,0.121291 -0.29765,0.121291 -0.14382,0 -0.25055,-0.05461 -0.32041,-0.163844 z m -0.72979,0.13813 h 0.20071 v -1.378118 h -0.18364 l -0.33179,0.189104 v 0.162708 l 0.31472,-0.149054 z m -0.7414,0.0198 c 0.038,0 0.0687,-0.0116 0.0922,-0.03482 0.023,-0.02321 0.0348,-0.05394 0.0348,-0.09239 0,-0.03845 -0.0118,-0.06918 -0.0348,-0.09262 -0.0234,-0.02298 -0.0542,-0.03459 -0.0922,-0.03459 -0.0378,0 -0.0685,0.0116 -0.0917,0.03459 -0.0232,0.02344 -0.0348,0.05416 -0.0348,0.09262 0,0.03846 0.0116,0.06918 0.0348,0.09239 0.0232,0.02321 0.0539,0.03482 0.0917,0.03482 z m -0.34635,-0.184781 h -0.57437 c 0.16317,-0.19889 0.27877,-0.346578 0.34613,-0.442609 0.0678,-0.09603 0.11423,-0.176589 0.13949,-0.241444 0.0255,-0.06508 0.0382,-0.128117 0.0382,-0.189104 0,-0.115147 -0.0303,-0.205034 -0.091,-0.269434 -0.0605,-0.06417 -0.14495,-0.09649 -0.25305,-0.09649 -0.0624,0 -0.12265,0.01024 -0.18182,0.03095 -0.0594,0.02048 -0.12038,0.05325 -0.18387,0.09854 v 0.168851 c 0.13358,-0.08465 0.24418,-0.127207 0.33156,-0.127207 0.11424,0 0.17113,0.06895 0.17113,0.206626 0,0.06258 -0.0162,0.128118 -0.0485,0.19707 -0.0325,0.06895 -0.086,0.155424 -0.16066,0.259421 -0.0746,0.103996 -0.18296,0.244401 -0.32519,0.420763 v 0.149053 h 0.79192 z m -1.68988,0.164983 h 0.20709 l 0.44169,-1.230886 v -0.147232 h -0.80693 v 0.164983 h 0.60622 z m -0.7794,0 h 0.20071 v -1.378118 h -0.18364 l -0.33179,0.189104 v 0.162707 l 0.31471,-0.149055 z m 7.37188,-3.94889 c 0,0.194793 0.0182,0.33611 0.0548,0.423721 0.0366,0.08738 0.0951,0.131076 0.17546,0.131076 0.0801,0 0.13858,-0.04369 0.17522,-0.131076 0.0366,-0.08761 0.0549,-0.228928 0.0549,-0.423721 0,-0.193428 -0.0182,-0.334061 -0.0549,-0.421445 -0.0366,-0.08761 -0.0951,-0.131304 -0.17522,-0.131304 -0.0803,0 -0.13882,0.04369 -0.17546,0.131304 -0.0366,0.08738 -0.0548,0.228017 -0.0548,0.421445 z m -0.094,0.532951 c -0.074,-0.121973 -0.11082,-0.299472 -0.11082,-0.532951 0,-0.233252 0.0369,-0.410522 0.11082,-0.531813 0.074,-0.121291 0.18205,-0.18205 0.32428,-0.18205 0.14223,0 0.25032,0.06076 0.32405,0.18205 0.0742,0.121291 0.11105,0.298561 0.11105,0.531813 0,0.234616 -0.0369,0.412571 -0.11105,0.533862 -0.0737,0.121517 -0.18182,0.182049 -0.32405,0.182049 -0.14223,0 -0.25032,-0.06099 -0.32428,-0.18296 z m -0.42759,0.177043 c 0.0378,0 0.0687,-0.0116 0.0917,-0.03505 0.0232,-0.02298 0.035,-0.05394 0.035,-0.09239 0,-0.03845 -0.0118,-0.06895 -0.035,-0.09239 -0.023,-0.02321 -0.0539,-0.03459 -0.0917,-0.03459 -0.038,0 -0.0689,0.01138 -0.0919,0.03459 -0.0232,0.02344 -0.0348,0.05394 -0.0348,0.09239 0,0.03846 0.0116,0.06941 0.0348,0.09239 0.023,0.02344 0.0539,0.03505 0.0919,0.03505 z m -0.98217,-0.709996 c 0,0.194793 0.0182,0.33611 0.0546,0.423721 0.0369,0.08738 0.0951,0.131076 0.17522,0.131076 0.0803,0 0.13904,-0.04369 0.17545,-0.131076 0.0369,-0.08761 0.0549,-0.228928 0.0549,-0.423721 0,-0.193428 -0.018,-0.334061 -0.0549,-0.421445 -0.0364,-0.08761 -0.0951,-0.131304 -0.17545,-0.131304 -0.0801,0 -0.13835,0.04369 -0.17522,0.131304 -0.0364,0.08738 -0.0546,0.228017 -0.0546,0.421445 z m -0.0942,0.532951 c -0.074,-0.121973 -0.11082,-0.299472 -0.11082,-0.532951 0,-0.233252 0.0369,-0.410522 0.11082,-0.531813 0.0742,-0.121291 0.18205,-0.18205 0.32405,-0.18205 0.14245,0 0.25055,0.06076 0.32428,0.18205 0.0742,0.121291 0.11105,0.298561 0.11105,0.531813 0,0.234616 -0.0369,0.412571 -0.11105,0.533862 -0.0737,0.121517 -0.18183,0.182049 -0.32428,0.182049 -0.142,0 -0.24986,-0.06099 -0.32405,-0.18296 z m -0.42759,0.177043 c 0.038,0 0.0685,-0.0116 0.0919,-0.03505 0.023,-0.02298 0.0348,-0.05394 0.0348,-0.09239 0,-0.03845 -0.0118,-0.06895 -0.0348,-0.09239 -0.0234,-0.02321 -0.0539,-0.03459 -0.0919,-0.03459 -0.038,0 -0.0687,0.01138 -0.0919,0.03459 -0.0232,0.02344 -0.0348,0.05394 -0.0348,0.09239 0,0.03846 0.0116,0.06941 0.0348,0.09239 0.0232,0.02344 0.0539,0.03505 0.0919,0.03505 z m -0.96555,-0.626479 c 0,0.164528 0.0187,0.284908 0.0562,0.361142 0.0373,0.07623 0.0958,0.114236 0.17614,0.114236 0.13403,0 0.20093,-0.09353 0.20093,-0.280585 0,-0.08625 -0.0175,-0.152011 -0.053,-0.197751 -0.035,-0.04574 -0.0872,-0.06872 -0.1561,-0.06872 -0.0733,0 -0.14792,0.01866 -0.22415,0.05598 z m -0.094,0.468324 c -0.0696,-0.109458 -0.10445,-0.278081 -0.10445,-0.506099 0,-0.245085 0.0421,-0.433051 0.12585,-0.563899 0.0837,-0.130393 0.20298,-0.195704 0.35772,-0.195704 0.0478,0 0.0963,0.0059 0.14496,0.01775 0.0485,0.01206 0.091,0.02799 0.12766,0.04779 v 0.145412 c -0.0353,-0.01616 -0.0753,-0.0289 -0.12038,-0.03891 -0.0451,-0.01001 -0.0872,-0.01502 -0.12675,-0.01502 -0.0999,0 -0.17454,0.03937 -0.22392,0.11856 -0.0494,0.07874 -0.0776,0.204351 -0.0844,0.376616 0.0901,-0.05279 0.18319,-0.07942 0.27899,-0.07942 0.10673,0 0.19229,0.0371 0.25646,0.111278 0.0642,0.07418 0.0963,0.173175 0.0963,0.296514 0,0.137675 -0.0371,0.246905 -0.10991,0.327917 -0.0733,0.08079 -0.17272,0.121291 -0.29765,0.121291 -0.14382,0 -0.25055,-0.05461 -0.32041,-0.164072 z m -0.72979,0.138357 h 0.20071 v -1.378345 h -0.18364 l -0.33179,0.188877 v 0.163162 l 0.31472,-0.149053 z m -0.7414,0.0198 c 0.038,0 0.0687,-0.0116 0.0922,-0.03505 0.023,-0.02298 0.0348,-0.05394 0.0348,-0.09239 0,-0.03845 -0.0118,-0.06895 -0.0348,-0.09239 -0.0234,-0.02321 -0.0542,-0.03459 -0.0922,-0.03459 -0.0378,0 -0.0685,0.01138 -0.0917,0.03459 -0.0232,0.02344 -0.0348,0.05394 -0.0348,0.09239 0,0.03846 0.0116,0.06941 0.0348,0.09239 0.0232,0.02344 0.0539,0.03505 0.0917,0.03505 z m -0.34635,-0.185008 h -0.57436 c 0.16316,-0.198889 0.27876,-0.34635 0.34612,-0.442381 0.0678,-0.09603 0.11424,-0.176589 0.13949,-0.241672 0.0255,-0.06508 0.0382,-0.12789 0.0382,-0.189103 0,-0.11492 -0.0303,-0.204806 -0.091,-0.269207 -0.0605,-0.06417 -0.14495,-0.09649 -0.25304,-0.09649 -0.0624,0 -0.12266,0.01024 -0.18183,0.03095 -0.0594,0.02048 -0.12038,0.05325 -0.18387,0.09831 v 0.169079 c 0.13358,-0.08488 0.24418,-0.127208 0.33156,-0.127208 0.11424,0 0.17113,0.06895 0.17113,0.206627 0,0.06258 -0.0162,0.128118 -0.0485,0.196842 -0.0325,0.06895 -0.086,0.155653 -0.16066,0.259648 -0.0746,0.103996 -0.18296,0.244175 -0.32519,0.420535 v 0.149282 h 0.79192 z m -1.68987,0.16521 h 0.20708 l 0.4417,-1.230884 v -0.147461 h -0.80694 v 0.165211 h 0.60623 z m -0.77941,-1.17536 -0.31471,0.149054 v -0.163162 l 0.33178,-0.188877 h 0.18364 v 1.378345 h -0.20071 z"
       id="AWS-Amazon-Route-53_Route-table_Resource-Icon_light-bg"
       fill="#8c4fff"
       style="fill-rule:evenodd;stroke:none;stroke-width:0.227562" /><g
       style="fill:none"
       id="g3"
       transform="matrix(0.234375,0,0,0.234375,76.799852,78.425967)"><g
         id="Icon-Architecture/48/Arch_Amazon-API-Gateway_48"><g
           id="Icon-Architecture-BG/48/Networking-Content-Delivery"><rect
             id="Rectangle-615"
             width="64"
             height="64"
             fill="#8c4fff"
             x="0"
             y="0" /></g><g
           id="Icon-Service/48/Amazon-API-Gateway_48"><path
             id="Amazon-API-Gateway_Icon_48_Squid"
             fill-rule="evenodd"
             clip-rule="evenodd"
             d="m 28,43.9999 h 3 v -2 h -3 z m 5,0 h 3 v -2 H 33 Z M 28,21.9998 h 3 v -2 h -3 z m 5,0 h 3 v -2 h -3 z m -11,-9.259 -10,5.833 V 46.382 l 10,5 z m 2,7.259 h 2 v 2 h -2 v 20.0001 h 2 v 2 H 24 V 53 c 0,0.347 -0.18,0.668 -0.475,0.851 C 23.365,53.95 23.183,54 23,54 22.847,54 22.694,53.965 22.553,53.895 l -12,-6 C 10.214,47.725 10,47.379 10,47 V 17.9998 c 0,-0.355 0.188,-0.685 0.496,-0.864 l 12,-7 c 0.309,-0.18005 0.692,-0.18105 1.002,-0.003 0.311,0.178 0.502,0.509 0.502,0.867 z m 28,-1.426 -10,-5.833 V 51.382 l 10,-5 z m 2,-0.574 V 47 c 0,0.379 -0.214,0.725 -0.553,0.895 l -12,6 C 41.306,53.965 41.153,54 41,54 40.817,54 40.635,53.95 40.475,53.851 40.18,53.668 40,53.347 40,53 v -9.0001 h -2 v -2 h 2 V 21.9998 h -2 v -2 h 2 v -9 c 0,-0.358 0.191,-0.689 0.502,-0.867 0.31,-0.17705 0.693,-0.17705 1.002,0.003 l 12,7 c 0.308,0.179 0.496,0.509 0.496,0.864 z m -19.061,9.3421 -1.878,-0.6841 -4,11.0001 1.878,0.684 z m 4.768,5.365 c 0.391,-0.391 0.391,-1.023 0,-1.414 l -3,-3 -1.414,1.414 2.293,2.293 -2.293,2.293 1.414,1.414 z m -12.414,3 -3,-3 c -0.391,-0.391 -0.391,-1.023 0,-1.414 l 3,-3 1.414,1.414 -2.293,2.293 2.293,2.293 z"
             fill="#ffffff" /></g></g></g><path
       d="m 160.27095,75.183065 c -3.75954,0 -6.81818,-3.058637 -6.81818,-6.818183 0,-3.759546 3.05864,-6.818183 6.81818,-6.818183 3.75955,0 6.81819,3.058637 6.81819,6.818183 0,3.759546 -3.05864,6.818183 -6.81819,6.818183 z m 0,-14.318183 c -4.13556,0 -7.5,3.364432 -7.5,7.5 0,4.135569 3.36444,7.5 7.5,7.5 4.13557,0 7.5,-3.364431 7.5,-7.5 0,-4.135568 -3.36443,-7.5 -7.5,-7.5 z m -2.30761,11.335228 h -1.82557 l 2.16307,-4.531023 0.91398,1.88625 z m 0.64193,-5.466478 c -0.0573,-0.117612 -0.17625,-0.192273 -0.30682,-0.192273 h -0.001 c -0.13125,3.41e-4 -0.25022,0.07602 -0.30647,0.194318 l -2.70103,5.658411 c -0.0508,0.10568 -0.0433,0.229772 0.0191,0.328635 0.0624,0.0992 0.17114,0.159204 0.28841,0.159204 h 2.5817 c 0.13194,0 0.25194,-0.07602 0.30853,-0.194999 l 1.41341,-2.987387 c 0.044,-0.09307 0.0436,-0.201817 -0.001,-0.294545 z m 5.79921,5.466478 h -1.85864 l -3.37909,-7.260342 c -0.0559,-0.119996 -0.17659,-0.197045 -0.3092,-0.197045 h -1.2283 l 0.001,-1.40625 h 2.46136 l 3.36273,7.259659 c 0.0559,0.120344 0.17625,0.197727 0.30921,0.197727 h 0.64056 z m 0.34091,-2.088068 h -0.76364 l -3.36273,-7.25966 c -0.0563,-0.120343 -0.17659,-0.197728 -0.30954,-0.197728 h -3.01943 c -0.18819,0 -0.34057,0.152387 -0.34091,0.340569 l -0.002,2.088068 c 0,0.09068 0.0358,0.177272 0.0999,0.241364 0.0637,0.06409 0.15034,0.09988 0.24102,0.09988 h 1.35239 l 3.37909,7.260341 c 0.0559,0.119996 0.17625,0.197046 0.30886,0.197046 h 2.41705 c 0.18852,0 0.34091,-0.152386 0.34091,-0.340909 v -2.088068 c 0,-0.188524 -0.15239,-0.340909 -0.34091,-0.340909 z"
       id="Amazon-Lambda-Lambda-Function_Resource-Icon_light-bg"
       fill="#ed7100"
       style="fill-rule:evenodd;stroke:none;stroke-width:0.340909" /><g
       id="Icon-Architecture/48/Arch_Amazon-DynamoDB_48"
       stroke="none"
       stroke-width="1"
       fill="none"
       fill-rule="evenodd"
       transform="matrix(0.26458333,0,0,0.26458333,83.003286,84.310769)"><g
         id="Icon-Architecture-BG/48/Database"
         fill="#c925d1"><rect
           id="Rectangle-9"
           x="0"
           y="0"
           width="64"
           height="64" /></g><path
         d="m 46.585829,25.249276 h -3.584982 c -0.327998,0 -0.634996,-0.162753 -0.821995,-0.434682 -0.186999,-0.272941 -0.229999,-0.620687 -0.114,-0.93103 l 2.492987,-6.721408 h -8.912953 l -4.090978,9.09801 h 4.446976 c 0.320999,0 0.622997,0.155677 0.811996,0.420531 0.186999,0.262831 0.238999,0.601479 0.135999,0.909801 l -3.65998,11.100583 z m 3.120983,-0.296191 -17.998905,18.196021 c -0.191999,0.195102 -0.448998,0.296191 -0.706996,0.296191 -0.181999,0 -0.362999,-0.04953 -0.524998,-0.150623 -0.394998,-0.246657 -0.570997,-0.734917 -0.422997,-1.179708 l 4.559976,-13.83302 h -4.611976 c -0.339998,0 -0.655997,-0.174884 -0.840996,-0.462987 -0.182999,-0.290126 -0.209999,-0.653035 -0.069,-0.966411 l 4.999973,-11.119791 c 0.161999,-0.360887 0.516998,-0.592381 0.909996,-0.592381 h 10.999942 c 0.327998,0 0.634996,0.162753 0.821995,0.434683 0.187,0.27294 0.229999,0.620686 0.115,0.931029 l -2.493987,6.721408 h 4.555976 c 0.403998,0 0.769996,0.246657 0.923995,0.623719 0.154999,0.378073 0.069,0.812756 -0.216998,1.10187 z m -8.705954,19.266554 c -2.709986,1.886321 -7.68696,2.882047 -12.467934,2.882047 -4.815975,0 -9.836949,-1.008868 -12.532934,-2.923494 l 9.99e-4,3.81611 c 0,1.663925 4.767975,3.983918 12.531935,3.983918 7.49496,0 12.467934,-2.702109 12.467934,-4.489363 z m 2.063989,-3.269219 c 0,0.187015 -0.032,0.366954 -0.064,0.545881 v 5.992556 C 43.000847,51.079539 36.510882,54 28.532924,54 21.62996,54 14.661997,52.110647 14.06,48.499747 H 14.001 L 14,43.445297 V 30.303726 16.151266 h 10e-4 C 14.001,12.155218 21.487961,10 28.532924,10 c 3.940979,0 7.729959,0.639893 10.396945,1.755916 l -0.765996,1.868125 c -2.431987,-1.018977 -5.942969,-1.602261 -9.630949,-1.602261 -7.76396,0 -12.531935,2.404908 -12.531935,4.129486 0,1.724578 4.767975,4.129486 12.531935,4.129486 0.194999,0 0.398998,0.001 0.595996,-0.0071 l 0.078,2.019759 c -0.224999,0.0091 -0.448998,0.0091 -0.673996,0.0091 -4.816975,0 -9.836949,-1.008868 -12.532934,-2.923494 v 4.357947 h 9.99e-4 v 0.01718 c 0.005,0.529706 0.488998,1.143317 1.363993,1.719524 1.98199,1.287874 5.549971,2.168359 9.53895,2.35133 l -0.091,2.019758 c -4.125979,-0.190047 -7.74996,-1.06851 -10.085947,-2.416027 -0.309999,0.298213 -0.725997,1.05638 -0.725997,1.466802 0,1.724578 4.767975,4.129485 12.531935,4.129485 0.737996,0 1.464992,-0.02527 2.161988,-0.0748 l 0.141,2.016725 c -0.743997,0.05358 -1.518993,0.07986 -2.302988,0.07986 -4.816975,0 -9.836949,-1.008869 -12.532934,-2.923494 v 3.66953 h 9.99e-4 c 0.005,0.546892 0.488998,1.160502 1.363993,1.73671 2.267988,1.474888 6.548966,2.393787 11.167942,2.393787 h 0.329998 v 2.02178 h -0.329998 c -4.777975,0 -9.859949,-1.007857 -12.531935,-2.543399 -0.321998,0.298213 0,1.01089 0,1.548683 0,1.724579 4.767975,4.129486 12.531935,4.129486 7.764959,0 12.531934,-2.404907 12.531934,-4.129486 0,-0.609566 -0.598997,-1.174654 -1.091994,-1.538574 -0.408998,0.246657 -0.858996,0.483205 -1.371993,0.699536 l -0.767996,-1.867114 c 0.530997,-0.223407 0.989995,-0.462988 1.363993,-0.711667 1.100994,-0.733906 1.80399,-1.778155 1.80399,-2.174424 h 1.999989 c 0,0.940127 -0.620996,1.946974 -1.416992,2.774893 1.191994,1.040206 1.480992,2.07839 1.480992,2.81735 z m -25.922864,7.438129 c 0.790996,0.4084 1.715991,0.77232 2.751986,1.080642 l 0.563997,-1.939898 c -0.915995,-0.27193 -1.725991,-0.589349 -2.405987,-0.941139 z m 2.751986,-11.050039 0.563997,-1.938887 c -0.915995,-0.27294 -1.725991,-0.589349 -2.405987,-0.941138 l -0.909996,1.799384 c 0.790996,0.40941 1.715991,0.77232 2.751986,1.080641 z m -2.751986,-13.210311 0.909996,-1.800395 c 0.679996,0.35179 1.489992,0.668198 2.405987,0.941139 l -0.563997,1.939898 c -1.035995,-0.308322 -1.96099,-0.672242 -2.751986,-1.080642 z"
         id="Amazon-DynamoDB_Icon_48_Squid"
         fill="#ffffff" /></g></g></svg>
